<?xml version="1.0" encoding="UTF-8" standalone="no"?>
<!DOCTYPE svg PUBLIC "-//W3C//DTD SVG 1.1//EN" "http://www.w3.org/Graphics/SVG/1.1/DTD/svg11.dtd">
<svg xmlns="http://www.w3.org/2000/svg" version="1.1" viewBox="0.00 0.00 103.00 103.00">
<path fill="#a29a8c" d="
  M 49.21 0.00
  L 53.27 0.00
  Q 57.66 1.00 59.13 1.85
  Q 73.20 9.91 86.51 17.55
  C 94.37 22.06 98.39 26.09 98.32 35.05
  Q 98.22 49.21 98.36 66.26
  C 98.42 73.66 96.44 79.68 90.08 83.33
  Q 75.48 91.71 60.24 100.55
  Q 57.45 102.17 53.11 103.00
  L 48.96 103.00
  Q 29.07 93.40 12.46 83.06
  C 6.74 79.50 4.61 73.86 4.65 67.02
  Q 4.75 48.67 4.73 34.52
  C 4.72 25.85 8.92 22.05 15.97 17.81
  Q 32.57 7.85 49.21 0.00
  Z
  M 12.72 68.40
  C 12.72 71.40 13.98 74.66 16.71 76.20
  Q 30.01 83.74 43.79 91.93
  C 48.13 94.50 51.59 96.21 55.76 93.80
  Q 69.44 85.90 85.43 76.72
  C 88.37 75.03 90.22 72.58 90.23 68.98
  Q 90.29 52.12 90.26 34.37
  C 90.26 31.31 88.88 28.31 86.15 26.73
  Q 71.41 18.16 56.24 9.47
  C 53.60 7.96 50.49 7.37 47.67 8.98
  Q 33.64 16.99 17.63 26.24
  Q 12.78 29.04 12.77 33.97
  Q 12.72 49.92 12.72 68.40
  Z"
/>
<path fill="#a29a8c" d="
  M 38.44 51.19
  Q 33.50 46.95 27.96 42.33
  C 23.33 38.47 28.38 32.11 33.17 36.14
  Q 40.54 42.34 47.52 48.30
  A 4.24 4.24 0.0 0 1 47.51 54.76
  Q 40.22 60.93 32.75 67.16
  C 28.58 70.64 23.32 64.56 27.87 60.72
  Q 33.03 56.38 38.44 51.86
  A 0.44 0.44 0.0 0 0 38.44 51.19
  Z"
/>
<rect fill="#a29a8c" x="-13.03" y="-4.05" transform="translate(63.84,64.12) rotate(0.1)" width="26.06" height="8.10" rx="3.91"/>
</svg>
