<?xml version="1.0" encoding="UTF-8" standalone="no"?>
<!DOCTYPE svg PUBLIC "-//W3C//DTD SVG 1.1//EN" "http://www.w3.org/Graphics/SVG/1.1/DTD/svg11.dtd">
<svg xmlns="http://www.w3.org/2000/svg" version="1.1" viewBox="0.00 0.00 512.00 512.00">
<path fill="#FFFFFF" d="
  M 254.80 0.00
  L 257.31 0.00
  Q 269.01 1.88 272.68 11.07
  Q 274.34 15.22 274.33 25.89
  Q 274.18 201.01 274.30 375.88
  A 0.21 0.21 0.0 0 0 274.66 376.03
  Q 304.89 345.82 334.06 316.69
  C 338.71 312.05 345.68 309.94 352.00 311.79
  C 365.81 315.85 370.07 332.39 359.73 342.73
  Q 314.50 387.96 269.21 433.23
  C 261.33 441.11 250.00 440.48 242.07 432.52
  Q 198.03 388.34 154.47 344.96
  Q 149.27 339.78 147.93 336.35
  C 140.52 317.42 163.79 302.51 178.22 316.93
  Q 207.73 346.42 237.16 375.87
  Q 237.70 376.42 237.71 375.64
  Q 237.81 201.47 237.67 24.89
  Q 237.66 15.27 239.27 11.16
  Q 242.90 1.88 254.80 0.00
  Z"
/>
<path fill="#FFFFFF" d="
  M 441.38 512.00
  L 70.65 512.00
  Q 48.97 510.57 34.34 495.91
  Q 18.24 479.77 18.25 455.15
  Q 18.28 399.28 18.27 348.14
  Q 18.27 340.29 23.43 334.85
  C 35.07 322.57 54.83 331.41 54.83 347.96
  Q 54.82 402.23 54.83 456.29
  C 54.84 466.84 62.62 475.44 73.21 475.44
  Q 253.98 475.38 436.58 475.49
  C 445.43 475.49 452.58 472.04 455.89 463.68
  Q 457.31 460.12 457.27 451.38
  Q 457.06 402.40 457.21 347.27
  C 457.24 337.48 465.13 329.50 474.94 329.24
  C 483.35 329.03 490.88 334.54 493.05 342.69
  Q 493.72 345.21 493.72 351.88
  Q 493.75 404.19 493.71 456.50
  C 493.70 471.52 488.16 485.27 477.60 495.89
  Q 463.19 510.37 441.38 512.00
  Z"
/>
</svg>
