<?xml version="1.0" encoding="UTF-8" standalone="no"?>
<!DOCTYPE svg PUBLIC "-//W3C//DTD SVG 1.1//EN" "http://www.w3.org/Graphics/SVG/1.1/DTD/svg11.dtd">
<svg xmlns="http://www.w3.org/2000/svg" version="1.1" viewBox="0.00 0.00 59.00 59.00">
<path fill="#FFFFFF" d="
  M 43.73 49.24
  C 46.88 49.24 49.17 47.27 49.17 44.02
  Q 49.18 37.95 49.27 31.98
  Q 49.30 29.63 51.64 29.52
  Q 51.96 29.50 52.27 29.60
  Q 54.07 30.18 54.04 32.06
  Q 53.97 36.69 54.12 42.05
  C 54.31 49.08 50.92 54.09 43.70 54.06
  Q 30.17 54.01 15.71 54.10
  C 9.10 54.14 4.78 50.02 4.86 43.15
  Q 5.00 30.10 4.86 16.58
  C 4.79 9.24 8.62 4.70 16.10 4.90
  Q 21.45 5.04 26.92 4.95
  Q 28.99 4.91 29.46 6.93
  Q 29.52 7.20 29.49 7.47
  Q 29.17 9.87 26.75 9.82
  Q 20.81 9.70 15.07 9.83
  C 11.56 9.91 9.75 12.24 9.78 15.48
  Q 9.88 28.62 9.83 43.30
  Q 9.80 49.15 15.30 49.17
  Q 29.02 49.23 43.73 49.24
  Z"
/>
<path fill="#FFFFFF" d="
  M 49.19 15.00
  Q 49.19 13.29 47.98 14.49
  L 30.90 31.56
  Q 29.60 32.86 28.24 31.62
  L 27.87 31.29
  Q 25.95 29.55 27.78 27.71
  L 44.47 10.96
  Q 45.61 9.82 43.99 9.81
  L 36.55 9.79
  A 2.05 2.05 0.0 0 1 34.50 7.80
  L 34.49 7.40
  Q 34.41 4.96 36.85 4.96
  L 51.74 4.96
  A 2.30 2.30 0.0 0 1 54.04 7.25
  L 54.06 22.37
  Q 54.06 24.31 52.13 24.47
  L 51.83 24.50
  Q 49.21 24.72 49.20 22.08
  L 49.19 15.00
  Z"
/>
</svg>
