<?xml version="1.0" encoding="UTF-8" standalone="no"?>
<!DOCTYPE svg PUBLIC "-//W3C//DTD SVG 1.1//EN" "http://www.w3.org/Graphics/SVG/1.1/DTD/svg11.dtd">
<svg xmlns="http://www.w3.org/2000/svg" version="1.1" viewBox="0.00 0.00 103.00 103.00">
<path fill="#a29a8c" d="
  M 103.00 32.79
  L 103.00 33.83
  C 102.60 34.77 102.13 35.45 101.13 35.89
  Q 77.83 45.90 54.52 55.86
  C 52.82 56.59 51.46 57.13 49.69 56.37
  Q 25.55 46.07 1.40 35.70
  A 1.44 1.42 87.8 0 1 0.73 35.07
  L 0.00 33.71
  L 0.00 32.72
  Q 0.71 31.16 1.57 30.83
  Q 25.63 21.61 50.69 12.15
  A 2.27 2.23 -44.5 0 1 52.28 12.15
  Q 77.03 21.48 101.43 30.84
  Q 102.49 31.25 103.00 32.79
  Z
  M 51.61 17.74
  A 0.30 0.30 0.0 0 0 51.39 17.74
  L 10.74 33.19
  A 0.30 0.30 0.0 0 0 10.73 33.74
  L 51.37 51.13
  A 0.30 0.30 0.0 0 0 51.61 51.13
  L 92.26 33.74
  A 0.30 0.30 0.0 0 0 92.25 33.19
  L 51.61 17.74
  Z"
/>
<path fill="#a29a8c" d="
  M 103.00 44.57
  L 103.00 45.83
  Q 102.36 47.24 101.77 47.49
  Q 78.19 57.61 54.61 67.69
  C 53.02 68.37 51.77 69.16 50.04 68.42
  Q 25.49 57.89 1.68 47.72
  C 0.78 47.33 0.44 46.67 0.00 45.85
  L 0.00 44.49
  Q 1.34 41.58 4.75 43.04
  Q 27.87 52.95 50.99 62.84
  Q 51.50 63.06 52.01 62.84
  Q 75.33 52.86 98.75 42.82
  Q 101.83 41.49 103.00 44.57
  Z"
/>
<path fill="#a29a8c" d="
  M 103.00 55.62
  L 103.00 56.79
  Q 102.39 58.25 101.42 58.66
  Q 76.81 69.13 52.43 79.63
  A 2.35 2.35 0.0 0 1 50.57 79.63
  Q 26.02 69.08 1.56 58.66
  Q 0.57 58.24 0.00 56.66
  L 0.00 55.54
  Q 1.31 52.57 3.66 53.57
  Q 27.21 63.64 50.49 73.60
  A 2.62 2.59 -44.7 0 0 52.52 73.60
  Q 75.86 63.61 99.33 53.57
  Q 101.80 52.52 103.00 55.62
  Z"
/>
<path fill="#a29a8c" d="
  M 103.00 66.57
  L 103.00 67.77
  C 102.58 68.57 102.18 69.30 101.31 69.67
  Q 76.70 80.19 52.39 90.60
  Q 51.53 90.97 50.67 90.61
  Q 29.92 81.79 9.60 73.04
  Q 9.50 73.00 5.84 71.61
  Q 2.26 70.26 0.00 67.98
  L 0.00 66.50
  Q 1.19 63.47 3.73 64.56
  Q 27.25 74.64 50.51 84.61
  A 2.43 2.42 45.2 0 0 52.41 84.62
  Q 75.36 74.85 98.99 64.66
  C 100.77 63.89 102.37 64.70 103.00 66.57
  Z"
/>
</svg>
