<?xml version="1.0" encoding="UTF-8" standalone="no"?>
<!DOCTYPE svg PUBLIC "-//W3C//DTD SVG 1.1//EN" "http://www.w3.org/Graphics/SVG/1.1/DTD/svg11.dtd">
<svg xmlns="http://www.w3.org/2000/svg" version="1.1" viewBox="0.00 0.00 512.00 512.00">
<g stroke-width="2.00" fill="none" stroke-linecap="butt">
<path stroke="#7cbcd4" stroke-opacity="0.753" vector-effect="non-scaling-stroke" d="
  M 360.88 84.63
  Q 341.85 78.61 322.00 75.02
  Q 262.72 64.31 203.07 72.65"
/>
<path stroke="#a0b8cd" stroke-opacity="0.753" vector-effect="non-scaling-stroke" d="
  M 360.60 107.58
  Q 345.76 98.96 332.35 91.24
  Q 326.69 87.98 320.49 88.03
  Q 310.40 88.10 299.74 94.37"
/>
<path stroke="#abbfd1" stroke-opacity="0.753" vector-effect="non-scaling-stroke" d="
  M 299.74 94.37
  Q 294.18 97.04 287.65 102.83"
/>
<path stroke="#a0b8cd" stroke-opacity="0.753" vector-effect="non-scaling-stroke" d="
  M 287.65 102.83
  Q 278.82 97.46 269.66 92.36
  C 260.87 87.47 252.03 87.23 242.15 90.11
  Q 229.25 93.87 218.57 102.66"
/>
<path stroke="#abbfd1" stroke-opacity="0.753" vector-effect="non-scaling-stroke" d="
  M 218.57 102.66
  Q 210.98 108.13 204.87 115.12
  Q 204.16 115.93 203.47 115.83"
/>
<path stroke="#dbe7fa" vector-effect="non-scaling-stroke" d="
  M 372.80 115.08
  Q 360.67 112.07 349.25 117.35
  Q 345.50 119.08 343.31 120.22"
/>
<path stroke="#d3e1f7" vector-effect="non-scaling-stroke" d="
  M 343.31 120.22
  L 299.74 94.37"
/>
<path stroke="#d3e1f7" vector-effect="non-scaling-stroke" d="
  M 287.65 102.83
  L 307.69 114.68
  A 0.35 0.27 85.7 0 1 307.79 114.79
  Q 308.01 115.16 307.56 115.38"
/>
<path stroke="#dbe7fa" vector-effect="non-scaling-stroke" d="
  M 307.56 115.38
  Q 299.43 112.80 291.25 114.86
  Q 290.78 114.98 290.30 114.81
  A 1.28 1.27 -51.1 0 0 289.23 114.93
  Q 287.65 115.93 285.85 115.84
  Q 285.39 115.82 285.04 116.13
  Q 284.50 116.62 283.78 116.74
  Q 283.00 116.87 282.28 117.15
  Q 271.04 121.47 261.61 129.01"
/>
<path stroke="#d3e1f7" vector-effect="non-scaling-stroke" d="
  M 261.61 129.01
  Q 261.35 127.93 260.89 127.66
  Q 245.16 118.35 229.47 108.97
  Q 229.36 108.91 229.19 108.95
  A 0.54 0.51 -34.3 0 1 228.82 108.89
  L 218.57 102.66"
/>
<path stroke="#e3ecfd" vector-effect="non-scaling-stroke" d="
  M 343.31 120.22
  Q 336.27 124.93 330.79 129.37
  Q 329.69 130.26 328.71 131.42
  Q 327.80 132.50 326.87 133.44
  Q 326.36 133.95 326.09 133.29
  Q 320.72 120.17 307.56 115.38"
/>
<path stroke="#e3ecfd" vector-effect="non-scaling-stroke" d="
  M 261.61 129.01
  Q 260.88 129.29 260.21 130.02
  Q 259.56 130.74 258.82 131.30
  Q 252.94 135.76 248.39 140.93
  Q 243.19 146.83 238.79 152.76
  Q 223.35 173.57 216.37 199.51
  Q 215.54 202.61 215.13 205.50
  Q 214.69 208.60 213.99 211.59
  Q 213.54 213.55 213.62 215.46
  C 213.77 218.76 213.15 221.70 213.42 225.09
  Q 213.94 231.69 214.67 236.13
  C 215.03 238.36 216.43 240.23 215.46 242.63"
/>
<path stroke="#d3e1f7" vector-effect="non-scaling-stroke" d="
  M 215.46 242.63
  Q 209.17 238.80 202.69 235.13
  Q 193.34 229.84 184.74 224.75
  Q 184.59 224.65 184.45 224.52
  Q 184.28 224.35 184.02 224.36
  Q 183.64 224.38 183.37 224.10
  Q 181.95 222.60 179.57 221.69
  A 5.55 5.50 74.8 0 1 178.10 220.84
  Q 176.15 219.25 172.71 217.76"
/>
<path stroke="#9da5af" vector-effect="non-scaling-stroke" d="
  M 405.95 223.83
  L 401.32 231.02"
/>
<path stroke="#f5deb6" vector-effect="non-scaling-stroke" d="
  M 401.32 231.02
  Q 401.07 231.71 400.56 232.15"
/>
<path stroke="#9da5af" vector-effect="non-scaling-stroke" d="
  M 400.56 232.15
  Q 397.19 236.80 393.03 241.50
  Q 383.71 252.02 371.54 259.04
  Q 315.81 291.14 260.15 323.23"
/>
<path stroke="#c0eaff" vector-effect="non-scaling-stroke" d="
  M 260.15 323.23
  Q 248.66 323.70 236.45 322.54"
/>
<path stroke="#f5f9ff" vector-effect="non-scaling-stroke" d="
  M 236.45 322.54
  Q 301.42 284.83 365.63 247.89
  C 385.57 236.43 399.73 214.40 405.33 192.74
  C 408.03 182.31 410.85 154.88 392.03 157.06
  Q 385.26 157.85 378.40 158.91
  A 0.63 0.63 0.0 0 1 377.67 158.30
  Q 377.58 151.05 377.13 143.44
  C 376.49 132.77 371.49 123.51 358.61 127.12
  C 349.24 129.75 340.66 136.58 333.85 143.77
  C 330.13 147.68 326.39 151.43 322.68 155.46
  A 0.63 0.63 0.0 0 1 321.63 155.26
  Q 318.17 146.34 314.54 138.17
  C 303.84 114.04 274.56 132.82 262.50 144.45
  C 244.64 161.67 230.87 185.42 226.75 210.30
  C 225.22 219.53 224.95 229.78 227.94 238.25
  Q 230.20 244.65 232.99 251.78
  Q 233.26 252.46 232.55 252.63
  Q 227.45 253.84 222.66 254.87
  C 213.37 256.87 205.57 261.30 198.93 267.55
  Q 175.63 289.45 170.01 319.94
  C 168.60 327.59 168.50 339.94 174.16 346.26
  C 180.88 353.77 194.02 347.58 201.01 342.76
  Q 201.56 342.39 203.03 342.64"
/>
<path stroke="#d6eeff" vector-effect="non-scaling-stroke" d="
  M 203.03 342.64
  L 203.23 356.11"
/>
<path stroke="#afc7d7" vector-effect="non-scaling-stroke" d="
  M 203.23 356.11
  L 202.53 356.41"
/>
<path stroke="#9da5af" vector-effect="non-scaling-stroke" d="
  M 202.53 356.41
  Q 194.14 361.30 185.51 362.22
  Q 174.68 363.36 165.34 356.24"
/>
<path stroke="#e3ecfd" vector-effect="non-scaling-stroke" d="
  M 165.34 356.24
  Q 165.72 356.40 165.89 356.34
  Q 166.23 356.21 165.99 355.94
  Q 159.41 348.70 157.73 338.85
  Q 157.71 338.73 157.59 338.71
  Q 157.53 338.70 157.51 338.75
  Q 157.33 339.06 157.40 338.71
  Q 157.66 337.52 157.36 336.38
  Q 156.84 334.40 156.72 332.31"
/>
<path stroke="#dbdac2" vector-effect="non-scaling-stroke" d="
  M 156.72 332.31
  L 156.73 324.79"
/>
<path stroke="#e3ecfd" vector-effect="non-scaling-stroke" d="
  M 156.73 324.79
  L 157.64 316.15
  Q 157.64 316.12 157.63 316.15
  Q 157.46 316.60 157.69 316.82
  Q 158.00 317.12 158.06 316.70
  Q 159.39 307.84 162.71 299.87
  Q 162.75 299.78 162.74 299.68
  Q 162.72 299.55 162.69 299.42
  Q 162.65 299.27 162.75 299.16
  Q 163.65 298.19 163.94 295.88"
/>
<path stroke="#dbe7fa" vector-effect="non-scaling-stroke" d="
  M 163.94 295.88
  Q 163.97 296.02 164.00 296.15
  Q 164.04 296.29 164.09 296.16
  Q 170.95 280.88 180.52 269.21
  Q 187.37 260.87 195.92 254.20
  Q 204.80 247.27 216.38 243.57
  A 0.42 0.42 0.0 0 0 216.57 242.90
  Q 216.15 242.41 215.46 242.63"
/>
<path stroke="#d3e1f7" vector-effect="non-scaling-stroke" d="
  M 163.94 295.88
  L 149.89 287.32
  Q 149.74 287.23 149.56 287.23
  Q 149.41 287.24 149.28 287.15
  Q 144.74 284.34 139.67 281.49
  Q 139.19 281.22 138.91 280.74
  C 138.58 280.20 137.54 280.14 136.90 279.81
  Q 134.66 278.63 132.82 277.27
  Q 132.37 276.93 131.82 276.79
  Q 131.14 276.62 130.89 275.98
  Q 130.82 275.81 130.69 275.69
  Q 130.51 275.53 130.32 275.65
  Q 130.03 275.83 129.75 275.66
  L 120.45 270.08"
/>
<path stroke="#dbe7fa" vector-effect="non-scaling-stroke" d="
  M 119.53 269.34
  Q 120.56 269.05 121.71 267.20"
/>
<path stroke="#d3d4c0" vector-effect="non-scaling-stroke" d="
  M 156.73 324.79
  Q 155.91 328.65 156.72 332.31"
/>
<path stroke="#959fad" vector-effect="non-scaling-stroke" d="
  M 165.34 356.24
  Q 136.15 339.36 125.58 332.91
  Q 121.73 330.56 118.59 325.71"
/>
<path stroke="#a7c1d4" vector-effect="non-scaling-stroke" d="
  M 118.59 325.71
  Q 117.80 324.08 118.27 324.74"
/>
<path stroke="#cee8fc" vector-effect="non-scaling-stroke" d="
  M 118.27 324.74
  L 118.39 297.43"
/>
<path stroke="#959fad" vector-effect="non-scaling-stroke" d="
  M 113.76 292.75
  L 115.34 285.09"
/>
<path stroke="#caf1ff" vector-effect="non-scaling-stroke" d="
  M 236.45 322.54
  Q 220.75 322.11 203.76 319.64
  Q 203.25 319.57 203.14 320.07
  Q 202.93 321.02 203.15 322.10"
/>
<path stroke="#e0f5ff" vector-effect="non-scaling-stroke" d="
  M 203.15 322.10
  L 203.03 342.64"
/>
<path stroke="#a79166" vector-effect="non-scaling-stroke" d="
  M 444.11 262.19
  Q 443.64 255.51 437.06 251.67
  Q 419.32 241.30 401.32 231.02"
/>
<path stroke="#a79166" vector-effect="non-scaling-stroke" d="
  M 442.39 263.54
  Q 443.22 257.02 437.58 253.63
  Q 429.75 248.91 400.56 232.15"
/>
<path stroke="#a79166" vector-effect="non-scaling-stroke" d="
  M 428.30 274.74
  L 361.03 313.72"
/>
<path stroke="#617a87" vector-effect="non-scaling-stroke" d="
  M 361.03 313.72
  L 360.76 310.62"
/>
<path stroke="#729daf" vector-effect="non-scaling-stroke" d="
  M 360.76 310.62
  Q 361.22 309.71 360.94 308.73
  Q 360.79 308.24 360.29 308.39
  Q 311.32 323.02 260.15 323.23"
/>
<path stroke="#84bfd6" vector-effect="non-scaling-stroke" d="
  M 360.76 310.62
  Q 346.60 314.59 339.50 316.19
  Q 299.00 325.35 257.48 325.28
  C 256.91 325.28 256.35 325.61 255.80 325.77"
/>
<path stroke="#abe6fe" vector-effect="non-scaling-stroke" d="
  M 255.80 325.77
  Q 255.83 325.56 255.48 325.36
  Q 255.28 325.24 254.98 325.24
  Q 230.71 325.19 212.25 322.76
  Q 205.91 321.92 203.15 322.10"
/>
<path stroke="#9eaf9a" vector-effect="non-scaling-stroke" d="
  M 360.74 313.91
  L 242.67 382.36"
/>
<path stroke="#b9b38d" vector-effect="non-scaling-stroke" d="
  M 242.67 382.36
  Q 242.57 382.39 242.47 382.42"
/>
<path stroke="#617a87" vector-effect="non-scaling-stroke" d="
  M 242.47 382.42
  Q 222.95 381.80 203.56 379.03
  Q 203.06 378.96 203.06 378.46
  Q 202.96 367.90 203.01 357.52
  Q 203.02 356.56 202.53 356.41"
/>
<path stroke="#99c3d6" vector-effect="non-scaling-stroke" d="
  M 203.23 356.11
  L 255.80 325.77"
/>
<path stroke="#dbe7fa" vector-effect="non-scaling-stroke" d="
  M 136.37 243.58
  Q 135.07 245.27 133.98 245.57"
/>
<path stroke="#dbe7fa" vector-effect="non-scaling-stroke" d="
  M 161.32 221.97
  L 158.20 223.23"
/>
<path stroke="#c5d6c2" vector-effect="non-scaling-stroke" d="
  M 113.00 294.89
  Q 113.13 295.71 113.35 295.99"
/>
<path stroke="#9eaf9a" vector-effect="non-scaling-stroke" d="
  M 113.35 295.99
  Q 112.98 295.92 112.62 296.12
  Q 93.79 307.04 75.00 317.97
  Q 71.08 320.25 70.06 324.83"
/>
<path stroke="#8d8d72" vector-effect="non-scaling-stroke" d="
  M 70.06 324.83
  Q 70.57 324.66 69.94 325.10"
/>
<path stroke="#e5c679" vector-effect="non-scaling-stroke" d="
  M 69.94 325.10
  Q 70.13 323.63 68.71 323.91"
/>
<path stroke="#8d8d72" vector-effect="non-scaling-stroke" d="
  M 68.71 323.91
  Q 68.99 323.34 69.01 323.05"
/>
<path stroke="#a79166" vector-effect="non-scaling-stroke" d="
  M 69.94 325.10
  Q 70.08 330.93 75.17 333.87
  Q 128.00 364.38 180.85 394.88
  Q 188.83 399.48 192.85 400.31
  Q 201.03 401.99 208.93 400.30
  Q 213.02 399.42 220.02 395.40
  Q 231.25 388.96 242.47 382.42"
/>
<path stroke="#617a87" vector-effect="non-scaling-stroke" d="
  M 118.59 325.71
  Q 117.98 326.08 118.25 327.11
  Q 118.43 327.82 118.43 328.52
  Q 118.48 341.48 118.46 354.67
  A 0.14 0.14 0.0 0 1 118.26 354.80
  Q 92.03 343.42 70.06 324.83"
/>
<path stroke="#7cbcd4" stroke-opacity="0.753" vector-effect="non-scaling-stroke" d="
  M 118.38 97.01
  Q 90.90 109.17 69.14 129.14
  Q 56.18 141.03 47.66 155.66
  Q 29.07 187.58 41.54 222.87
  Q 41.71 223.34 42.41 223.45"
/>
<path stroke="#c0eaff" vector-effect="non-scaling-stroke" d="
  M 69.24 262.53
  Q 70.66 263.16 71.34 264.65"
/>
<path stroke="#729daf" vector-effect="non-scaling-stroke" d="
  M 107.66 289.58
  L 113.76 292.75"
/>
<path stroke="#b8e4fc" vector-effect="non-scaling-stroke" d="
  M 113.76 292.75
  Q 116.24 294.11 117.00 294.32
  Q 119.01 294.85 118.39 297.43"
/>
<path stroke="#abe6fe" vector-effect="non-scaling-stroke" d="
  M 118.39 297.43
  L 113.00 294.89"
/>
<path stroke="#b0d2c2" vector-effect="non-scaling-stroke" d="
  M 113.00 294.89
  Q 112.98 295.35 112.23 294.87"
/>
<path stroke="#84bfd6" vector-effect="non-scaling-stroke" d="
  M 112.23 294.87
  L 112.19 294.62
  Q 112.18 294.59 112.15 294.57
  L 105.19 291.02"
/>
<path stroke="#7cbcd4" stroke-opacity="0.753" vector-effect="non-scaling-stroke" d="
  M 105.19 291.02
  Q 85.04 280.38 68.25 265.71
  Q 67.84 265.35 66.95 265.44"
/>
<path stroke="#b0dff9" vector-effect="non-scaling-stroke" d="
  M 66.95 265.44
  Q 67.11 264.28 65.62 263.24"
/>
<path stroke="#7cbcd4" stroke-opacity="0.753" vector-effect="non-scaling-stroke" d="
  M 65.62 263.24
  Q 60.16 257.83 57.56 254.94
  Q 47.36 243.55 40.58 229.36"
/>
<path stroke="#85cae3" stroke-opacity="0.878" vector-effect="non-scaling-stroke" d="
  M 40.58 229.36
  L 37.04 221.23"
/>
<path stroke="#7cbcd4" stroke-opacity="0.753" vector-effect="non-scaling-stroke" d="
  M 37.04 221.23
  L 33.26 204.93"
/>
<path stroke="#99c3d6" vector-effect="non-scaling-stroke" d="
  M 118.27 324.74
  C 113.56 317.97 112.60 307.99 113.15 300.00
  Q 113.29 297.95 113.35 295.99"
/>
<path stroke="#7cbcd4" stroke-opacity="0.753" vector-effect="non-scaling-stroke" d="
  M 478.88 206.32
  L 475.10 221.97"
/>
<path stroke="#85cae3" stroke-opacity="0.878" vector-effect="non-scaling-stroke" d="
  M 475.10 221.97
  L 471.35 230.44"
/>
<path stroke="#7cbcd4" stroke-opacity="0.753" vector-effect="non-scaling-stroke" d="
  M 471.35 230.44
  Q 464.91 243.49 455.99 253.90"
/>
<path stroke="#84bfd6" vector-effect="non-scaling-stroke" d="
  M 455.99 253.90
  Q 443.23 268.63 426.98 279.47"
/>
<path stroke="#729daf" vector-effect="non-scaling-stroke" d="
  M 426.98 279.47
  L 426.74 277.25"
/>
<path stroke="#cad6b5" vector-effect="non-scaling-stroke" d="
  M 426.74 277.25
  Q 427.13 276.16 428.30 274.74"
/>
<path stroke="#729daf" vector-effect="non-scaling-stroke" d="
  M 428.30 274.74
  Q 436.11 270.22 442.39 263.54"
/>
<path stroke="#cad6b5" vector-effect="non-scaling-stroke" d="
  M 442.39 263.54
  Q 443.50 263.40 444.11 262.19"
/>
<path stroke="#729daf" vector-effect="non-scaling-stroke" d="
  M 444.11 262.19
  L 453.97 251.59"
/>
<path stroke="#7cbcd4" stroke-opacity="0.753" vector-effect="non-scaling-stroke" d="
  M 469.99 224.68
  Q 476.18 208.49 475.69 194.74
  Q 474.95 174.00 463.67 155.07
  Q 450.64 133.20 427.69 117.30"
/>
<path stroke="#a79166" vector-effect="non-scaling-stroke" d="
  M 426.74 277.25
  L 361.11 315.29"
/>
<path stroke="#e5c679" vector-effect="non-scaling-stroke" d="
  M 361.11 315.29
  L 360.74 313.91"
/>
<path stroke="#b9b38d" vector-effect="non-scaling-stroke" d="
  M 360.74 313.91
  Q 360.82 313.78 361.03 313.72"
/>
<path stroke="#9eaf9a" vector-effect="non-scaling-stroke" d="
  M 360.22 315.75
  L 245.60 382.21"
/>
<path stroke="#8d8d72" vector-effect="non-scaling-stroke" d="
  M 245.60 382.21
  Q 245.08 382.81 243.73 383.26"
/>
<path stroke="#e5c679" vector-effect="non-scaling-stroke" d="
  M 243.73 383.26
  Q 243.18 382.94 242.67 382.36"
/>
<path stroke="#f5aab0" vector-effect="non-scaling-stroke" d="
  M 78.72 210.31
  L 75.73 211.93"
/>
<path stroke="#9da5af" vector-effect="non-scaling-stroke" d="
  M 162.00 192.74
  L 158.01 192.00"
/>
<path stroke="#9eaf9a" vector-effect="non-scaling-stroke" d="
  M 112.23 294.87
  Q 93.82 305.49 75.42 316.17
  Q 70.96 318.76 69.01 323.05"
/>
<path stroke="#617a87" vector-effect="non-scaling-stroke" d="
  M 69.01 323.05
  Q 68.73 323.14 68.50 323.13
  Q 68.29 323.12 68.06 322.92
  Q 64.40 319.83 61.45 316.44"
/>
<path stroke="#a79166" vector-effect="non-scaling-stroke" d="
  M 68.71 323.91
  Q 67.95 331.31 74.29 334.97
  Q 128.11 366.04 183.56 398.06
  Q 195.26 404.82 208.81 401.77
  Q 213.41 400.74 220.15 396.92
  Q 231.99 390.23 243.73 383.26"
/>
<path stroke="#536c77" vector-effect="non-scaling-stroke" d="
  M 254.56 382.61
  L 257.69 382.75"
/>
<path stroke="#3d444a" vector-effect="non-scaling-stroke" d="
  M 257.69 382.75
  Q 236.70 394.99 215.66 407.18
  Q 209.17 410.93 204.74 411.99
  Q 198.25 413.55 191.42 412.98"
/>
<path stroke="#464e54" vector-effect="non-scaling-stroke" d="
  M 191.42 412.98
  Q 189.12 412.22 186.50 412.14
  Q 185.18 412.10 181.59 410.67
  Q 179.22 409.72 177.03 408.45
  Q 169.94 404.32 162.70 400.18
  Q 162.35 399.98 161.95 400.07
  Q 161.61 400.15 161.55 399.80
  Q 161.48 399.31 161.04 399.09
  Q 157.81 397.44 154.58 395.52
  Q 146.12 390.51 137.66 385.76
  Q 137.55 385.70 137.47 385.81
  Q 137.44 385.85 137.39 385.87
  Q 137.20 385.94 137.19 385.74
  Q 137.15 385.18 136.57 385.01
  Q 136.14 384.88 135.73 384.64
  Q 126.68 379.33 117.50 374.05
  Q 117.22 373.89 116.97 374.05
  Q 116.54 374.31 116.57 373.81
  Q 116.58 373.53 116.33 373.38
  Q 114.01 371.92 111.62 370.82
  Q 111.51 370.77 111.41 370.83
  Q 111.27 370.91 111.11 370.90
  A 0.04 0.03 39.0 0 1 111.10 370.83
  Q 111.28 370.79 111.27 370.62
  Q 111.26 370.49 111.15 370.43
  Q 94.35 360.69 77.66 351.01
  Q 77.56 350.95 77.45 350.95
  Q 77.27 350.95 77.18 351.07
  Q 77.09 351.20 77.11 351.05
  Q 77.13 350.97 77.10 350.90
  Q 77.02 350.70 76.84 350.60
  Q 67.46 345.08 57.76 339.73
  Q 52.49 336.82 49.86 331.29"
/>
<path stroke="#a0b8cd" stroke-opacity="0.753" vector-effect="non-scaling-stroke" d="
  M 65.62 263.24
  L 62.00 263.86
  Q 61.50 263.95 61.10 263.63
  Q 56.39 259.82 50.27 262.39
  C 47.62 263.50 47.40 266.73 50.09 267.96
  Q 55.84 270.57 60.44 267.39
  C 62.35 266.06 64.68 265.90 66.95 265.44"
/>
<path stroke="#658e9e" stroke-opacity="0.753" vector-effect="non-scaling-stroke" d="
  M 105.19 291.02
  L 61.45 316.44"
/>
<path stroke="#4e606a" stroke-opacity="0.753" vector-effect="non-scaling-stroke" d="
  M 61.45 316.44
  Q 61.43 316.44 61.41 316.44"
/>
<path stroke="#658e9e" vector-effect="non-scaling-stroke" d="
  M 458.62 262.71
  Q 455.63 267.95 451.51 270.31
  Q 439.26 277.31 427.02 284.58"
/>
<path stroke="#617a87" vector-effect="non-scaling-stroke" d="
  M 427.02 284.58
  L 426.98 279.47"
/>
<path stroke="#293a3e" stroke-opacity="0.753" vector-effect="non-scaling-stroke" d="
  M 427.01 316.63
  Q 426.98 316.63 426.95 316.63"
/>
<path stroke="#537b89" stroke-opacity="0.753" vector-effect="non-scaling-stroke" d="
  M 426.95 316.63
  Q 438.50 309.98 449.94 303.53
  Q 454.73 300.83 456.78 297.75
  Q 458.72 294.83 458.76 293.00
  Q 458.86 289.09 458.88 285.23"
/>
<path stroke="#a0a783" stroke-opacity="0.753" vector-effect="non-scaling-stroke" d="
  M 458.88 285.23
  L 458.82 269.73"
/>
<path stroke="#537b89" stroke-opacity="0.753" vector-effect="non-scaling-stroke" d="
  M 458.82 269.73
  L 458.62 262.71"
/>
<path stroke="#658e9e" stroke-opacity="0.753" vector-effect="non-scaling-stroke" d="
  M 458.62 262.71
  Q 459.08 257.46 455.99 253.90"
/>
<path stroke="#343b3f" vector-effect="non-scaling-stroke" d="
  M 426.93 284.56
  L 361.22 322.48"
/>
<path stroke="#617a87" vector-effect="non-scaling-stroke" d="
  M 361.22 322.48
  Q 360.79 319.05 361.00 317.25
  Q 361.13 316.12 360.22 315.75"
/>
<path stroke="#8d8d72" vector-effect="non-scaling-stroke" d="
  M 360.22 315.75
  Q 360.52 315.93 361.11 315.29"
/>
<path stroke="#658e9e" vector-effect="non-scaling-stroke" d="
  M 360.97 323.50
  L 360.23 323.62
  Q 359.79 323.69 359.40 323.90
  Q 354.58 326.53 348.13 330.32
  Q 334.26 338.48 319.40 347.04
  C 317.83 347.94 316.56 349.37 314.88 350.00
  Q 313.05 350.67 311.42 351.62
  Q 301.41 357.46 291.69 363.10
  Q 290.70 363.68 289.79 364.47
  Q 288.82 365.31 287.52 366.00
  Q 287.01 366.27 286.44 366.25
  Q 285.95 366.24 285.59 366.54
  Q 285.06 366.98 284.99 367.02
  Q 271.97 374.51 259.01 382.12
  Q 257.60 382.94 254.56 382.61"
/>
<path stroke="#617a87" vector-effect="non-scaling-stroke" d="
  M 254.56 382.61
  L 245.60 382.21"
/>
<path stroke="#343b3f" vector-effect="non-scaling-stroke" d="
  M 191.42 412.98
  L 191.17 420.77"
/>
<path stroke="#9e875b" vector-effect="non-scaling-stroke" d="
  M 191.17 420.77
  Q 183.48 420.22 177.65 416.85
  Q 117.12 381.87 56.60 346.86
  Q 51.91 344.15 49.77 338.93"
/>
<path stroke="#91a18a" vector-effect="non-scaling-stroke" d="
  M 360.96 330.83
  L 273.16 381.83"
/>
<path stroke="#ab9b65" vector-effect="non-scaling-stroke" d="
  M 273.16 381.83
  Q 272.73 382.39 272.03 382.45"
/>
<path stroke="#415961" vector-effect="non-scaling-stroke" d="
  M 272.03 382.45
  L 257.69 382.75"
/>
<path stroke="#91a18a" vector-effect="non-scaling-stroke" d="
  M 458.82 269.73
  Q 456.46 275.12 452.35 277.61
  Q 443.75 282.84 427.04 292.32"
/>
<path stroke="#384f56" vector-effect="non-scaling-stroke" d="
  M 427.04 292.32
  L 426.93 284.56"
/>
<path stroke="#536c77" vector-effect="non-scaling-stroke" d="
  M 426.93 284.56
  Q 426.97 284.57 427.02 284.58"
/>
<path stroke="#91a18a" vector-effect="non-scaling-stroke" d="
  M 458.88 285.23
  Q 456.63 291.18 449.86 295.11
  Q 438.66 301.63 427.12 308.32"
/>
<path stroke="#e5b249" vector-effect="non-scaling-stroke" d="
  M 427.12 308.32
  Q 426.73 300.99 426.98 294.00
  Q 427.01 293.12 426.54 292.68"
/>
<path stroke="#717052" vector-effect="non-scaling-stroke" d="
  M 426.54 292.68
  Q 426.84 292.53 427.04 292.32"
/>
<path stroke="#384f56" vector-effect="non-scaling-stroke" d="
  M 426.95 316.63
  L 426.93 308.86
  Q 426.93 308.72 426.79 308.67
  Q 426.68 308.63 426.53 308.67"
/>
<path stroke="#ab914e" vector-effect="non-scaling-stroke" d="
  M 426.53 308.67
  Q 426.95 308.50 427.12 308.32"
/>
<path stroke="#82888f" vector-effect="non-scaling-stroke" d="
  M 376.25 346.13
  L 373.30 347.87"
/>
<path stroke="#384f56" vector-effect="non-scaling-stroke" d="
  M 361.14 354.88
  L 360.97 346.81"
/>
<path stroke="#717052" vector-effect="non-scaling-stroke" d="
  M 360.97 346.81
  Q 361.36 346.24 361.14 346.66"
/>
<path stroke="#8c6016" vector-effect="non-scaling-stroke" d="
  M 426.54 292.68
  L 361.01 330.78"
/>
<path stroke="#384f56" vector-effect="non-scaling-stroke" d="
  M 361.01 330.78
  L 360.97 323.50"
/>
<path stroke="#455d66" vector-effect="non-scaling-stroke" d="
  M 360.97 323.50
  L 361.22 322.48"
/>
<path stroke="#957438" vector-effect="non-scaling-stroke" d="
  M 191.37 420.83
  Q 198.51 421.50 205.02 419.86
  Q 209.53 418.74 217.27 414.27
  Q 244.66 398.48 272.03 382.45"
/>
<path stroke="#957e50" vector-effect="non-scaling-stroke" d="
  M 191.17 420.77
  Q 191.35 420.72 191.37 420.83"
/>
<path stroke="#ffc054" vector-effect="non-scaling-stroke" d="
  M 191.37 420.83
  L 191.28 436.75"
/>
<path stroke="#9e875b" vector-effect="non-scaling-stroke" d="
  M 191.28 436.75
  Q 183.64 436.30 177.66 432.85
  Q 116.81 397.73 55.96 362.59
  Q 51.81 360.19 49.79 354.90"
/>
<path stroke="#91a18a" vector-effect="non-scaling-stroke" d="
  M 360.97 346.81
  L 304.86 379.49"
/>
<path stroke="#7a7a5d" vector-effect="non-scaling-stroke" d="
  M 304.86 379.49
  Q 304.08 380.13 303.26 380.23"
/>
<path stroke="#e5bc61" vector-effect="non-scaling-stroke" d="
  M 303.26 380.23
  Q 288.34 381.40 273.99 382.26
  Q 273.68 382.28 273.16 381.83"
/>
<path stroke="#8c6016" vector-effect="non-scaling-stroke" d="
  M 426.53 308.67
  L 361.14 346.66"
/>
<path stroke="#e5b249" vector-effect="non-scaling-stroke" d="
  M 361.14 346.66
  L 360.96 330.83"
/>
<path stroke="#ab914e" vector-effect="non-scaling-stroke" d="
  M 360.96 330.83
  Q 360.98 330.80 361.01 330.78"
/>
<path stroke="#537b89" stroke-opacity="0.753" vector-effect="non-scaling-stroke" d="
  M 360.89 356.45
  L 359.97 356.10
  Q 359.49 355.92 359.06 356.17
  L 345.22 364.23"
/>
<path stroke="#a1b9c7" vector-effect="non-scaling-stroke" d="
  M 345.22 364.23
  Q 343.66 364.80 342.16 366.05"
/>
<path stroke="#537b89" stroke-opacity="0.753" vector-effect="non-scaling-stroke" d="
  M 342.16 366.05
  L 325.22 376.17"
/>
<path stroke="#415961" vector-effect="non-scaling-stroke" d="
  M 322.49 377.04
  L 304.86 379.49"
/>
<path stroke="#9da5af" vector-effect="non-scaling-stroke" d="
  M 451.17 362.71
  L 452.72 365.05"
/>
<path stroke="#8b929a" vector-effect="non-scaling-stroke" d="
  M 317.44 380.39
  L 314.34 381.97"
/>
<path stroke="#957438" vector-effect="non-scaling-stroke" d="
  M 191.45 436.77
  Q 198.65 437.53 205.28 435.78
  Q 209.64 434.63 217.64 430.01
  Q 260.26 405.42 303.26 380.23"
/>
<path stroke="#9e7d43" vector-effect="non-scaling-stroke" d="
  M 191.28 436.75
  Q 191.36 436.76 191.45 436.77"
/>
<path stroke="#343b3f" vector-effect="non-scaling-stroke" d="
  M 191.45 436.77
  L 191.46 444.78"
/>
<path stroke="#f5aab0" vector-effect="non-scaling-stroke" d="
  M 432.46 414.68
  L 429.78 416.57"
/>
<path stroke="#b6c7d4" stroke-opacity="0.753" vector-effect="non-scaling-stroke" d="
  M 350.03 370.70
  L 342.16 366.05"
/>
<path stroke="#b6c7d4" stroke-opacity="0.753" vector-effect="non-scaling-stroke" d="
  M 354.18 369.48
  L 345.22 364.23"
/>
<path stroke="#afc7d7" vector-effect="non-scaling-stroke" d="
  M 347.13 426.34
  Q 345.00 426.24 343.20 425.45"
/>
<path stroke="#caf1ff" vector-effect="non-scaling-stroke" d="
  M 336.01 254.48
  Q 340.00 254.76 344.02 251.53
  Q 345.98 249.95 346.00 248.25
  Q 346.25 224.86 345.76 157.25
  Q 345.75 156.26 344.50 155.58"
/>
<path stroke="#a2bdf7" vector-effect="non-scaling-stroke" d="
  M 344.50 155.58
  L 336.20 150.91
  Q 335.70 150.64 335.18 150.85
  C 332.09 152.14 327.11 154.33 327.12 157.82
  Q 327.23 202.78 327.32 248.55
  A 0.94 0.93 -74.7 0 0 327.77 249.35
  L 336.01 254.48"
/>
<path stroke="#6daef7" vector-effect="non-scaling-stroke" d="
  M 344.50 155.58
  L 337.52 159.70
  A 3.16 3.15 -15.5 0 0 335.98 162.41
  L 336.01 254.48"
/>
<path stroke="#caf1ff" vector-effect="non-scaling-stroke" d="
  M 249.94 304.49
  Q 250.26 304.67 250.99 304.73
  Q 251.55 304.77 252.09 304.49
  C 255.20 302.85 259.12 301.12 260.12 297.65
  Q 263.24 286.76 266.34 275.91
  A 1.45 1.43 -7.2 0 1 267.00 275.07
  L 301.84 254.90"
/>
<path stroke="#a2bdf7" vector-effect="non-scaling-stroke" d="
  M 301.84 254.90
  L 304.45 260.84
  A 3.33 3.33 0.0 0 0 305.89 262.43
  L 312.93 266.43"
/>
<path stroke="#caf1ff" vector-effect="non-scaling-stroke" d="
  M 312.93 266.43
  Q 313.86 268.36 316.50 267.31
  Q 318.31 266.59 322.28 263.80
  Q 324.74 262.07 323.56 259.50
  Q 309.58 228.89 291.28 189.13
  Q 290.99 188.50 290.54 188.10
  Q 289.92 187.56 289.47 187.35"
/>
<path stroke="#a2bdf7" vector-effect="non-scaling-stroke" d="
  M 289.47 187.35
  L 281.01 182.46
  Q 280.56 182.20 280.11 182.45
  C 276.80 184.19 274.32 185.25 273.37 188.46
  Q 257.68 241.11 241.00 297.38
  A 2.20 2.19 23.4 0 0 242.01 299.91
  L 249.94 304.49"
/>
<path stroke="#6daef7" vector-effect="non-scaling-stroke" d="
  M 289.47 187.35
  Q 284.52 189.12 282.08 193.26
  Q 281.82 193.69 281.88 194.18
  Q 281.95 194.73 281.79 195.26
  Q 266.15 247.41 250.65 299.60
  Q 250.63 299.67 250.13 300.85
  Q 249.55 302.20 249.94 304.49"
/>
<path stroke="#6daef7" vector-effect="non-scaling-stroke" d="
  M 312.93 266.43
  L 307.18 252.63
  A 0.63 0.63 0.0 0 0 306.29 252.33
  L 301.84 254.90"
/>
<path stroke="#88abf2" vector-effect="non-scaling-stroke" d="
  M 335.7512 157.3511
  A 2.94 0.12 29.8 0 0 333.2596 155.7859
  A 2.94 0.12 29.8 0 0 330.6488 154.4289
  A 2.94 0.12 29.8 0 0 333.1404 155.9941
  A 2.94 0.12 29.8 0 0 335.7512 157.3511"
/>
<path stroke="#88abf2" vector-effect="non-scaling-stroke" d="
  M 328.96 158.84
  L 328.83 159.07
  Q 328.78 159.16 328.88 159.22
  Q 331.77 160.90 334.53 162.46
  Q 334.62 162.51 334.67 162.42
  L 334.67 162.41
  Q 334.74 162.29 334.62 162.24
  Q 331.56 160.77 329.03 158.83
  Q 328.99 158.80 328.96 158.84"
/>
<path stroke="#88abf2" vector-effect="non-scaling-stroke" d="
  M 279.50 192.12
  Q 278.48 191.63 277.50 190.97
  Q 277.37 190.88 277.22 190.84
  Q 276.59 190.67 277.14 191.01
  Q 278.47 191.84 279.88 192.50
  Q 280.80 192.93 280.14 192.30
  Q 279.87 192.05 279.50 192.12"
/>
<path stroke="#88abf2" vector-effect="non-scaling-stroke" d="
  M 242.33 297.38
  L 242.14 297.71
  A 0.14 0.14 0.0 0 0 242.19 297.90
  L 248.26 301.45
  A 0.65 0.27 30.3 0 0 248.96 301.54
  L 249.02 301.44
  A 0.65 0.27 30.3 0 0 248.59 300.88
  L 242.52 297.33
  A 0.14 0.14 0.0 0 0 242.33 297.38"
/>
<path stroke="#caf1ff" vector-effect="non-scaling-stroke" d="
  M 284.47 215.71
  Q 284.30 215.66 284.07 215.75
  Q 283.85 215.83 283.79 216.05
  L 274.30 248.89
  Q 274.28 248.98 274.34 249.05
  Q 274.43 249.15 274.49 249.27"
/>
<path stroke="#6daef7" vector-effect="non-scaling-stroke" d="
  M 274.49 249.27
  L 270.85 260.77
  Q 270.51 261.84 271.48 261.28
  L 302.24 243.52
  A 0.83 0.82 -26.9 0 0 302.58 242.49
  L 287.12 206.94
  Q 286.58 205.70 286.27 207.02
  Q 285.52 210.24 284.50 213.55
  C 284.26 214.31 284.48 214.96 284.47 215.71"
/>
<path stroke="#a2bdf7" vector-effect="non-scaling-stroke" d="
  M 274.49 249.27
  L 293.69 238.13
  Q 294.13 237.88 293.93 237.42
  L 284.47 215.71"
/>
</g>
<path fill="#95e2fe" d="
  M 360.88 84.63
  Q 341.85 78.61 322.00 75.02
  Q 262.72 64.31 203.07 72.65
  L 203.06 71.14
  Q 203.06 70.62 203.57 70.55
  C 255.69 63.51 309.99 66.88 360.43 82.20
  Q 360.91 82.34 360.97 82.84
  Q 361.09 83.81 360.88 84.63
  Z"
/>
<path fill="#4b717f" fill-opacity="0.502" d="
  M 360.88 84.63
  L 360.60 107.58
  Q 345.76 98.96 332.35 91.24
  Q 326.69 87.98 320.49 88.03
  Q 310.40 88.10 299.74 94.37
  Q 294.18 97.04 287.65 102.83
  Q 278.82 97.46 269.66 92.36
  C 260.87 87.47 252.03 87.23 242.15 90.11
  Q 229.25 93.87 218.57 102.66
  Q 210.98 108.13 204.87 115.12
  Q 204.16 115.93 203.47 115.83
  L 203.07 72.65
  Q 262.72 64.31 322.00 75.02
  Q 341.85 78.61 360.88 84.63
  Z"
/>
<path fill="#cbdbf4" d="
  M 360.60 107.58
  L 372.80 115.08
  Q 360.67 112.07 349.25 117.35
  Q 345.50 119.08 343.31 120.22
  L 299.74 94.37
  Q 310.40 88.10 320.49 88.03
  Q 326.69 87.98 332.35 91.24
  Q 345.76 98.96 360.60 107.58
  Z"
/>
<path fill="#cbdbf4" d="
  M 287.65 102.83
  L 307.69 114.68
  A 0.35 0.27 85.7 0 1 307.79 114.79
  Q 308.01 115.16 307.56 115.38
  Q 299.43 112.80 291.25 114.86
  Q 290.78 114.98 290.30 114.81
  A 1.28 1.27 -51.1 0 0 289.23 114.93
  Q 287.65 115.93 285.85 115.84
  Q 285.39 115.82 285.04 116.13
  Q 284.50 116.62 283.78 116.74
  Q 283.00 116.87 282.28 117.15
  Q 271.04 121.47 261.61 129.01
  Q 261.35 127.93 260.89 127.66
  Q 245.16 118.35 229.47 108.97
  Q 229.36 108.91 229.19 108.95
  A 0.54 0.51 -34.3 0 1 228.82 108.89
  L 218.57 102.66
  Q 229.25 93.87 242.15 90.11
  C 252.03 87.23 260.87 87.47 269.66 92.36
  Q 278.82 97.46 287.65 102.83
  Z"
/>
<path fill="#dbe6fa" d="
  M 299.74 94.37
  L 343.31 120.22
  Q 336.27 124.93 330.79 129.37
  Q 329.69 130.26 328.71 131.42
  Q 327.80 132.50 326.87 133.44
  Q 326.36 133.95 326.09 133.29
  Q 320.72 120.17 307.56 115.38
  Q 308.01 115.16 307.79 114.79
  A 0.35 0.27 85.7 0 0 307.69 114.68
  L 287.65 102.83
  Q 294.18 97.04 299.74 94.37
  Z"
/>
<path fill="#95e2fe" d="
  M 118.38 97.01
  Q 90.90 109.17 69.14 129.14
  Q 56.18 141.03 47.66 155.66
  Q 29.07 187.58 41.54 222.87
  Q 41.71 223.34 42.41 223.45
  Q 41.89 223.82 42.60 225.45
  Q 52.02 247.04 69.24 262.53
  Q 70.66 263.16 71.34 264.65
  Q 87.98 279.42 107.66 289.58
  L 113.76 292.75
  Q 116.24 294.11 117.00 294.32
  Q 119.01 294.85 118.39 297.43
  L 113.00 294.89
  Q 112.98 295.35 112.23 294.87
  L 112.19 294.62
  Q 112.18 294.59 112.15 294.57
  L 105.19 291.02
  Q 85.04 280.38 68.25 265.71
  Q 67.84 265.35 66.95 265.44
  Q 67.11 264.28 65.62 263.24
  Q 60.16 257.83 57.56 254.94
  Q 47.36 243.55 40.58 229.36
  L 37.04 221.23
  L 33.26 204.93
  C 28.34 151.28 73.81 114.62 117.76 94.63
  Q 118.32 94.37 118.34 95.00
  L 118.38 97.01
  Z"
/>
<path fill="#4b717f" fill-opacity="0.502" d="
  M 118.38 97.01
  L 118.39 153.27
  A 1.54 1.54 0.0 0 1 117.49 154.67
  C 94.53 165.01 72.13 180.37 56.36 200.10
  Q 48.04 210.51 42.41 223.45
  Q 41.71 223.34 41.54 222.87
  Q 29.07 187.58 47.66 155.66
  Q 56.18 141.03 69.14 129.14
  Q 90.90 109.17 118.38 97.01
  Z"
/>
<path fill="#dbe6fa" d="
  M 218.57 102.66
  L 228.82 108.89
  A 0.54 0.51 -34.3 0 0 229.19 108.95
  Q 229.36 108.91 229.47 108.97
  Q 245.16 118.35 260.89 127.66
  Q 261.35 127.93 261.61 129.01
  Q 260.88 129.29 260.21 130.02
  Q 259.56 130.74 258.82 131.30
  Q 252.94 135.76 248.39 140.93
  Q 243.19 146.83 238.79 152.76
  Q 223.35 173.57 216.37 199.51
  Q 215.54 202.61 215.13 205.50
  Q 214.69 208.60 213.99 211.59
  Q 213.54 213.55 213.62 215.46
  C 213.77 218.76 213.15 221.70 213.42 225.09
  Q 213.94 231.69 214.67 236.13
  C 215.03 238.36 216.43 240.23 215.46 242.63
  Q 209.17 238.80 202.69 235.13
  Q 193.34 229.84 184.74 224.75
  Q 184.59 224.65 184.45 224.52
  Q 184.28 224.35 184.02 224.36
  Q 183.64 224.38 183.37 224.10
  Q 181.95 222.60 179.57 221.69
  A 5.55 5.50 74.8 0 1 178.10 220.84
  Q 176.15 219.25 172.71 217.76
  Q 170.45 211.18 169.85 205.87
  Q 168.47 193.71 171.20 180.53
  Q 178.63 144.58 202.88 117.13
  Q 203.48 116.45 203.47 115.83
  Q 204.16 115.93 204.87 115.12
  Q 210.98 108.13 218.57 102.66
  Z"
/>
<path fill="#95e2fe" d="
  M 478.88 206.32
  L 475.10 221.97
  L 471.35 230.44
  Q 464.91 243.49 455.99 253.90
  Q 443.23 268.63 426.98 279.47
  L 426.74 277.25
  Q 427.13 276.16 428.30 274.74
  Q 436.11 270.22 442.39 263.54
  Q 443.50 263.40 444.11 262.19
  L 453.97 251.59
  Q 464.75 238.76 469.99 224.68
  Q 476.18 208.49 475.69 194.74
  Q 474.95 174.00 463.67 155.07
  Q 450.64 133.20 427.69 117.30
  Q 426.62 116.87 426.88 113.72
  A 0.10 0.10 0.0 0 1 427.04 113.64
  Q 450.83 129.32 466.19 153.04
  Q 481.43 176.57 478.88 206.32
  Z"
/>
<path fill="#ebf2ff" d="
  M 372.80 115.08
  C 382.49 119.38 386.58 126.87 388.98 136.92
  A 1.15 1.14 -81.5 0 0 389.52 137.66
  Q 398.43 142.84 407.94 148.52
  Q 411.72 150.77 415.00 156.45
  C 420.26 165.55 420.69 177.73 418.98 188.30
  C 416.91 201.13 412.25 212.34 405.95 223.83
  L 401.32 231.02
  Q 401.07 231.71 400.56 232.15
  Q 397.19 236.80 393.03 241.50
  Q 383.71 252.02 371.54 259.04
  Q 315.81 291.14 260.15 323.23
  Q 248.66 323.70 236.45 322.54
  Q 301.42 284.83 365.63 247.89
  C 385.57 236.43 399.73 214.40 405.33 192.74
  C 408.03 182.31 410.85 154.88 392.03 157.06
  Q 385.26 157.85 378.40 158.91
  A 0.63 0.63 0.0 0 1 377.67 158.30
  Q 377.58 151.05 377.13 143.44
  C 376.49 132.77 371.49 123.51 358.61 127.12
  C 349.24 129.75 340.66 136.58 333.85 143.77
  C 330.13 147.68 326.39 151.43 322.68 155.46
  A 0.63 0.63 0.0 0 1 321.63 155.26
  Q 318.17 146.34 314.54 138.17
  C 303.84 114.04 274.56 132.82 262.50 144.45
  C 244.64 161.67 230.87 185.42 226.75 210.30
  C 225.22 219.53 224.95 229.78 227.94 238.25
  Q 230.20 244.65 232.99 251.78
  Q 233.26 252.46 232.55 252.63
  Q 227.45 253.84 222.66 254.87
  C 213.37 256.87 205.57 261.30 198.93 267.55
  Q 175.63 289.45 170.01 319.94
  C 168.60 327.59 168.50 339.94 174.16 346.26
  C 180.88 353.77 194.02 347.58 201.01 342.76
  Q 201.56 342.39 203.03 342.64
  L 203.23 356.11
  L 202.53 356.41
  Q 194.14 361.30 185.51 362.22
  Q 174.68 363.36 165.34 356.24
  Q 165.72 356.40 165.89 356.34
  Q 166.23 356.21 165.99 355.94
  Q 159.41 348.70 157.73 338.85
  Q 157.71 338.73 157.59 338.71
  Q 157.53 338.70 157.51 338.75
  Q 157.33 339.06 157.40 338.71
  Q 157.66 337.52 157.36 336.38
  Q 156.84 334.40 156.72 332.31
  L 156.73 324.79
  L 157.64 316.15
  Q 157.64 316.12 157.63 316.15
  Q 157.46 316.60 157.69 316.82
  Q 158.00 317.12 158.06 316.70
  Q 159.39 307.84 162.71 299.87
  Q 162.75 299.78 162.74 299.68
  Q 162.72 299.55 162.69 299.42
  Q 162.65 299.27 162.75 299.16
  Q 163.65 298.19 163.94 295.88
  Q 163.97 296.02 164.00 296.15
  Q 164.04 296.29 164.09 296.16
  Q 170.95 280.88 180.52 269.21
  Q 187.37 260.87 195.92 254.20
  Q 204.80 247.27 216.38 243.57
  A 0.42 0.42 0.0 0 0 216.57 242.90
  Q 216.15 242.41 215.46 242.63
  C 216.43 240.23 215.03 238.36 214.67 236.13
  Q 213.94 231.69 213.42 225.09
  C 213.15 221.70 213.77 218.76 213.62 215.46
  Q 213.54 213.55 213.99 211.59
  Q 214.69 208.60 215.13 205.50
  Q 215.54 202.61 216.37 199.51
  Q 223.35 173.57 238.79 152.76
  Q 243.19 146.83 248.39 140.93
  Q 252.94 135.76 258.82 131.30
  Q 259.56 130.74 260.21 130.02
  Q 260.88 129.29 261.61 129.01
  Q 271.04 121.47 282.28 117.15
  Q 283.00 116.87 283.78 116.74
  Q 284.50 116.62 285.04 116.13
  Q 285.39 115.82 285.85 115.84
  Q 287.65 115.93 289.23 114.93
  A 1.28 1.27 -51.1 0 1 290.30 114.81
  Q 290.78 114.98 291.25 114.86
  Q 299.43 112.80 307.56 115.38
  Q 320.72 120.17 326.09 133.29
  Q 326.36 133.95 326.87 133.44
  Q 327.80 132.50 328.71 131.42
  Q 329.69 130.26 330.79 129.37
  Q 336.27 124.93 343.31 120.22
  Q 345.50 119.08 349.25 117.35
  Q 360.67 112.07 372.80 115.08
  Z"
/>
<path fill="#4b717f" fill-opacity="0.502" d="
  M 427.69 117.30
  Q 450.64 133.20 463.67 155.07
  Q 474.95 174.00 475.69 194.74
  Q 476.18 208.49 469.99 224.68
  Q 462.92 210.40 456.39 202.10
  Q 443.86 186.17 427.48 174.58
  A 1.44 1.44 0.0 0 1 426.88 173.41
  Q 426.92 146.38 426.80 119.25
  Q 426.79 117.95 427.69 117.30
  Z"
/>
<path fill="#ffffff" d="
  M 236.45 322.54
  Q 220.75 322.11 203.76 319.64
  Q 203.25 319.57 203.14 320.07
  Q 202.93 321.02 203.15 322.10
  L 203.03 342.64
  Q 201.56 342.39 201.01 342.76
  C 194.02 347.58 180.88 353.77 174.16 346.26
  C 168.50 339.94 168.60 327.59 170.01 319.94
  Q 175.63 289.45 198.93 267.55
  C 205.57 261.30 213.37 256.87 222.66 254.87
  Q 227.45 253.84 232.55 252.63
  Q 233.26 252.46 232.99 251.78
  Q 230.20 244.65 227.94 238.25
  C 224.95 229.78 225.22 219.53 226.75 210.30
  C 230.87 185.42 244.64 161.67 262.50 144.45
  C 274.56 132.82 303.84 114.04 314.54 138.17
  Q 318.17 146.34 321.63 155.26
  A 0.63 0.63 0.0 0 0 322.68 155.46
  C 326.39 151.43 330.13 147.68 333.85 143.77
  C 340.66 136.58 349.24 129.75 358.61 127.12
  C 371.49 123.51 376.49 132.77 377.13 143.44
  Q 377.58 151.05 377.67 158.30
  A 0.63 0.63 0.0 0 0 378.40 158.91
  Q 385.26 157.85 392.03 157.06
  C 410.85 154.88 408.03 182.31 405.33 192.74
  C 399.73 214.40 385.57 236.43 365.63 247.89
  Q 301.42 284.83 236.45 322.54
  Z
  M 336.01 254.48
  Q 340.00 254.76 344.02 251.53
  Q 345.98 249.95 346.00 248.25
  Q 346.25 224.86 345.76 157.25
  Q 345.75 156.26 344.50 155.58
  L 336.20 150.91
  Q 335.70 150.64 335.18 150.85
  C 332.09 152.14 327.11 154.33 327.12 157.82
  Q 327.23 202.78 327.32 248.55
  A 0.94 0.93 -74.7 0 0 327.77 249.35
  L 336.01 254.48
  Z
  M 249.94 304.49
  Q 250.26 304.67 250.99 304.73
  Q 251.55 304.77 252.09 304.49
  C 255.20 302.85 259.12 301.12 260.12 297.65
  Q 263.24 286.76 266.34 275.91
  A 1.45 1.43 -7.2 0 1 267.00 275.07
  L 301.84 254.90
  L 304.45 260.84
  A 3.33 3.33 0.0 0 0 305.89 262.43
  L 312.93 266.43
  Q 313.86 268.36 316.50 267.31
  Q 318.31 266.59 322.28 263.80
  Q 324.74 262.07 323.56 259.50
  Q 309.58 228.89 291.28 189.13
  Q 290.99 188.50 290.54 188.10
  Q 289.92 187.56 289.47 187.35
  L 281.01 182.46
  Q 280.56 182.20 280.11 182.45
  C 276.80 184.19 274.32 185.25 273.37 188.46
  Q 257.68 241.11 241.00 297.38
  A 2.20 2.19 23.4 0 0 242.01 299.91
  L 249.94 304.49
  Z"
/>
<path fill="#457aef" d="
  M 344.50 155.58
  L 337.52 159.70
  A 3.16 3.15 -15.5 0 0 335.98 162.41
  L 336.01 254.48
  L 327.77 249.35
  A 0.94 0.93 -74.7 0 1 327.32 248.55
  Q 327.23 202.78 327.12 157.82
  C 327.11 154.33 332.09 152.14 335.18 150.85
  Q 335.70 150.64 336.20 150.91
  L 344.50 155.58
  Z
  M 335.7512 157.3511
  A 2.94 0.12 29.8 0 0 333.2596 155.7859
  A 2.94 0.12 29.8 0 0 330.6488 154.4289
  A 2.94 0.12 29.8 0 0 333.1404 155.9941
  A 2.94 0.12 29.8 0 0 335.7512 157.3511
  Z
  M 328.96 158.84
  L 328.83 159.07
  Q 328.78 159.16 328.88 159.22
  Q 331.77 160.90 334.53 162.46
  Q 334.62 162.51 334.67 162.42
  L 334.67 162.41
  Q 334.74 162.29 334.62 162.24
  Q 331.56 160.77 329.03 158.83
  Q 328.99 158.80 328.96 158.84
  Z"
/>
<ellipse fill="#cbdbf4" cx="0.00" cy="0.00" transform="translate(333.20,155.89) rotate(29.8)" rx="2.94" ry="0.12"/>
<path fill="#95e2fe" d="
  M 344.50 155.58
  Q 345.75 156.26 345.76 157.25
  Q 346.25 224.86 346.00 248.25
  Q 345.98 249.95 344.02 251.53
  Q 340.00 254.76 336.01 254.48
  L 335.98 162.41
  A 3.16 3.15 -15.5 0 1 337.52 159.70
  L 344.50 155.58
  Z"
/>
<path fill="#cbdbf4" d="
  M 329.03 158.83
  Q 331.56 160.77 334.62 162.24
  Q 334.74 162.29 334.67 162.41
  L 334.67 162.42
  Q 334.62 162.51 334.53 162.46
  Q 331.77 160.90 328.88 159.22
  Q 328.78 159.16 328.83 159.07
  L 328.96 158.84
  Q 328.99 158.80 329.03 158.83
  Z"
/>
<path fill="#457aef" d="
  M 289.47 187.35
  Q 284.52 189.12 282.08 193.26
  Q 281.82 193.69 281.88 194.18
  Q 281.95 194.73 281.79 195.26
  Q 266.15 247.41 250.65 299.60
  Q 250.63 299.67 250.13 300.85
  Q 249.55 302.20 249.94 304.49
  L 242.01 299.91
  A 2.20 2.19 23.4 0 1 241.00 297.38
  Q 257.68 241.11 273.37 188.46
  C 274.32 185.25 276.80 184.19 280.11 182.45
  Q 280.56 182.20 281.01 182.46
  L 289.47 187.35
  Z
  M 279.50 192.12
  Q 278.48 191.63 277.50 190.97
  Q 277.37 190.88 277.22 190.84
  Q 276.59 190.67 277.14 191.01
  Q 278.47 191.84 279.88 192.50
  Q 280.80 192.93 280.14 192.30
  Q 279.87 192.05 279.50 192.12
  Z
  M 242.33 297.38
  L 242.14 297.71
  A 0.14 0.14 0.0 0 0 242.19 297.90
  L 248.26 301.45
  A 0.65 0.27 30.3 0 0 248.96 301.54
  L 249.02 301.44
  A 0.65 0.27 30.3 0 0 248.59 300.88
  L 242.52 297.33
  A 0.14 0.14 0.0 0 0 242.33 297.38
  Z"
/>
<path fill="#4f575f" d="
  M 162.00 192.74
  L 158.01 192.00
  C 153.68 190.28 154.29 186.52 158.31 185.37
  Q 163.64 183.86 167.38 186.60
  A 2.56 2.55 -53.9 0 1 167.93 190.15
  C 166.45 192.19 164.21 192.18 162.00 192.74
  Z"
/>
<path fill="#95e2fe" d="
  M 289.47 187.35
  Q 289.92 187.56 290.54 188.10
  Q 290.99 188.50 291.28 189.13
  Q 309.58 228.89 323.56 259.50
  Q 324.74 262.07 322.28 263.80
  Q 318.31 266.59 316.50 267.31
  Q 313.86 268.36 312.93 266.43
  L 307.18 252.63
  A 0.63 0.63 0.0 0 0 306.29 252.33
  L 301.84 254.90
  L 267.00 275.07
  A 1.45 1.43 -7.2 0 0 266.34 275.91
  Q 263.24 286.76 260.12 297.65
  C 259.12 301.12 255.20 302.85 252.09 304.49
  Q 251.55 304.77 250.99 304.73
  Q 250.26 304.67 249.94 304.49
  Q 249.55 302.20 250.13 300.85
  Q 250.63 299.67 250.65 299.60
  Q 266.15 247.41 281.79 195.26
  Q 281.95 194.73 281.88 194.18
  Q 281.82 193.69 282.08 193.26
  Q 284.52 189.12 289.47 187.35
  Z
  M 284.47 215.71
  Q 284.30 215.66 284.07 215.75
  Q 283.85 215.83 283.79 216.05
  L 274.30 248.89
  Q 274.28 248.98 274.34 249.05
  Q 274.43 249.15 274.49 249.27
  L 270.85 260.77
  Q 270.51 261.84 271.48 261.28
  L 302.24 243.52
  A 0.83 0.82 -26.9 0 0 302.58 242.49
  L 287.12 206.94
  Q 286.58 205.70 286.27 207.02
  Q 285.52 210.24 284.50 213.55
  C 284.26 214.31 284.48 214.96 284.47 215.71
  Z"
/>
<path fill="#cbdbf4" d="
  M 279.50 192.12
  Q 279.87 192.05 280.14 192.30
  Q 280.80 192.93 279.88 192.50
  Q 278.47 191.84 277.14 191.01
  Q 276.59 190.67 277.22 190.84
  Q 277.37 190.88 277.50 190.97
  Q 278.48 191.63 279.50 192.12
  Z"
/>
<path fill="#ebf2ff" d="
  M 158.01 192.00
  L 162.00 192.74
  L 149.56 214.53
  A 0.55 0.55 0.0 0 0 149.77 215.28
  L 161.32 221.97
  L 158.20 223.23
  Q 158.10 223.29 157.99 223.36
  Q 157.97 223.36 157.96 223.36
  Q 151.59 219.70 145.23 216.02
  A 0.82 0.82 0.0 0 1 144.93 214.90
  L 158.01 192.00
  Z"
/>
<path fill="#ff6161" d="
  M 78.72 210.31
  L 75.73 211.93
  Q 71.65 212.54 68.25 211.09
  C 65.05 209.74 65.38 206.30 68.45 205.19
  Q 73.75 203.27 77.79 205.67
  Q 80.44 207.24 78.72 210.31
  Z"
/>
<path fill="#4b717f" fill-opacity="0.502" d="
  M 33.26 204.93
  L 37.04 221.23
  Q 36.65 223.31 36.66 225.38
  Q 36.69 235.19 36.56 244.98
  Q 36.56 245.19 36.77 245.20
  L 36.77 245.20
  Q 36.98 245.21 37.00 245.00
  Q 37.51 236.89 40.58 229.36
  Q 47.36 243.55 57.56 254.94
  Q 60.16 257.83 65.62 263.24
  L 62.00 263.86
  Q 61.50 263.95 61.10 263.63
  Q 56.39 259.82 50.27 262.39
  C 47.62 263.50 47.40 266.73 50.09 267.96
  Q 55.84 270.57 60.44 267.39
  C 62.35 266.06 64.68 265.90 66.95 265.44
  Q 67.84 265.35 68.25 265.71
  Q 85.04 280.38 105.19 291.02
  L 61.45 316.44
  Q 61.43 316.44 61.41 316.44
  C 46.16 301.27 34.95 281.13 33.07 259.81
  Q 32.73 256.00 32.70 240.70
  Q 32.66 222.82 33.26 204.93
  Z"
/>
<path fill="#457aef" d="
  M 274.49 249.27
  L 293.69 238.13
  Q 294.13 237.88 293.93 237.42
  L 284.47 215.71
  C 284.48 214.96 284.26 214.31 284.50 213.55
  Q 285.52 210.24 286.27 207.02
  Q 286.58 205.70 287.12 206.94
  L 302.58 242.49
  A 0.83 0.82 -26.9 0 1 302.24 243.52
  L 271.48 261.28
  Q 270.51 261.84 270.85 260.77
  L 274.49 249.27
  Z"
/>
<path fill="#4b717f" fill-opacity="0.502" d="
  M 478.88 206.32
  Q 479.65 240.40 478.99 257.50
  C 477.72 290.59 453.56 318.84 427.31 336.59
  Q 426.93 336.85 426.93 336.38
  L 427.01 316.63
  Q 426.98 316.63 426.95 316.63
  Q 438.50 309.98 449.94 303.53
  Q 454.73 300.83 456.78 297.75
  Q 458.72 294.83 458.76 293.00
  Q 458.86 289.09 458.88 285.23
  L 458.82 269.73
  L 458.62 262.71
  Q 459.08 257.46 455.99 253.90
  Q 464.91 243.49 471.35 230.44
  Q 474.49 238.55 474.80 247.23
  Q 474.81 247.47 475.05 247.47
  L 475.06 247.47
  Q 475.30 247.46 475.30 247.22
  Q 475.41 234.60 475.10 221.97
  L 478.88 206.32
  Z"
/>
<path fill="#ebf2ff" d="
  M 78.72 210.31
  L 136.37 243.58
  Q 135.07 245.27 133.98 245.57
  L 75.73 211.93
  L 78.72 210.31
  Z"
/>
<path fill="#ffffff" d="
  M 284.47 215.71
  L 293.93 237.42
  Q 294.13 237.88 293.69 238.13
  L 274.49 249.27
  Q 274.43 249.15 274.34 249.05
  Q 274.28 248.98 274.30 248.89
  L 283.79 216.05
  Q 283.85 215.83 284.07 215.75
  Q 284.30 215.66 284.47 215.71
  Z"
/>
<path fill="#cbdbf4" d="
  M 172.71 217.76
  Q 176.15 219.25 178.10 220.84
  A 5.55 5.50 74.8 0 0 179.57 221.69
  Q 181.95 222.60 183.37 224.10
  Q 183.64 224.38 184.02 224.36
  Q 184.28 224.35 184.45 224.52
  Q 184.59 224.65 184.74 224.75
  Q 193.34 229.84 202.69 235.13
  Q 209.17 238.80 215.46 242.63
  Q 216.15 242.41 216.57 242.90
  A 0.42 0.42 0.0 0 1 216.38 243.57
  Q 204.80 247.27 195.92 254.20
  Q 187.37 260.87 180.52 269.21
  Q 170.95 280.88 164.09 296.16
  Q 164.04 296.29 164.00 296.15
  Q 163.97 296.02 163.94 295.88
  L 149.89 287.32
  Q 149.74 287.23 149.56 287.23
  Q 149.41 287.24 149.28 287.15
  Q 144.74 284.34 139.67 281.49
  Q 139.19 281.22 138.91 280.74
  C 138.58 280.20 137.54 280.14 136.90 279.81
  Q 134.66 278.63 132.82 277.27
  Q 132.37 276.93 131.82 276.79
  Q 131.14 276.62 130.89 275.98
  Q 130.82 275.81 130.69 275.69
  Q 130.51 275.53 130.32 275.65
  Q 130.03 275.83 129.75 275.66
  L 120.45 270.08
  Q 120.18 269.60 119.53 269.34
  Q 120.56 269.05 121.71 267.20
  Q 126.78 256.44 134.31 246.25
  Q 134.57 245.90 133.98 245.57
  Q 135.07 245.27 136.37 243.58
  Q 145.51 232.06 158.12 223.95
  Q 158.36 223.80 158.26 223.54
  Q 158.21 223.38 158.20 223.23
  L 161.32 221.97
  L 172.71 217.76
  Z"
/>
<path fill="#70a9be" fill-opacity="0.753" d="
  M 37.04 221.23
  L 40.58 229.36
  Q 37.51 236.89 37.00 245.00
  Q 36.98 245.21 36.77 245.20
  L 36.77 245.20
  Q 36.56 245.19 36.56 244.98
  Q 36.69 235.19 36.66 225.38
  Q 36.65 223.31 37.04 221.23
  Z"
/>
<path fill="#70a9be" fill-opacity="0.753" d="
  M 475.10 221.97
  Q 475.41 234.60 475.30 247.22
  Q 475.30 247.46 475.06 247.47
  L 475.05 247.47
  Q 474.81 247.47 474.80 247.23
  Q 474.49 238.55 471.35 230.44
  L 475.10 221.97
  Z"
/>
<path fill="#4f575f" d="
  M 405.95 223.83
  L 453.97 251.59
  L 444.11 262.19
  Q 443.64 255.51 437.06 251.67
  Q 419.32 241.30 401.32 231.02
  L 405.95 223.83
  Z"
/>
<path fill="#ffca6c" d="
  M 401.32 231.02
  Q 419.32 241.30 437.06 251.67
  Q 443.64 255.51 444.11 262.19
  Q 443.50 263.40 442.39 263.54
  Q 443.22 257.02 437.58 253.63
  Q 429.75 248.91 400.56 232.15
  Q 401.07 231.71 401.32 231.02
  Z"
/>
<path fill="#4f575f" d="
  M 400.56 232.15
  Q 429.75 248.91 437.58 253.63
  Q 443.22 257.02 442.39 263.54
  Q 436.11 270.22 428.30 274.74
  L 361.03 313.72
  L 360.76 310.62
  Q 361.22 309.71 360.94 308.73
  Q 360.79 308.24 360.29 308.39
  Q 311.32 323.02 260.15 323.23
  Q 315.81 291.14 371.54 259.04
  Q 383.71 252.02 393.03 241.50
  Q 397.19 236.80 400.56 232.15
  Z"
/>
<path fill="#457aef" d="
  M 312.93 266.43
  L 305.89 262.43
  A 3.33 3.33 0.0 0 1 304.45 260.84
  L 301.84 254.90
  L 306.29 252.33
  A 0.63 0.63 0.0 0 1 307.18 252.63
  L 312.93 266.43
  Z"
/>
<path fill="#729cae" d="
  M 455.99 253.90
  Q 459.08 257.46 458.62 262.71
  Q 455.63 267.95 451.51 270.31
  Q 439.26 277.31 427.02 284.58
  L 426.98 279.47
  Q 443.23 268.63 455.99 253.90
  Z"
/>
<path fill="#ebf2ff" d="
  M 121.71 267.20
  Q 120.56 269.05 119.53 269.34
  L 101.69 259.12
  Q 101.26 258.88 100.77 258.97
  L 71.34 264.65
  Q 70.66 263.16 69.24 262.53
  L 101.15 256.31
  A 3.47 3.45 54.5 0 1 103.56 256.72
  L 121.71 267.20
  Z"
/>
<path fill="#cbdbf4" d="
  M 65.62 263.24
  Q 67.11 264.28 66.95 265.44
  C 64.68 265.90 62.35 266.06 60.44 267.39
  Q 55.84 270.57 50.09 267.96
  C 47.40 266.73 47.62 263.50 50.27 262.39
  Q 56.39 259.82 61.10 263.63
  Q 61.50 263.95 62.00 263.86
  L 65.62 263.24
  Z"
/>
<path fill="#57808e" d="
  M 458.62 262.71
  L 458.82 269.73
  Q 456.46 275.12 452.35 277.61
  Q 443.75 282.84 427.04 292.32
  L 426.93 284.56
  Q 426.97 284.57 427.02 284.58
  Q 439.26 277.31 451.51 270.31
  Q 455.63 267.95 458.62 262.71
  Z"
/>
<path fill="#dbe6fa" d="
  M 163.94 295.88
  Q 163.65 298.19 162.75 299.16
  Q 162.65 299.27 162.69 299.42
  Q 162.72 299.55 162.74 299.68
  Q 162.75 299.78 162.71 299.87
  Q 159.39 307.84 158.06 316.70
  Q 158.00 317.12 157.69 316.82
  Q 157.46 316.60 157.63 316.15
  Q 157.64 316.12 157.64 316.15
  L 156.73 324.79
  Q 155.91 328.65 156.72 332.31
  Q 156.84 334.40 157.36 336.38
  Q 157.66 337.52 157.40 338.71
  Q 157.33 339.06 157.51 338.75
  Q 157.53 338.70 157.59 338.71
  Q 157.71 338.73 157.73 338.85
  Q 159.41 348.70 165.99 355.94
  Q 166.23 356.21 165.89 356.34
  Q 165.72 356.40 165.34 356.24
  Q 136.15 339.36 125.58 332.91
  Q 121.73 330.56 118.59 325.71
  Q 117.80 324.08 118.27 324.74
  L 118.39 297.43
  Q 119.01 294.85 117.00 294.32
  Q 116.24 294.11 113.76 292.75
  L 115.34 285.09
  L 120.45 270.08
  L 129.75 275.66
  Q 130.03 275.83 130.32 275.65
  Q 130.51 275.53 130.69 275.69
  Q 130.82 275.81 130.89 275.98
  Q 131.14 276.62 131.82 276.79
  Q 132.37 276.93 132.82 277.27
  Q 134.66 278.63 136.90 279.81
  C 137.54 280.14 138.58 280.20 138.91 280.74
  Q 139.19 281.22 139.67 281.49
  Q 144.74 284.34 149.28 287.15
  Q 149.41 287.24 149.56 287.23
  Q 149.74 287.23 149.89 287.32
  L 163.94 295.88
  Z"
/>
<path fill="#cac285" d="
  M 458.82 269.73
  L 458.88 285.23
  Q 456.63 291.18 449.86 295.11
  Q 438.66 301.63 427.12 308.32
  Q 426.73 300.99 426.98 294.00
  Q 427.01 293.12 426.54 292.68
  Q 426.84 292.53 427.04 292.32
  Q 443.75 282.84 452.35 277.61
  Q 456.46 275.12 458.82 269.73
  Z"
/>
<path fill="#ffca6c" d="
  M 428.30 274.74
  Q 427.13 276.16 426.74 277.25
  L 361.11 315.29
  L 360.74 313.91
  Q 360.82 313.78 361.03 313.72
  L 428.30 274.74
  Z"
/>
<path fill="#4f575f" d="
  M 426.74 277.25
  L 426.98 279.47
  L 427.02 284.58
  Q 426.97 284.57 426.93 284.56
  L 361.22 322.48
  Q 360.79 319.05 361.00 317.25
  Q 361.13 316.12 360.22 315.75
  Q 360.52 315.93 361.11 315.29
  L 426.74 277.25
  Z"
/>
<path fill="#181e1e" d="
  M 426.93 284.56
  L 427.04 292.32
  Q 426.84 292.53 426.54 292.68
  L 361.01 330.78
  L 360.97 323.50
  L 361.22 322.48
  L 426.93 284.56
  Z"
/>
<path fill="#4f575f" d="
  M 115.34 285.09
  L 113.76 292.75
  L 107.66 289.58
  L 115.34 285.09
  Z"
/>
<path fill="#57808e" d="
  M 458.88 285.23
  Q 458.86 289.09 458.76 293.00
  Q 458.72 294.83 456.78 297.75
  Q 454.73 300.83 449.94 303.53
  Q 438.50 309.98 426.95 316.63
  L 426.93 308.86
  Q 426.93 308.72 426.79 308.67
  Q 426.68 308.63 426.53 308.67
  Q 426.95 308.50 427.12 308.32
  Q 438.66 301.63 449.86 295.11
  Q 456.63 291.18 458.88 285.23
  Z"
/>
<path fill="#729cae" d="
  M 105.19 291.02
  L 112.15 294.57
  Q 112.18 294.59 112.19 294.62
  L 112.23 294.87
  Q 93.82 305.49 75.42 316.17
  Q 70.96 318.76 69.01 323.05
  Q 68.73 323.14 68.50 323.13
  Q 68.29 323.12 68.06 322.92
  Q 64.40 319.83 61.45 316.44
  L 105.19 291.02
  Z"
/>
<path fill="#ffa20d" d="
  M 426.54 292.68
  Q 427.01 293.12 426.98 294.00
  Q 426.73 300.99 427.12 308.32
  Q 426.95 308.50 426.53 308.67
  L 361.14 346.66
  L 360.96 330.83
  Q 360.98 330.80 361.01 330.78
  L 426.54 292.68
  Z"
/>
<path fill="#cac285" d="
  M 112.23 294.87
  Q 112.98 295.35 113.00 294.89
  Q 113.13 295.71 113.35 295.99
  Q 112.98 295.92 112.62 296.12
  Q 93.79 307.04 75.00 317.97
  Q 71.08 320.25 70.06 324.83
  Q 70.57 324.66 69.94 325.10
  Q 70.13 323.63 68.71 323.91
  Q 68.99 323.34 69.01 323.05
  Q 70.96 318.76 75.42 316.17
  Q 93.82 305.49 112.23 294.87
  Z"
/>
<path fill="#c0eafe" d="
  M 113.00 294.89
  L 118.39 297.43
  L 118.27 324.74
  C 113.56 317.97 112.60 307.99 113.15 300.00
  Q 113.29 297.95 113.35 295.99
  Q 113.13 295.71 113.00 294.89
  Z"
/>
<path fill="#729cae" d="
  M 113.35 295.99
  Q 113.29 297.95 113.15 300.00
  C 112.60 307.99 113.56 317.97 118.27 324.74
  Q 117.80 324.08 118.59 325.71
  Q 117.98 326.08 118.25 327.11
  Q 118.43 327.82 118.43 328.52
  Q 118.48 341.48 118.46 354.67
  A 0.14 0.14 0.0 0 1 118.26 354.80
  Q 92.03 343.42 70.06 324.83
  Q 71.08 320.25 75.00 317.97
  Q 93.79 307.04 112.62 296.12
  Q 112.98 295.92 113.35 295.99
  Z"
/>
<path fill="#cbdbf4" d="
  M 242.33 297.38
  A 0.14 0.14 0.0 0 1 242.52 297.33
  L 248.59 300.88
  A 0.65 0.27 30.3 0 1 249.02 301.44
  L 248.96 301.54
  A 0.65 0.27 30.3 0 1 248.26 301.45
  L 242.19 297.90
  A 0.14 0.14 0.0 0 1 242.14 297.71
  L 242.33 297.38
  Z"
/>
<path fill="#95e2fe" d="
  M 360.76 310.62
  Q 346.60 314.59 339.50 316.19
  Q 299.00 325.35 257.48 325.28
  C 256.91 325.28 256.35 325.61 255.80 325.77
  Q 255.83 325.56 255.48 325.36
  Q 255.28 325.24 254.98 325.24
  Q 230.71 325.19 212.25 322.76
  Q 205.91 321.92 203.15 322.10
  Q 202.93 321.02 203.14 320.07
  Q 203.25 319.57 203.76 319.64
  Q 220.75 322.11 236.45 322.54
  Q 248.66 323.70 260.15 323.23
  Q 311.32 323.02 360.29 308.39
  Q 360.79 308.24 360.94 308.73
  Q 361.22 309.71 360.76 310.62
  Z"
/>
<path fill="#181e1e" d="
  M 426.53 308.67
  Q 426.68 308.63 426.79 308.67
  Q 426.93 308.72 426.93 308.86
  L 426.95 316.63
  Q 426.98 316.63 427.01 316.63
  L 376.25 346.13
  L 373.30 347.87
  L 361.14 354.88
  L 360.97 346.81
  Q 361.36 346.24 361.14 346.66
  L 426.53 308.67
  Z"
/>
<path fill="#729cae" d="
  M 360.76 310.62
  L 361.03 313.72
  Q 360.82 313.78 360.74 313.91
  L 242.67 382.36
  Q 242.57 382.39 242.47 382.42
  Q 222.95 381.80 203.56 379.03
  Q 203.06 378.96 203.06 378.46
  Q 202.96 367.90 203.01 357.52
  Q 203.02 356.56 202.53 356.41
  L 203.23 356.11
  L 255.80 325.77
  C 256.35 325.61 256.91 325.28 257.48 325.28
  Q 299.00 325.35 339.50 316.19
  Q 346.60 314.59 360.76 310.62
  Z"
/>
<path fill="#cac285" d="
  M 360.74 313.91
  L 361.11 315.29
  Q 360.52 315.93 360.22 315.75
  L 245.60 382.21
  Q 245.08 382.81 243.73 383.26
  Q 243.18 382.94 242.67 382.36
  L 360.74 313.91
  Z"
/>
<path fill="#729cae" d="
  M 360.22 315.75
  Q 361.13 316.12 361.00 317.25
  Q 360.79 319.05 361.22 322.48
  L 360.97 323.50
  L 360.23 323.62
  Q 359.79 323.69 359.40 323.90
  Q 354.58 326.53 348.13 330.32
  Q 334.26 338.48 319.40 347.04
  C 317.83 347.94 316.56 349.37 314.88 350.00
  Q 313.05 350.67 311.42 351.62
  Q 301.41 357.46 291.69 363.10
  Q 290.70 363.68 289.79 364.47
  Q 288.82 365.31 287.52 366.00
  Q 287.01 366.27 286.44 366.25
  Q 285.95 366.24 285.59 366.54
  Q 285.06 366.98 284.99 367.02
  Q 271.97 374.51 259.01 382.12
  Q 257.60 382.94 254.56 382.61
  L 245.60 382.21
  L 360.22 315.75
  Z"
/>
<path fill="#4f575f" d="
  M 61.41 316.44
  Q 61.43 316.44 61.45 316.44
  Q 64.40 319.83 68.06 322.92
  Q 68.29 323.12 68.50 323.13
  Q 68.73 323.14 69.01 323.05
  Q 68.99 323.34 68.71 323.91
  Q 67.95 331.31 74.29 334.97
  Q 128.11 366.04 183.56 398.06
  Q 195.26 404.82 208.81 401.77
  Q 213.41 400.74 220.15 396.92
  Q 231.99 390.23 243.73 383.26
  Q 245.08 382.81 245.60 382.21
  L 254.56 382.61
  L 257.69 382.75
  Q 236.70 394.99 215.66 407.18
  Q 209.17 410.93 204.74 411.99
  Q 198.25 413.55 191.42 412.98
  Q 189.12 412.22 186.50 412.14
  Q 185.18 412.10 181.59 410.67
  Q 179.22 409.72 177.03 408.45
  Q 169.94 404.32 162.70 400.18
  Q 162.35 399.98 161.95 400.07
  Q 161.61 400.15 161.55 399.80
  Q 161.48 399.31 161.04 399.09
  Q 157.81 397.44 154.58 395.52
  Q 146.12 390.51 137.66 385.76
  Q 137.55 385.70 137.47 385.81
  Q 137.44 385.85 137.39 385.87
  Q 137.20 385.94 137.19 385.74
  Q 137.15 385.18 136.57 385.01
  Q 136.14 384.88 135.73 384.64
  Q 126.68 379.33 117.50 374.05
  Q 117.22 373.89 116.97 374.05
  Q 116.54 374.31 116.57 373.81
  Q 116.58 373.53 116.33 373.38
  Q 114.01 371.92 111.62 370.82
  Q 111.51 370.77 111.41 370.83
  Q 111.27 370.91 111.11 370.90
  A 0.04 0.03 39.0 0 1 111.10 370.83
  Q 111.28 370.79 111.27 370.62
  Q 111.26 370.49 111.15 370.43
  Q 94.35 360.69 77.66 351.01
  Q 77.56 350.95 77.45 350.95
  Q 77.27 350.95 77.18 351.07
  Q 77.09 351.20 77.11 351.05
  Q 77.13 350.97 77.10 350.90
  Q 77.02 350.70 76.84 350.60
  Q 67.46 345.08 57.76 339.73
  Q 52.49 336.82 49.86 331.29
  Q 49.18 323.64 56.42 319.39
  Q 58.98 317.88 61.41 316.44
  Z"
/>
<path fill="#c0eafe" d="
  M 255.80 325.77
  L 203.23 356.11
  L 203.03 342.64
  L 203.15 322.10
  Q 205.91 321.92 212.25 322.76
  Q 230.71 325.19 254.98 325.24
  Q 255.28 325.24 255.48 325.36
  Q 255.83 325.56 255.80 325.77
  Z"
/>
<path fill="#57808e" d="
  M 360.97 323.50
  L 361.01 330.78
  Q 360.98 330.80 360.96 330.83
  L 273.16 381.83
  Q 272.73 382.39 272.03 382.45
  L 257.69 382.75
  L 254.56 382.61
  Q 257.60 382.94 259.01 382.12
  Q 271.97 374.51 284.99 367.02
  Q 285.06 366.98 285.59 366.54
  Q 285.95 366.24 286.44 366.25
  Q 287.01 366.27 287.52 366.00
  Q 288.82 365.31 289.79 364.47
  Q 290.70 363.68 291.69 363.10
  Q 301.41 357.46 311.42 351.62
  Q 313.05 350.67 314.88 350.00
  C 316.56 349.37 317.83 347.94 319.40 347.04
  Q 334.26 338.48 348.13 330.32
  Q 354.58 326.53 359.40 323.90
  Q 359.79 323.69 360.23 323.62
  L 360.97 323.50
  Z"
/>
<path fill="#ffca6c" d="
  M 68.71 323.91
  Q 70.13 323.63 69.94 325.10
  Q 70.08 330.93 75.17 333.87
  Q 128.00 364.38 180.85 394.88
  Q 188.83 399.48 192.85 400.31
  Q 201.03 401.99 208.93 400.30
  Q 213.02 399.42 220.02 395.40
  Q 231.25 388.96 242.47 382.42
  Q 242.57 382.39 242.67 382.36
  Q 243.18 382.94 243.73 383.26
  Q 231.99 390.23 220.15 396.92
  Q 213.41 400.74 208.81 401.77
  Q 195.26 404.82 183.56 398.06
  Q 128.11 366.04 74.29 334.97
  Q 67.95 331.31 68.71 323.91
  Z"
/>
<path fill="#4f575f" d="
  M 70.06 324.83
  Q 92.03 343.42 118.26 354.80
  A 0.14 0.14 0.0 0 0 118.46 354.67
  Q 118.48 341.48 118.43 328.52
  Q 118.43 327.82 118.25 327.11
  Q 117.98 326.08 118.59 325.71
  Q 121.73 330.56 125.58 332.91
  Q 136.15 339.36 165.34 356.24
  Q 174.68 363.36 185.51 362.22
  Q 194.14 361.30 202.53 356.41
  Q 203.02 356.56 203.01 357.52
  Q 202.96 367.90 203.06 378.46
  Q 203.06 378.96 203.56 379.03
  Q 222.95 381.80 242.47 382.42
  Q 231.25 388.96 220.02 395.40
  Q 213.02 399.42 208.93 400.30
  Q 201.03 401.99 192.85 400.31
  Q 188.83 399.48 180.85 394.88
  Q 128.00 364.38 75.17 333.87
  Q 70.08 330.93 69.94 325.10
  Q 70.57 324.66 70.06 324.83
  Z"
/>
<path fill="#cac285" d="
  M 156.73 324.79
  L 156.72 332.31
  Q 155.91 328.65 156.73 324.79
  Z"
/>
<path fill="#cac285" d="
  M 360.96 330.83
  L 361.14 346.66
  Q 361.36 346.24 360.97 346.81
  L 304.86 379.49
  Q 304.08 380.13 303.26 380.23
  Q 288.34 381.40 273.99 382.26
  Q 273.68 382.28 273.16 381.83
  L 360.96 330.83
  Z"
/>
<path fill="#3d4449" d="
  M 49.86 331.29
  Q 52.49 336.82 57.76 339.73
  Q 67.46 345.08 76.84 350.60
  Q 77.02 350.70 77.10 350.90
  Q 77.13 350.97 77.11 351.05
  Q 77.09 351.20 77.18 351.07
  Q 77.27 350.95 77.45 350.95
  Q 77.56 350.95 77.66 351.01
  Q 94.35 360.69 111.15 370.43
  Q 111.26 370.49 111.27 370.62
  Q 111.28 370.79 111.10 370.83
  A 0.04 0.03 39.0 0 0 111.11 370.90
  Q 111.27 370.91 111.41 370.83
  Q 111.51 370.77 111.62 370.82
  Q 114.01 371.92 116.33 373.38
  Q 116.58 373.53 116.57 373.81
  Q 116.54 374.31 116.97 374.05
  Q 117.22 373.89 117.50 374.05
  Q 126.68 379.33 135.73 384.64
  Q 136.14 384.88 136.57 385.01
  Q 137.15 385.18 137.19 385.74
  Q 137.20 385.94 137.39 385.87
  Q 137.44 385.85 137.47 385.81
  Q 137.55 385.70 137.66 385.76
  Q 146.12 390.51 154.58 395.52
  Q 157.81 397.44 161.04 399.09
  Q 161.48 399.31 161.55 399.80
  Q 161.61 400.15 161.95 400.07
  Q 162.35 399.98 162.70 400.18
  Q 169.94 404.32 177.03 408.45
  Q 179.22 409.72 181.59 410.67
  Q 185.18 412.10 186.50 412.14
  Q 189.12 412.22 191.42 412.98
  L 191.17 420.77
  Q 183.48 420.22 177.65 416.85
  Q 117.12 381.87 56.60 346.86
  Q 51.91 344.15 49.77 338.93
  L 49.86 331.29
  Z"
/>
<path fill="#ffca6c" d="
  M 49.77 338.93
  Q 51.91 344.15 56.60 346.86
  Q 117.12 381.87 177.65 416.85
  Q 183.48 420.22 191.17 420.77
  Q 191.35 420.72 191.37 420.83
  L 191.28 436.75
  Q 183.64 436.30 177.66 432.85
  Q 116.81 397.73 55.96 362.59
  Q 51.81 360.19 49.79 354.90
  L 49.77 338.93
  Z"
/>
<path fill="#ebf2ff" d="
  M 376.25 346.13
  L 416.08 369.12
  A 1.35 1.34 -35.1 0 0 417.00 369.28
  L 451.17 362.71
  L 452.72 365.05
  L 417.02 371.97
  A 4.14 4.11 -35.3 0 1 414.15 371.49
  L 373.30 347.87
  L 376.25 346.13
  Z"
/>
<path fill="#57808e" d="
  M 360.97 346.81
  L 361.14 354.88
  Q 360.16 355.55 360.89 356.45
  L 359.97 356.10
  Q 359.49 355.92 359.06 356.17
  L 345.22 364.23
  Q 343.66 364.80 342.16 366.05
  L 325.22 376.17
  L 322.49 377.04
  L 304.86 379.49
  L 360.97 346.81
  Z"
/>
<path fill="#3d4449" d="
  M 49.79 354.90
  Q 51.81 360.19 55.96 362.59
  Q 116.81 397.73 177.66 432.85
  Q 183.64 436.30 191.28 436.75
  Q 191.36 436.76 191.45 436.77
  L 191.46 444.78
  Q 183.40 444.06 179.31 441.70
  Q 118.83 406.82 58.38 371.90
  C 54.49 369.64 50.88 367.00 49.96 363.02
  Q 49.50 361.05 49.79 354.90
  Z"
/>
<path fill="#4b717f" fill-opacity="0.502" d="
  M 360.89 356.45
  L 360.92 367.15
  Q 360.92 367.67 360.42 367.81
  L 354.18 369.48
  L 345.22 364.23
  L 359.06 356.17
  Q 359.49 355.92 359.97 356.10
  L 360.89 356.45
  Z"
/>
<path fill="#4f575f" d="
  M 452.72 365.05
  L 451.17 362.71
  Q 453.75 357.68 460.52 358.88
  Q 462.97 359.31 464.54 361.25
  A 2.27 2.26 45.3 0 1 464.53 364.11
  C 461.78 367.43 456.14 366.84 452.72 365.05
  Z"
/>
<path fill="#ebf2ff" d="
  M 345.22 364.23
  L 354.18 369.48
  L 432.46 414.68
  L 429.78 416.57
  L 350.03 370.70
  L 342.16 366.05
  Q 343.66 364.80 345.22 364.23
  Z"
/>
<path fill="#4b717f" fill-opacity="0.502" d="
  M 342.16 366.05
  L 350.03 370.70
  Q 337.81 374.42 325.22 376.17
  L 342.16 366.05
  Z"
/>
<path fill="#2a3134" d="
  M 322.49 377.04
  L 317.44 380.39
  L 314.34 381.97
  Q 263.78 411.35 213.02 440.82
  Q 203.69 446.23 191.46 444.78
  L 191.45 436.77
  Q 198.65 437.53 205.28 435.78
  Q 209.64 434.63 217.64 430.01
  Q 260.26 405.42 303.26 380.23
  Q 304.08 380.13 304.86 379.49
  L 322.49 377.04
  Z"
/>
<path fill="#ffb63c" d="
  M 303.26 380.23
  Q 260.26 405.42 217.64 430.01
  Q 209.64 434.63 205.28 435.78
  Q 198.65 437.53 191.45 436.77
  Q 191.36 436.76 191.28 436.75
  L 191.37 420.83
  Q 198.51 421.50 205.02 419.86
  Q 209.53 418.74 217.27 414.27
  Q 244.66 398.48 272.03 382.45
  Q 272.73 382.39 273.16 381.83
  Q 273.68 382.28 273.99 382.26
  Q 288.34 381.40 303.26 380.23
  Z"
/>
<path fill="#ebf2ff" d="
  M 317.44 380.39
  L 358.62 404.16
  A 1.01 1.01 0.0 0 1 359.00 405.54
  L 347.13 426.34
  Q 345.00 426.24 343.20 425.45
  L 354.50 405.65
  A 0.42 0.41 -60.6 0 0 354.35 405.09
  L 314.34 381.97
  L 317.44 380.39
  Z"
/>
<path fill="#2a3134" d="
  M 272.03 382.45
  Q 244.66 398.48 217.27 414.27
  Q 209.53 418.74 205.02 419.86
  Q 198.51 421.50 191.37 420.83
  Q 191.35 420.72 191.17 420.77
  L 191.42 412.98
  Q 198.25 413.55 204.74 411.99
  Q 209.17 410.93 215.66 407.18
  Q 236.70 394.99 257.69 382.75
  L 272.03 382.45
  Z"
/>
<path fill="#ff6161" d="
  M 429.78 416.57
  L 432.46 414.68
  C 435.60 414.77 439.01 413.84 441.48 416.13
  Q 444.58 419.00 440.69 421.06
  Q 436.40 423.33 431.76 421.30
  Q 428.39 419.83 429.78 416.57
  Z"
/>
<path fill="#729cae" d="
  M 343.20 425.45
  Q 345.00 426.24 347.13 426.34
  Q 347.45 426.85 348.22 427.28
  A 2.49 2.48 -61.8 0 1 349.22 430.61
  C 347.27 434.30 340.66 433.69 337.81 432.14
  C 334.19 430.17 336.72 426.82 339.58 426.19
  Q 341.48 425.78 343.20 425.45
  Z"
/>
</svg>
