<?xml version="1.0" encoding="UTF-8" standalone="no"?>
<!DOCTYPE svg PUBLIC "-//W3C//DTD SVG 1.1//EN" "http://www.w3.org/Graphics/SVG/1.1/DTD/svg11.dtd">
<svg xmlns="http://www.w3.org/2000/svg" version="1.1" viewBox="0.00 0.00 512.00 512.00">
<g stroke-width="2.00" fill="none" stroke-linecap="butt">
<path stroke="#3c6152" vector-effect="non-scaling-stroke" d="
  M 384.49 179.11
  C 378.39 178.68 376.45 174.45 376.68 168.80
  C 377.31 153.43 367.03 141.11 353.02 136.45
  Q 347.31 134.55 336.72 135.26"
/>
<path stroke="#4b6b52" vector-effect="non-scaling-stroke" d="
  M 336.72 135.26
  Q 254.20 135.17 171.60 135.26
  Q 163.80 135.27 159.99 136.23
  C 148.90 139.03 140.13 147.58 136.68 158.43
  Q 135.15 163.26 135.17 172.08
  Q 135.28 238.36 135.24 305.82
  C 135.24 310.90 133.23 314.32 127.74 314.92"
/>
<path stroke="#80703f" vector-effect="non-scaling-stroke" d="
  M 264.62 23.66
  A 8.63 8.63 0.0 0 0 255.99 15.03
  A 8.63 8.63 0.0 0 0 247.36 23.66
  A 8.63 8.63 0.0 0 0 255.99 32.29
  A 8.63 8.63 0.0 0 0 264.62 23.66"
/>
<path stroke="#80703f" vector-effect="non-scaling-stroke" d="
  M 210.08 55.98
  A 8.63 8.63 0.0 0 0 201.45 47.35
  A 8.63 8.63 0.0 0 0 192.82 55.98
  A 8.63 8.63 0.0 0 0 201.45 64.61
  A 8.63 8.63 0.0 0 0 210.08 55.98"
/>
<path stroke="#80703f" vector-effect="non-scaling-stroke" d="
  M 319.18 55.98
  A 8.63 8.63 0.0 0 0 310.55 47.35
  A 8.63 8.63 0.0 0 0 301.92 55.98
  A 8.63 8.63 0.0 0 0 310.55 64.61
  A 8.63 8.63 0.0 0 0 319.18 55.98"
/>
<path stroke="#80703f" vector-effect="non-scaling-stroke" d="
  M 64.61 201.45
  A 8.63 8.63 0.0 0 0 55.98 192.82
  A 8.63 8.63 0.0 0 0 47.35 201.45
  A 8.63 8.63 0.0 0 0 55.98 210.08
  A 8.63 8.63 0.0 0 0 64.61 201.45"
/>
<path stroke="#80703f" vector-effect="non-scaling-stroke" d="
  M 32.29 255.99
  A 8.63 8.63 0.0 0 0 23.66 247.36
  A 8.63 8.63 0.0 0 0 15.03 255.99
  A 8.63 8.63 0.0 0 0 23.66 264.62
  A 8.63 8.63 0.0 0 0 32.29 255.99"
/>
<path stroke="#80703f" vector-effect="non-scaling-stroke" d="
  M 64.61 310.55
  A 8.63 8.63 0.0 0 0 55.98 301.92
  A 8.63 8.63 0.0 0 0 47.35 310.55
  A 8.63 8.63 0.0 0 0 55.98 319.18
  A 8.63 8.63 0.0 0 0 64.61 310.55"
/>
<path stroke="#87cca4" vector-effect="non-scaling-stroke" d="
  M 336.72 135.26
  Q 338.14 136.87 339.69 138.31
  C 345.60 143.78 349.68 150.24 351.73 158.14
  Q 352.99 163.00 352.99 176.24
  Q 353.00 260.36 352.94 343.00
  Q 352.93 363.49 336.38 376.75"
/>
<path stroke="#4b6b52" vector-effect="non-scaling-stroke" d="
  M 336.38 376.75
  Q 259.06 376.81 181.00 376.76
  Q 164.74 376.75 161.45 376.07
  C 150.03 373.71 140.44 365.23 136.82 353.98
  Q 135.41 349.61 135.26 342.49
  Q 135.12 335.64 127.74 334.80"
/>
<path stroke="#c5e9d2" vector-effect="non-scaling-stroke" d="
  M 208.53 186.97
  Q 201.04 193.71 195.34 201.92"
/>
<path stroke="#4b6b52" vector-effect="non-scaling-stroke" d="
  M 195.34 201.92
  C 189.53 199.25 185.85 202.22 183.48 207.40
  Q 169.20 238.66 180.23 270.12
  Q 181.76 274.49 184.03 278.74
  C 186.44 283.24 186.54 288.01 182.83 291.90
  C 178.10 296.88 176.69 303.58 179.27 309.91
  Q 180.68 313.36 184.99 317.46
  C 191.32 323.49 195.58 330.09 205.86 328.89
  Q 206.51 328.81 206.48 329.47
  Q 206.41 331.48 206.45 333.49
  C 206.61 342.99 213.92 349.91 223.44 349.89
  Q 251.53 349.83 288.48 349.87
  Q 298.29 349.88 303.27 341.80
  C 305.56 338.08 305.81 333.84 305.50 329.59
  Q 305.44 328.81 306.22 328.91
  C 316.42 330.13 320.79 323.35 327.23 317.25
  Q 331.16 313.52 332.65 310.06
  C 335.22 304.05 334.04 296.95 329.33 292.14
  C 325.70 288.42 325.48 283.69 327.80 279.20
  C 345.58 244.71 335.54 202.73 305.54 179.35
  Q 281.43 160.57 251.26 162.38
  Q 228.03 163.77 210.33 176.34
  Q 204.74 180.31 208.53 186.97"
/>
<path stroke="#7a7e80" vector-effect="non-scaling-stroke" d="
  M 195.34 201.92
  Q 200.93 206.12 198.17 211.71
  Q 185.14 238.08 193.99 264.05
  C 195.09 267.26 196.48 270.34 198.00 273.37
  C 203.24 283.78 200.98 294.83 192.78 303.27"
/>
<path stroke="#6f757e" vector-effect="non-scaling-stroke" d="
  M 192.78 303.27
  L 202.67 313.81
  A 1.02 1.01 46.8 0 0 204.11 313.86
  Q 208.95 309.29 214.79 311.34
  C 219.93 313.14 221.66 317.69 221.50 322.89
  Q 221.33 328.56 221.51 333.82
  A 0.96 0.95 2.9 0 0 222.34 334.73
  Q 223.37 334.88 224.45 334.88
  Q 257.50 334.88 289.32 334.87
  A 1.19 1.19 0.0 0 0 290.51 333.71
  Q 290.65 328.24 290.50 322.79
  C 290.39 318.58 291.46 314.51 295.24 312.30
  Q 301.84 308.44 307.80 313.77
  A 1.20 1.19 -46.6 0 0 309.44 313.72
  L 318.69 304.49
  A 1.19 1.18 46.3 0 0 318.72 302.85
  Q 309.29 292.65 311.74 280.06
  Q 312.43 276.56 315.32 270.45
  C 322.37 255.54 323.87 237.09 317.84 220.99"
/>
<path stroke="#7a7e80" vector-effect="non-scaling-stroke" d="
  M 317.84 220.99
  C 313.57 207.23 302.84 194.81 291.18 187.39
  C 269.63 173.69 241.04 173.57 219.90 188.06
  Q 217.12 189.97 214.42 189.94
  Q 210.96 189.90 208.53 186.97"
/>
<path stroke="#e9f3fd" vector-effect="non-scaling-stroke" d="
  M 317.84 220.99
  Q 316.93 221.64 316.82 222.26
  Q 312.74 246.52 297.48 266.38"
/>
<path stroke="#7a7e80" vector-effect="non-scaling-stroke" d="
  M 297.48 266.38
  Q 297.18 261.93 296.78 258.52
  Q 295.81 250.24 287.89 251.83
  C 279.31 253.54 266.42 259.04 268.04 269.76
  Q 269.66 280.59 281.65 282.69"
/>
<path stroke="#e9f3fd" vector-effect="non-scaling-stroke" d="
  M 281.65 282.69
  Q 274.01 289.38 264.82 294.18"
/>
<path stroke="#7a7e80" vector-effect="non-scaling-stroke" d="
  M 264.82 294.18
  Q 257.26 284.39 249.16 291.90
  Q 244.73 296.02 242.81 302.83"
/>
<path stroke="#e9f3fd" vector-effect="non-scaling-stroke" d="
  M 242.81 302.83
  Q 225.67 306.82 208.76 305.40
  Q 206.88 305.24 200.79 304.26
  Q 197.00 303.64 192.78 303.27"
/>
<path stroke="#6f757e" vector-effect="non-scaling-stroke" d="
  M 242.81 302.83
  C 240.42 311.52 242.53 316.73 252.20 317.03
  C 258.16 317.21 270.47 318.33 270.07 308.75
  Q 269.74 300.78 264.82 294.18"
/>
<path stroke="#6f757e" vector-effect="non-scaling-stroke" d="
  M 281.65 282.69
  Q 291.98 282.53 296.18 273.24
  Q 297.25 270.87 297.48 266.38"
/>
<path stroke="#3c6152" vector-effect="non-scaling-stroke" d="
  M 384.50 199.02
  Q 376.76 199.73 376.76 207.25
  Q 376.79 272.81 376.76 338.38
  Q 376.76 348.81 375.40 353.23
  C 371.04 367.51 358.13 376.88 343.25 376.85
  Q 340.22 376.84 336.38 376.75"
/>
<path stroke="#7a7e80" vector-effect="non-scaling-stroke" d="
  M 231.57 254.12
  C 225.77 251.68 216.13 248.56 215.04 258.36
  Q 214.26 265.38 215.19 270.79
  C 217.54 284.42 236.91 286.91 242.60 274.11
  C 247.28 263.57 240.19 257.74 231.57 254.12"
/>
<path stroke="#80703f" vector-effect="non-scaling-stroke" d="
  M 464.64 201.45
  A 8.63 8.63 0.0 0 0 456.01 192.82
  A 8.63 8.63 0.0 0 0 447.38 201.45
  A 8.63 8.63 0.0 0 0 456.01 210.08
  A 8.63 8.63 0.0 0 0 464.64 201.45"
/>
<path stroke="#80703f" vector-effect="non-scaling-stroke" d="
  M 496.97 255.99
  A 8.63 8.63 0.0 0 0 488.34 247.36
  A 8.63 8.63 0.0 0 0 479.71 255.99
  A 8.63 8.63 0.0 0 0 488.34 264.62
  A 8.63 8.63 0.0 0 0 496.97 255.99"
/>
<path stroke="#80703f" vector-effect="non-scaling-stroke" d="
  M 464.64 310.55
  A 8.63 8.63 0.0 0 0 456.01 301.92
  A 8.63 8.63 0.0 0 0 447.38 310.55
  A 8.63 8.63 0.0 0 0 456.01 319.18
  A 8.63 8.63 0.0 0 0 464.64 310.55"
/>
<path stroke="#80703f" vector-effect="non-scaling-stroke" d="
  M 210.08 456.01
  A 8.63 8.63 0.0 0 0 201.45 447.38
  A 8.63 8.63 0.0 0 0 192.82 456.01
  A 8.63 8.63 0.0 0 0 201.45 464.64
  A 8.63 8.63 0.0 0 0 210.08 456.01"
/>
<path stroke="#80703f" vector-effect="non-scaling-stroke" d="
  M 319.17 456.01
  A 8.62 8.62 0.0 0 0 310.55 447.39
  A 8.62 8.62 0.0 0 0 301.93 456.01
  A 8.62 8.62 0.0 0 0 310.55 464.63
  A 8.62 8.62 0.0 0 0 319.17 456.01"
/>
<path stroke="#80703f" vector-effect="non-scaling-stroke" d="
  M 264.63 488.33
  A 8.63 8.63 0.0 0 0 256.00 479.70
  A 8.63 8.63 0.0 0 0 247.37 488.33
  A 8.63 8.63 0.0 0 0 256.00 496.96
  A 8.63 8.63 0.0 0 0 264.63 488.33"
/>
</g>
<path fill="#000000" d="
  M 253.78 0.00
  L 258.28 0.00
  C 270.79 1.72 280.34 12.06 279.59 24.57
  Q 278.69 39.52 263.99 46.02
  Q 263.50 46.23 263.50 46.76
  L 263.50 119.73
  Q 263.50 120.22 263.98 120.22
  L 282.25 120.22
  Q 282.83 120.22 282.83 119.64
  Q 282.81 112.47 282.84 105.45
  C 282.87 99.21 283.62 96.63 290.03 94.58
  Q 296.63 92.46 302.57 90.18
  Q 303.03 90.01 303.03 89.51
  L 303.03 79.01
  Q 303.03 78.46 302.54 78.22
  C 300.85 77.41 299.10 76.76 297.55 75.69
  Q 288.72 69.61 287.15 59.20
  C 284.83 43.83 298.19 30.75 313.27 32.52
  C 328.64 34.33 338.62 50.56 332.33 65.10
  Q 328.27 74.49 318.51 78.22
  A 0.67 0.67 0.0 0 0 318.08 78.83
  Q 317.94 86.44 318.07 94.34
  C 318.14 97.98 316.65 101.10 313.12 102.40
  Q 305.80 105.10 298.30 107.60
  A 0.68 0.68 0.0 0 0 297.83 108.25
  L 297.83 119.58
  Q 297.83 120.19 298.44 120.19
  Q 317.17 120.31 337.76 120.15
  Q 349.10 120.06 355.36 121.63
  C 378.03 127.30 393.71 148.87 391.70 172.26
  Q 391.18 178.29 384.49 179.11
  C 378.39 178.68 376.45 174.45 376.68 168.80
  C 377.31 153.43 367.03 141.11 353.02 136.45
  Q 347.31 134.55 336.72 135.26
  Q 254.20 135.17 171.60 135.26
  Q 163.80 135.27 159.99 136.23
  C 148.90 139.03 140.13 147.58 136.68 158.43
  Q 135.15 163.26 135.17 172.08
  Q 135.28 238.36 135.24 305.82
  C 135.24 310.90 133.23 314.32 127.74 314.92
  C 118.11 313.98 120.55 304.99 120.19 298.47
  Q 120.16 297.86 119.55 297.86
  L 108.30 297.85
  Q 107.74 297.85 107.56 298.39
  Q 104.95 306.08 102.37 313.18
  C 101.20 316.41 98.16 318.10 94.75 318.07
  Q 86.31 318.00 78.89 318.06
  A 0.81 0.80 -80.4 0 0 78.15 318.59
  C 71.68 336.62 47.59 339.71 36.54 323.96
  C 24.29 306.49 40.34 282.64 61.10 287.51
  Q 73.30 290.37 78.27 302.59
  A 0.73 0.72 -10.5 0 0 78.95 303.05
  L 89.52 303.04
  Q 90.09 303.04 90.27 302.50
  Q 92.59 295.74 95.20 288.38
  Q 97.15 282.89 102.73 282.87
  Q 110.81 282.85 119.86 282.86
  A 0.38 0.37 90.0 0 0 120.23 282.48
  L 120.23 264.00
  A 0.48 0.48 0.0 0 0 119.75 263.52
  L 46.75 263.52
  Q 46.25 263.52 45.97 263.93
  C 45.37 264.82 45.13 266.05 44.58 267.00
  C 37.47 279.47 22.44 283.56 10.36 275.52
  Q 1.85 269.86 0.00 258.22
  L 0.00 253.64
  Q 1.03 246.39 5.31 241.12
  C 17.05 226.65 39.33 230.85 45.84 247.93
  A 0.92 0.91 -10.1 0 0 46.70 248.52
  L 119.61 248.52
  Q 120.23 248.52 120.23 247.89
  L 120.23 229.69
  A 0.55 0.55 0.0 0 0 119.68 229.14
  Q 111.57 229.13 102.89 229.16
  C 97.80 229.17 95.97 226.17 94.38 221.44
  Q 92.37 215.44 90.20 209.46
  Q 90.01 208.95 89.47 208.95
  L 79.00 208.95
  Q 78.37 208.95 78.15 209.54
  C 70.81 228.87 44.73 230.50 35.08 212.41
  C 28.70 200.45 33.95 184.89 46.84 179.65
  C 59.15 174.64 73.54 180.48 78.10 193.28
  A 1.05 1.05 0.0 0 0 79.09 193.98
  Q 88.10 193.91 95.66 194.00
  C 99.37 194.04 101.76 196.67 102.89 200.04
  Q 105.33 207.34 107.59 213.56
  Q 107.80 214.15 108.42 214.15
  L 119.56 214.13
  Q 120.26 214.13 120.26 213.44
  Q 120.19 189.79 120.26 168.76
  Q 120.33 148.28 134.26 134.37
  Q 146.01 122.66 161.77 120.78
  Q 168.67 119.95 181.23 120.15
  Q 195.18 120.38 213.73 120.16
  Q 214.18 120.15 214.18 119.71
  L 214.17 108.43
  Q 214.17 107.77 213.55 107.55
  Q 205.67 104.79 198.82 102.37
  C 195.76 101.29 193.91 98.32 193.94 95.01
  Q 194.01 86.55 193.96 79.03
  A 0.99 0.99 0.0 0 0 193.31 78.10
  C 178.94 72.75 173.72 56.35 181.40 43.50
  C 188.02 32.41 202.91 29.14 213.73 35.82
  C 230.72 46.30 228.06 71.05 209.52 78.20
  Q 208.97 78.42 208.97 79.01
  L 208.97 89.49
  Q 208.97 90.07 209.51 90.26
  Q 216.12 92.53 223.42 95.08
  Q 229.20 97.10 229.18 103.27
  Q 229.17 111.16 229.17 119.60
  A 0.62 0.61 90.0 0 0 229.78 120.22
  L 248.01 120.22
  Q 248.50 120.22 248.50 119.73
  L 248.50 46.72
  Q 248.50 46.18 248.04 45.91
  C 246.95 45.28 245.71 45.02 244.64 44.37
  C 224.51 32.24 230.35 3.09 253.78 0.00
  Z
  M 264.62 23.66
  A 8.63 8.63 0.0 0 0 255.99 15.03
  A 8.63 8.63 0.0 0 0 247.36 23.66
  A 8.63 8.63 0.0 0 0 255.99 32.29
  A 8.63 8.63 0.0 0 0 264.62 23.66
  Z
  M 210.08 55.98
  A 8.63 8.63 0.0 0 0 201.45 47.35
  A 8.63 8.63 0.0 0 0 192.82 55.98
  A 8.63 8.63 0.0 0 0 201.45 64.61
  A 8.63 8.63 0.0 0 0 210.08 55.98
  Z
  M 319.18 55.98
  A 8.63 8.63 0.0 0 0 310.55 47.35
  A 8.63 8.63 0.0 0 0 301.92 55.98
  A 8.63 8.63 0.0 0 0 310.55 64.61
  A 8.63 8.63 0.0 0 0 319.18 55.98
  Z
  M 64.61 201.45
  A 8.63 8.63 0.0 0 0 55.98 192.82
  A 8.63 8.63 0.0 0 0 47.35 201.45
  A 8.63 8.63 0.0 0 0 55.98 210.08
  A 8.63 8.63 0.0 0 0 64.61 201.45
  Z
  M 32.29 255.99
  A 8.63 8.63 0.0 0 0 23.66 247.36
  A 8.63 8.63 0.0 0 0 15.03 255.99
  A 8.63 8.63 0.0 0 0 23.66 264.62
  A 8.63 8.63 0.0 0 0 32.29 255.99
  Z
  M 64.61 310.55
  A 8.63 8.63 0.0 0 0 55.98 301.92
  A 8.63 8.63 0.0 0 0 47.35 310.55
  A 8.63 8.63 0.0 0 0 55.98 319.18
  A 8.63 8.63 0.0 0 0 64.61 310.55
  Z"
/>
<circle fill="#ffe07d" cx="255.99" cy="23.66" r="8.63"/>
<circle fill="#ffe07d" cx="201.45" cy="55.98" r="8.63"/>
<circle fill="#ffe07d" cx="310.55" cy="55.98" r="8.63"/>
<path fill="#95d6a4" d="
  M 336.72 135.26
  Q 338.14 136.87 339.69 138.31
  C 345.60 143.78 349.68 150.24 351.73 158.14
  Q 352.99 163.00 352.99 176.24
  Q 353.00 260.36 352.94 343.00
  Q 352.93 363.49 336.38 376.75
  Q 259.06 376.81 181.00 376.76
  Q 164.74 376.75 161.45 376.07
  C 150.03 373.71 140.44 365.23 136.82 353.98
  Q 135.41 349.61 135.26 342.49
  Q 135.12 335.64 127.74 334.80
  L 127.74 314.92
  C 133.23 314.32 135.24 310.90 135.24 305.82
  Q 135.28 238.36 135.17 172.08
  Q 135.15 163.26 136.68 158.43
  C 140.13 147.58 148.90 139.03 159.99 136.23
  Q 163.80 135.27 171.60 135.26
  Q 254.20 135.17 336.72 135.26
  Z
  M 208.53 186.97
  Q 201.04 193.71 195.34 201.92
  C 189.53 199.25 185.85 202.22 183.48 207.40
  Q 169.20 238.66 180.23 270.12
  Q 181.76 274.49 184.03 278.74
  C 186.44 283.24 186.54 288.01 182.83 291.90
  C 178.10 296.88 176.69 303.58 179.27 309.91
  Q 180.68 313.36 184.99 317.46
  C 191.32 323.49 195.58 330.09 205.86 328.89
  Q 206.51 328.81 206.48 329.47
  Q 206.41 331.48 206.45 333.49
  C 206.61 342.99 213.92 349.91 223.44 349.89
  Q 251.53 349.83 288.48 349.87
  Q 298.29 349.88 303.27 341.80
  C 305.56 338.08 305.81 333.84 305.50 329.59
  Q 305.44 328.81 306.22 328.91
  C 316.42 330.13 320.79 323.35 327.23 317.25
  Q 331.16 313.52 332.65 310.06
  C 335.22 304.05 334.04 296.95 329.33 292.14
  C 325.70 288.42 325.48 283.69 327.80 279.20
  C 345.58 244.71 335.54 202.73 305.54 179.35
  Q 281.43 160.57 251.26 162.38
  Q 228.03 163.77 210.33 176.34
  Q 204.74 180.31 208.53 186.97
  Z"
/>
<path fill="#78c2a4" d="
  M 336.72 135.26
  Q 347.31 134.55 353.02 136.45
  C 367.03 141.11 377.31 153.43 376.68 168.80
  C 376.45 174.45 378.39 178.68 384.49 179.11
  L 384.50 199.02
  Q 376.76 199.73 376.76 207.25
  Q 376.79 272.81 376.76 338.38
  Q 376.76 348.81 375.40 353.23
  C 371.04 367.51 358.13 376.88 343.25 376.85
  Q 340.22 376.84 336.38 376.75
  Q 352.93 363.49 352.94 343.00
  Q 353.00 260.36 352.99 176.24
  Q 352.99 163.00 351.73 158.14
  C 349.68 150.24 345.60 143.78 339.69 138.31
  Q 338.14 136.87 336.72 135.26
  Z"
/>
<path fill="#000000" d="
  M 195.34 201.92
  Q 200.93 206.12 198.17 211.71
  Q 185.14 238.08 193.99 264.05
  C 195.09 267.26 196.48 270.34 198.00 273.37
  C 203.24 283.78 200.98 294.83 192.78 303.27
  L 202.67 313.81
  A 1.02 1.01 46.8 0 0 204.11 313.86
  Q 208.95 309.29 214.79 311.34
  C 219.93 313.14 221.66 317.69 221.50 322.89
  Q 221.33 328.56 221.51 333.82
  A 0.96 0.95 2.9 0 0 222.34 334.73
  Q 223.37 334.88 224.45 334.88
  Q 257.50 334.88 289.32 334.87
  A 1.19 1.19 0.0 0 0 290.51 333.71
  Q 290.65 328.24 290.50 322.79
  C 290.39 318.58 291.46 314.51 295.24 312.30
  Q 301.84 308.44 307.80 313.77
  A 1.20 1.19 -46.6 0 0 309.44 313.72
  L 318.69 304.49
  A 1.19 1.18 46.3 0 0 318.72 302.85
  Q 309.29 292.65 311.74 280.06
  Q 312.43 276.56 315.32 270.45
  C 322.37 255.54 323.87 237.09 317.84 220.99
  C 313.57 207.23 302.84 194.81 291.18 187.39
  C 269.63 173.69 241.04 173.57 219.90 188.06
  Q 217.12 189.97 214.42 189.94
  Q 210.96 189.90 208.53 186.97
  Q 204.74 180.31 210.33 176.34
  Q 228.03 163.77 251.26 162.38
  Q 281.43 160.57 305.54 179.35
  C 335.54 202.73 345.58 244.71 327.80 279.20
  C 325.48 283.69 325.70 288.42 329.33 292.14
  C 334.04 296.95 335.22 304.05 332.65 310.06
  Q 331.16 313.52 327.23 317.25
  C 320.79 323.35 316.42 330.13 306.22 328.91
  Q 305.44 328.81 305.50 329.59
  C 305.81 333.84 305.56 338.08 303.27 341.80
  Q 298.29 349.88 288.48 349.87
  Q 251.53 349.83 223.44 349.89
  C 213.92 349.91 206.61 342.99 206.45 333.49
  Q 206.41 331.48 206.48 329.47
  Q 206.51 328.81 205.86 328.89
  C 195.58 330.09 191.32 323.49 184.99 317.46
  Q 180.68 313.36 179.27 309.91
  C 176.69 303.58 178.10 296.88 182.83 291.90
  C 186.54 288.01 186.44 283.24 184.03 278.74
  Q 181.76 274.49 180.23 270.12
  Q 169.20 238.66 183.48 207.40
  C 185.85 202.22 189.53 199.25 195.34 201.92
  Z"
/>
<path fill="#f4fbff" d="
  M 317.84 220.99
  Q 316.93 221.64 316.82 222.26
  Q 312.74 246.52 297.48 266.38
  Q 297.18 261.93 296.78 258.52
  Q 295.81 250.24 287.89 251.83
  C 279.31 253.54 266.42 259.04 268.04 269.76
  Q 269.66 280.59 281.65 282.69
  Q 274.01 289.38 264.82 294.18
  Q 257.26 284.39 249.16 291.90
  Q 244.73 296.02 242.81 302.83
  Q 225.67 306.82 208.76 305.40
  Q 206.88 305.24 200.79 304.26
  Q 197.00 303.64 192.78 303.27
  C 200.98 294.83 203.24 283.78 198.00 273.37
  C 196.48 270.34 195.09 267.26 193.99 264.05
  Q 185.14 238.08 198.17 211.71
  Q 200.93 206.12 195.34 201.92
  Q 201.04 193.71 208.53 186.97
  Q 210.96 189.90 214.42 189.94
  Q 217.12 189.97 219.90 188.06
  C 241.04 173.57 269.63 173.69 291.18 187.39
  C 302.84 194.81 313.57 207.23 317.84 220.99
  Z
  M 231.57 254.12
  C 225.77 251.68 216.13 248.56 215.04 258.36
  Q 214.26 265.38 215.19 270.79
  C 217.54 284.42 236.91 286.91 242.60 274.11
  C 247.28 263.57 240.19 257.74 231.57 254.12
  Z"
/>
<path fill="#000000" d="
  M 512.00 253.83
  L 512.00 258.27
  Q 509.81 271.28 499.73 276.67
  C 486.60 283.69 471.67 277.81 466.18 264.12
  A 0.95 0.94 79.0 0 0 465.30 263.52
  L 392.38 263.52
  Q 391.77 263.52 391.77 264.12
  L 391.77 282.24
  Q 391.77 282.90 392.43 282.89
  Q 400.74 282.83 409.07 282.87
  Q 414.81 282.90 416.66 288.05
  Q 419.07 294.76 421.79 302.69
  Q 421.91 303.05 422.30 303.05
  L 433.24 303.04
  A 0.59 0.57 -79.8 0 0 433.78 302.65
  Q 435.31 298.24 438.51 294.72
  C 453.63 278.08 481.21 289.91 479.57 312.35
  C 479.04 319.53 474.91 326.69 468.90 330.32
  C 455.49 338.43 439.52 333.18 433.80 318.56
  Q 433.60 318.05 433.05 318.05
  Q 426.25 318.06 419.43 318.03
  C 416.38 318.01 413.99 318.25 411.73 316.18
  Q 409.87 314.48 408.80 311.14
  Q 406.66 304.49 404.29 298.18
  A 0.51 0.50 78.8 0 0 403.82 297.86
  L 392.08 297.86
  A 0.26 0.26 0.0 0 0 391.82 298.12
  Q 391.65 318.82 391.85 336.97
  Q 391.99 349.34 390.27 355.81
  C 384.48 377.61 365.55 391.74 342.63 391.77
  Q 322.28 391.80 298.35 391.77
  Q 297.83 391.76 297.83 392.29
  L 297.83 403.74
  Q 297.83 404.24 298.30 404.40
  Q 305.30 406.74 312.99 409.54
  C 316.43 410.79 318.09 413.73 318.06 417.26
  Q 317.99 425.21 318.05 433.18
  A 0.69 0.68 9.3 0 0 318.51 433.81
  C 324.40 435.90 329.27 440.30 331.88 445.89
  C 339.40 461.99 327.40 480.41 309.43 479.62
  C 294.68 478.96 284.08 464.81 287.56 450.65
  Q 290.50 438.69 302.48 433.81
  Q 303.03 433.58 303.03 432.98
  L 303.03 422.54
  Q 303.03 421.89 302.42 421.68
  Q 295.25 419.21 288.16 416.70
  Q 282.80 414.81 282.81 408.71
  Q 282.83 400.42 282.84 392.37
  Q 282.84 391.78 282.24 391.78
  L 263.99 391.78
  Q 263.50 391.78 263.50 392.26
  L 263.50 465.29
  Q 263.50 465.89 264.06 466.11
  Q 272.92 469.59 276.87 477.38
  Q 280.68 484.90 279.52 491.51
  Q 276.46 509.04 258.15 512.00
  L 253.71 512.00
  C 241.15 510.26 231.62 499.85 232.43 487.28
  Q 233.39 472.36 248.00 466.03
  Q 248.51 465.81 248.51 465.25
  L 248.50 392.52
  A 0.74 0.73 -90.0 0 0 247.77 391.78
  L 229.75 391.78
  Q 229.17 391.77 229.17 392.35
  C 229.19 397.50 228.95 402.98 229.19 408.42
  C 229.40 413.34 226.82 415.82 222.28 417.36
  Q 215.75 419.58 209.51 421.72
  Q 208.97 421.90 208.97 422.48
  L 208.97 433.00
  Q 208.97 433.55 209.48 433.75
  Q 221.52 438.64 224.47 450.75
  C 227.04 461.32 221.73 472.17 211.97 477.16
  C 198.35 484.11 181.45 475.85 178.46 461.30
  Q 175.40 446.44 187.74 436.80
  Q 190.05 435.00 193.34 433.91
  Q 193.87 433.73 193.89 433.17
  Q 194.12 427.16 193.90 421.27
  C 193.71 416.06 193.86 411.36 198.98 409.56
  Q 205.79 407.18 213.56 404.44
  Q 214.17 404.22 214.17 403.57
  L 214.17 392.47
  Q 214.17 391.82 213.52 391.82
  Q 193.15 391.67 173.78 391.85
  Q 162.74 391.96 156.40 390.30
  C 134.76 384.63 120.64 366.07 120.14 343.57
  C 120.03 338.70 122.69 335.26 127.74 334.80
  Q 135.12 335.64 135.26 342.49
  Q 135.41 349.61 136.82 353.98
  C 140.44 365.23 150.03 373.71 161.45 376.07
  Q 164.74 376.75 181.00 376.76
  Q 259.06 376.81 336.38 376.75
  Q 340.22 376.84 343.25 376.85
  C 358.13 376.88 371.04 367.51 375.40 353.23
  Q 376.76 348.81 376.76 338.38
  Q 376.79 272.81 376.76 207.25
  Q 376.76 199.73 384.50 199.02
  C 393.20 200.18 391.55 207.19 391.76 213.49
  Q 391.79 214.15 392.44 214.15
  L 403.68 214.14
  Q 404.24 214.14 404.42 213.61
  Q 406.86 206.60 409.50 199.10
  C 410.79 195.43 413.85 193.86 417.69 193.92
  Q 425.96 194.04 433.07 193.92
  A 0.82 0.82 0.0 0 0 433.82 193.40
  C 439.18 179.40 456.13 172.90 469.11 181.80
  C 479.83 189.14 482.84 202.96 476.00 213.99
  C 471.01 222.05 461.30 226.47 452.10 224.73
  Q 439.01 222.26 433.77 209.49
  Q 433.55 208.95 432.97 208.95
  L 422.51 208.95
  Q 422.00 208.95 421.83 209.42
  Q 419.47 215.65 417.31 222.32
  C 415.99 226.41 413.73 229.14 409.29 229.14
  Q 400.30 229.15 392.37 229.13
  Q 391.77 229.13 391.77 229.73
  L 391.77 248.02
  A 0.50 0.50 0.0 0 0 392.27 248.52
  L 465.29 248.52
  A 0.96 0.95 -79.2 0 0 466.18 247.91
  C 472.01 233.14 488.90 227.80 501.91 236.58
  Q 510.46 242.34 512.00 253.83
  Z
  M 464.64 201.45
  A 8.63 8.63 0.0 0 0 456.01 192.82
  A 8.63 8.63 0.0 0 0 447.38 201.45
  A 8.63 8.63 0.0 0 0 456.01 210.08
  A 8.63 8.63 0.0 0 0 464.64 201.45
  Z
  M 496.97 255.99
  A 8.63 8.63 0.0 0 0 488.34 247.36
  A 8.63 8.63 0.0 0 0 479.71 255.99
  A 8.63 8.63 0.0 0 0 488.34 264.62
  A 8.63 8.63 0.0 0 0 496.97 255.99
  Z
  M 464.64 310.55
  A 8.63 8.63 0.0 0 0 456.01 301.92
  A 8.63 8.63 0.0 0 0 447.38 310.55
  A 8.63 8.63 0.0 0 0 456.01 319.18
  A 8.63 8.63 0.0 0 0 464.64 310.55
  Z
  M 210.08 456.01
  A 8.63 8.63 0.0 0 0 201.45 447.38
  A 8.63 8.63 0.0 0 0 192.82 456.01
  A 8.63 8.63 0.0 0 0 201.45 464.64
  A 8.63 8.63 0.0 0 0 210.08 456.01
  Z
  M 319.17 456.01
  A 8.62 8.62 0.0 0 0 310.55 447.39
  A 8.62 8.62 0.0 0 0 301.93 456.01
  A 8.62 8.62 0.0 0 0 310.55 464.63
  A 8.62 8.62 0.0 0 0 319.17 456.01
  Z
  M 264.63 488.33
  A 8.63 8.63 0.0 0 0 256.00 479.70
  A 8.63 8.63 0.0 0 0 247.37 488.33
  A 8.63 8.63 0.0 0 0 256.00 496.96
  A 8.63 8.63 0.0 0 0 264.63 488.33
  Z"
/>
<circle fill="#ffe07d" cx="55.98" cy="201.45" r="8.63"/>
<circle fill="#ffe07d" cx="456.01" cy="201.45" r="8.63"/>
<path fill="#ddeafb" d="
  M 317.84 220.99
  C 323.87 237.09 322.37 255.54 315.32 270.45
  Q 312.43 276.56 311.74 280.06
  Q 309.29 292.65 318.72 302.85
  A 1.19 1.18 46.3 0 1 318.69 304.49
  L 309.44 313.72
  A 1.20 1.19 -46.6 0 1 307.80 313.77
  Q 301.84 308.44 295.24 312.30
  C 291.46 314.51 290.39 318.58 290.50 322.79
  Q 290.65 328.24 290.51 333.71
  A 1.19 1.19 0.0 0 1 289.32 334.87
  Q 257.50 334.88 224.45 334.88
  Q 223.37 334.88 222.34 334.73
  A 0.96 0.95 2.9 0 1 221.51 333.82
  Q 221.33 328.56 221.50 322.89
  C 221.66 317.69 219.93 313.14 214.79 311.34
  Q 208.95 309.29 204.11 313.86
  A 1.02 1.01 46.8 0 1 202.67 313.81
  L 192.78 303.27
  Q 197.00 303.64 200.79 304.26
  Q 206.88 305.24 208.76 305.40
  Q 225.67 306.82 242.81 302.83
  C 240.42 311.52 242.53 316.73 252.20 317.03
  C 258.16 317.21 270.47 318.33 270.07 308.75
  Q 269.74 300.78 264.82 294.18
  Q 274.01 289.38 281.65 282.69
  Q 291.98 282.53 296.18 273.24
  Q 297.25 270.87 297.48 266.38
  Q 312.74 246.52 316.82 222.26
  Q 316.93 221.64 317.84 220.99
  Z"
/>
<circle fill="#ffe07d" cx="23.66" cy="255.99" r="8.63"/>
<circle fill="#ffe07d" cx="488.34" cy="255.99" r="8.63"/>
<path fill="#000000" d="
  M 231.57 254.12
  C 240.19 257.74 247.28 263.57 242.60 274.11
  C 236.91 286.91 217.54 284.42 215.19 270.79
  Q 214.26 265.38 215.04 258.36
  C 216.13 248.56 225.77 251.68 231.57 254.12
  Z"
/>
<path fill="#000000" d="
  M 297.48 266.38
  Q 297.25 270.87 296.18 273.24
  Q 291.98 282.53 281.65 282.69
  Q 269.66 280.59 268.04 269.76
  C 266.42 259.04 279.31 253.54 287.89 251.83
  Q 295.81 250.24 296.78 258.52
  Q 297.18 261.93 297.48 266.38
  Z"
/>
<path fill="#000000" d="
  M 264.82 294.18
  Q 269.74 300.78 270.07 308.75
  C 270.47 318.33 258.16 317.21 252.20 317.03
  C 242.53 316.73 240.42 311.52 242.81 302.83
  Q 244.73 296.02 249.16 291.90
  Q 257.26 284.39 264.82 294.18
  Z"
/>
<circle fill="#ffe07d" cx="55.98" cy="310.55" r="8.63"/>
<circle fill="#ffe07d" cx="456.01" cy="310.55" r="8.63"/>
<circle fill="#ffe07d" cx="201.45" cy="456.01" r="8.63"/>
<circle fill="#ffe07d" cx="310.55" cy="456.01" r="8.62"/>
<circle fill="#ffe07d" cx="256.00" cy="488.33" r="8.63"/>
</svg>
