<?xml version="1.0" encoding="UTF-8" standalone="no"?>
<!DOCTYPE svg PUBLIC "-//W3C//DTD SVG 1.1//EN" "http://www.w3.org/Graphics/SVG/1.1/DTD/svg11.dtd">
<svg xmlns="http://www.w3.org/2000/svg" version="1.1" viewBox="0.00 0.00 360.00 360.00">
<g stroke-width="2.00" fill="none" stroke-linecap="butt">
<path stroke="#969696" vector-effect="non-scaling-stroke" d="
  M 161.23 85.77
  C 179.79 74.22 203.61 83.61 209.74 104.46
  Q 211.24 109.56 211.05 118.42
  Q 210.88 125.85 211.06 133.80
  Q 211.08 134.45 211.73 134.45
  L 222.78 134.48
  Q 223.65 134.48 223.64 133.60
  Q 223.57 125.83 223.66 117.56
  Q 223.77 107.80 222.01 101.55
  Q 217.65 86.03 205.04 76.88
  C 185.11 62.41 157.48 66.42 142.59 85.92
  Q 132.94 98.56 133.23 116.01
  Q 133.39 125.60 133.26 133.62
  A 0.75 0.75 0.0 0 0 134.01 134.38
  L 145.30 134.30
  A 0.50 0.50 0.0 0 0 145.80 133.80
  Q 145.75 122.89 146.09 111.34
  C 146.39 101.10 152.35 91.30 161.23 85.77"
/>
<path stroke="#169616" vector-effect="non-scaling-stroke" d="
  M 127.17 251.28
  A 0.75 0.74 -78.8 0 1 126.72 250.59
  L 126.70 159.87
  A 0.68 0.67 -0.0 0 1 127.38 159.20
  L 166.84 159.22
  A 0.81 0.81 0.0 0 0 167.66 158.41
  L 167.63 147.26
  Q 167.63 146.64 167.01 146.63
  L 114.41 146.58
  A 0.38 0.37 -90.0 0 0 114.04 146.96
  L 114.06 263.34
  A 0.66 0.66 0.0 0 0 114.72 264.00
  L 167.10 263.99
  A 0.58 0.58 0.0 0 0 167.68 263.41
  L 167.69 252.72
  Q 167.69 251.25 166.22 251.27
  Q 150.60 251.50 127.81 251.41
  Q 127.47 251.41 127.17 251.28"
/>
<path stroke="#169616" vector-effect="non-scaling-stroke" d="
  M 230.21 250.56
  A 0.76 0.76 0.0 0 1 229.45 251.32
  L 189.85 251.31
  A 0.76 0.76 0.0 0 0 189.09 252.08
  L 189.21 263.22
  A 0.76 0.76 0.0 0 0 189.97 263.97
  L 242.03 264.01
  A 0.76 0.76 0.0 0 0 242.79 263.25
  L 242.80 147.39
  A 0.76 0.76 0.0 0 0 242.04 146.63
  L 189.89 146.49
  A 0.76 0.76 0.0 0 0 189.13 147.25
  L 189.16 158.48
  A 0.76 0.76 0.0 0 0 189.92 159.24
  L 229.52 159.21
  A 0.76 0.76 0.0 0 1 230.28 159.97
  L 230.21 250.56"
/>
<path stroke="#969696" vector-effect="non-scaling-stroke" d="
  M 139.09 171.75
  L 139.05 238.00
  Q 139.05 238.95 140.00 238.95
  L 145.78 238.93
  Q 146.79 238.93 146.60 237.93
  Q 145.86 234.07 145.85 231.44
  Q 145.73 205.27 145.79 171.72
  Q 145.79 171.52 145.59 171.52
  L 139.33 171.51
  Q 139.09 171.51 139.09 171.75"
/>
<path stroke="#969696" vector-effect="non-scaling-stroke" d="
  M 210.96 232.75
  Q 210.96 234.34 210.23 238.04
  Q 210.05 238.98 211.00 238.98
  L 216.79 239.00
  A 1.04 1.04 0.0 0 0 217.83 237.96
  L 217.67 171.75
  Q 217.67 171.54 217.46 171.54
  L 211.34 171.48
  Q 211.10 171.48 211.10 171.72
  Q 211.06 202.29 210.96 232.75"
/>
</g>
<path fill="#2c2c2c" d="
  M 0.00 0.00
  L 360.00 0.00
  L 360.00 360.00
  L 0.00 360.00
  L 0.00 0.00
  Z
  M 161.23 85.77
  C 179.79 74.22 203.61 83.61 209.74 104.46
  Q 211.24 109.56 211.05 118.42
  Q 210.88 125.85 211.06 133.80
  Q 211.08 134.45 211.73 134.45
  L 222.78 134.48
  Q 223.65 134.48 223.64 133.60
  Q 223.57 125.83 223.66 117.56
  Q 223.77 107.80 222.01 101.55
  Q 217.65 86.03 205.04 76.88
  C 185.11 62.41 157.48 66.42 142.59 85.92
  Q 132.94 98.56 133.23 116.01
  Q 133.39 125.60 133.26 133.62
  A 0.75 0.75 0.0 0 0 134.01 134.38
  L 145.30 134.30
  A 0.50 0.50 0.0 0 0 145.80 133.80
  Q 145.75 122.89 146.09 111.34
  C 146.39 101.10 152.35 91.30 161.23 85.77
  Z
  M 127.17 251.28
  A 0.75 0.74 -78.8 0 1 126.72 250.59
  L 126.70 159.87
  A 0.68 0.67 -0.0 0 1 127.38 159.20
  L 166.84 159.22
  A 0.81 0.81 0.0 0 0 167.66 158.41
  L 167.63 147.26
  Q 167.63 146.64 167.01 146.63
  L 114.41 146.58
  A 0.38 0.37 -90.0 0 0 114.04 146.96
  L 114.06 263.34
  A 0.66 0.66 0.0 0 0 114.72 264.00
  L 167.10 263.99
  A 0.58 0.58 0.0 0 0 167.68 263.41
  L 167.69 252.72
  Q 167.69 251.25 166.22 251.27
  Q 150.60 251.50 127.81 251.41
  Q 127.47 251.41 127.17 251.28
  Z
  M 230.21 250.56
  A 0.76 0.76 0.0 0 1 229.45 251.32
  L 189.85 251.31
  A 0.76 0.76 0.0 0 0 189.09 252.08
  L 189.21 263.22
  A 0.76 0.76 0.0 0 0 189.97 263.97
  L 242.03 264.01
  A 0.76 0.76 0.0 0 0 242.79 263.25
  L 242.80 147.39
  A 0.76 0.76 0.0 0 0 242.04 146.63
  L 189.89 146.49
  A 0.76 0.76 0.0 0 0 189.13 147.25
  L 189.16 158.48
  A 0.76 0.76 0.0 0 0 189.92 159.24
  L 229.52 159.21
  A 0.76 0.76 0.0 0 1 230.28 159.97
  L 230.21 250.56
  Z
  M 139.09 171.75
  L 139.05 238.00
  Q 139.05 238.95 140.00 238.95
  L 145.78 238.93
  Q 146.79 238.93 146.60 237.93
  Q 145.86 234.07 145.85 231.44
  Q 145.73 205.27 145.79 171.72
  Q 145.79 171.52 145.59 171.52
  L 139.33 171.51
  Q 139.09 171.51 139.09 171.75
  Z
  M 210.96 232.75
  Q 210.96 234.34 210.23 238.04
  Q 210.05 238.98 211.00 238.98
  L 216.79 239.00
  A 1.04 1.04 0.0 0 0 217.83 237.96
  L 217.67 171.75
  Q 217.67 171.54 217.46 171.54
  L 211.34 171.48
  Q 211.10 171.48 211.10 171.72
  Q 211.06 202.29 210.96 232.75
  Z"
/>
<path fill="#ffffff" d="
  M 209.74 104.46
  C 203.61 83.61 179.79 74.22 161.23 85.77
  C 152.35 91.30 146.39 101.10 146.09 111.34
  Q 145.75 122.89 145.80 133.80
  A 0.50 0.50 0.0 0 1 145.30 134.30
  L 134.01 134.38
  A 0.75 0.75 0.0 0 1 133.26 133.62
  Q 133.39 125.60 133.23 116.01
  Q 132.94 98.56 142.59 85.92
  C 157.48 66.42 185.11 62.41 205.04 76.88
  Q 217.65 86.03 222.01 101.55
  Q 223.77 107.80 223.66 117.56
  Q 223.57 125.83 223.64 133.60
  Q 223.65 134.48 222.78 134.48
  L 211.73 134.45
  Q 211.08 134.45 211.06 133.80
  Q 210.88 125.85 211.05 118.42
  Q 211.24 109.56 209.74 104.46
  Z"
/>
<path fill="#00ff00" d="
  M 127.17 251.28
  Q 127.47 251.41 127.81 251.41
  Q 150.60 251.50 166.22 251.27
  Q 167.69 251.25 167.69 252.72
  L 167.68 263.41
  A 0.58 0.58 0.0 0 1 167.10 263.99
  L 114.72 264.00
  A 0.66 0.66 0.0 0 1 114.06 263.34
  L 114.04 146.96
  A 0.38 0.37 -90.0 0 1 114.41 146.58
  L 167.01 146.63
  Q 167.63 146.64 167.63 147.26
  L 167.66 158.41
  A 0.81 0.81 0.0 0 1 166.84 159.22
  L 127.38 159.20
  A 0.68 0.67 -0.0 0 0 126.70 159.87
  L 126.72 250.59
  A 0.75 0.74 -78.8 0 0 127.17 251.28
  Z"
/>
<path fill="#00ff00" d="
  M 230.21 250.56
  L 230.28 159.97
  A 0.76 0.76 0.0 0 0 229.52 159.21
  L 189.92 159.24
  A 0.76 0.76 0.0 0 1 189.16 158.48
  L 189.13 147.25
  A 0.76 0.76 0.0 0 1 189.89 146.49
  L 242.04 146.63
  A 0.76 0.76 0.0 0 1 242.80 147.39
  L 242.79 263.25
  A 0.76 0.76 0.0 0 1 242.03 264.01
  L 189.97 263.97
  A 0.76 0.76 0.0 0 1 189.21 263.22
  L 189.09 252.08
  A 0.76 0.76 0.0 0 1 189.85 251.31
  L 229.45 251.32
  A 0.76 0.76 0.0 0 0 230.21 250.56
  Z"
/>
<path fill="#ffffff" d="
  M 139.09 171.75
  Q 139.09 171.51 139.33 171.51
  L 145.59 171.52
  Q 145.79 171.52 145.79 171.72
  Q 145.73 205.27 145.85 231.44
  Q 145.86 234.07 146.60 237.93
  Q 146.79 238.93 145.78 238.93
  L 140.00 238.95
  Q 139.05 238.95 139.05 238.00
  L 139.09 171.75
  Z"
/>
<path fill="#ffffff" d="
  M 210.96 232.75
  Q 211.06 202.29 211.10 171.72
  Q 211.10 171.48 211.34 171.48
  L 217.46 171.54
  Q 217.67 171.54 217.67 171.75
  L 217.83 237.96
  A 1.04 1.04 0.0 0 1 216.79 239.00
  L 211.00 238.98
  Q 210.05 238.98 210.23 238.04
  Q 210.96 234.34 210.96 232.75
  Z"
/>
</svg>
