<?xml version="1.0" encoding="UTF-8" standalone="no"?>
<!DOCTYPE svg PUBLIC "-//W3C//DTD SVG 1.1//EN" "http://www.w3.org/Graphics/SVG/1.1/DTD/svg11.dtd">
<svg xmlns="http://www.w3.org/2000/svg" version="1.1" viewBox="0.00 0.00 512.00 512.00">
<path fill="#000000" d="
  M 324.50 339.00
  L 187.04 339.00
  A 0.22 0.22 0.0 0 0 186.82 339.22
  Q 186.81 414.57 186.83 490.79
  C 186.83 500.52 172.99 500.37 172.99 491.11
  Q 172.99 414.91 172.99 339.86
  A 0.85 0.85 0.0 0 0 172.14 339.01
  Q 97.09 339.00 20.94 338.99
  C 11.56 338.98 11.56 325.23 21.00 325.23
  Q 96.76 325.22 172.48 325.22
  A 0.52 0.51 -90.0 0 0 172.99 324.70
  L 172.99 186.96
  A 0.21 0.21 0.0 0 0 172.78 186.75
  Q 97.38 186.79 22.49 186.83
  Q 18.66 186.84 16.86 185.56
  C 12.32 182.33 13.07 175.09 18.46 173.47
  Q 20.10 172.98 21.60 172.99
  Q 98.55 173.04 172.23 172.98
  A 0.76 0.75 -0.0 0 0 172.99 172.23
  Q 172.98 100.18 173.00 20.66
  C 173.00 11.77 186.79 11.53 186.79 20.99
  Q 186.80 97.26 186.79 172.75
  A 0.25 0.25 0.0 0 0 187.04 173.00
  L 324.75 173.00
  A 0.47 0.46 0.0 0 0 325.22 172.54
  Q 325.22 157.12 325.18 140.83
  C 325.16 130.59 339.18 130.52 339.08 141.45
  Q 338.92 157.67 339.06 172.74
  A 0.24 0.24 0.0 0 0 339.30 172.98
  Q 413.86 173.08 488.78 172.93
  Q 493.20 172.92 494.93 174.06
  C 500.74 177.88 498.19 186.78 490.97 186.78
  Q 414.59 186.78 339.27 186.78
  A 0.26 0.26 0.0 0 0 339.01 187.04
  L 339.01 324.74
  A 0.48 0.47 0.0 0 0 339.49 325.21
  Q 413.58 325.23 491.23 325.21
  C 500.33 325.21 500.27 338.98 491.35 338.98
  Q 415.04 339.01 339.59 338.98
  Q 339.01 338.98 339.01 339.57
  Q 339.02 414.98 339.00 491.18
  C 339.00 500.29 325.14 500.93 325.16 490.00
  Q 325.30 421.11 325.13 339.62
  Q 325.13 339.00 324.50 339.00
  Z
  M 325.21 187.08
  A 0.30 0.30 0.0 0 0 324.91 186.78
  L 187.09 186.78
  A 0.30 0.30 0.0 0 0 186.79 187.08
  L 186.79 324.92
  A 0.30 0.30 0.0 0 0 187.09 325.22
  L 324.91 325.22
  A 0.30 0.30 0.0 0 0 325.21 324.92
  L 325.21 187.08
  Z"
/>
<rect fill="#000000" x="-6.88" y="-20.66" transform="translate(332.11,34.59) rotate(0.1)" width="13.76" height="41.32" rx="6.64"/>
<path fill="#e94142" d="
  M 426.25 96.41
  Q 426.21 96.83 426.48 97.08
  Q 438.06 108.27 450.65 121.16
  C 454.42 125.02 457.20 129.24 453.10 134.31
  C 449.94 138.22 444.90 137.23 441.68 134.12
  Q 428.86 121.74 416.37 108.77
  Q 415.05 107.41 413.72 108.76
  Q 400.61 122.08 387.76 134.70
  Q 384.50 137.90 380.22 136.43
  C 375.34 134.74 373.16 128.56 377.04 124.54
  Q 389.64 111.52 403.40 98.11
  Q 404.60 96.94 403.39 95.77
  Q 392.69 85.41 380.28 72.89
  C 377.41 69.99 373.42 65.76 375.64 61.44
  C 377.21 58.40 382.65 54.92 385.98 57.82
  Q 400.64 70.57 414.83 85.49
  A 0.84 0.83 45.2 0 0 416.03 85.50
  Q 427.79 73.50 440.71 60.73
  C 444.46 57.03 448.72 54.70 453.17 59.50
  C 456.76 63.39 455.00 67.53 451.86 70.71
  Q 439.70 83.00 426.44 96.00
  A 0.66 0.66 0.0 0 0 426.25 96.41
  Z"
/>
<rect fill="#000000" x="325.25" y="76.22" width="13.72" height="29.20" rx="6.54"/>
<path fill="#0086f4" d="
  M 143.56 249.04
  A 43.27 43.27 0.0 0 1 100.29 292.31
  A 43.27 43.27 0.0 0 1 57.02 249.04
  A 43.27 43.27 0.0 0 1 100.29 205.77
  A 43.27 43.27 0.0 0 1 143.56 249.04
  Z
  M 128.58 249.08
  A 28.25 28.25 0.0 0 0 100.33 220.83
  A 28.25 28.25 0.0 0 0 72.08 249.08
  A 28.25 28.25 0.0 0 0 100.33 277.33
  A 28.25 28.25 0.0 0 0 128.58 249.08
  Z"
/>
<path fill="#0086f4" d="
  M 299.28 415.10
  A 43.30 43.30 0.0 0 1 255.98 458.40
  A 43.30 43.30 0.0 0 1 212.68 415.10
  A 43.30 43.30 0.0 0 1 255.98 371.80
  A 43.30 43.30 0.0 0 1 299.28 415.10
  Z
  M 284.21 415.09
  A 28.22 28.22 0.0 0 0 255.99 386.87
  A 28.22 28.22 0.0 0 0 227.77 415.09
  A 28.22 28.22 0.0 0 0 255.99 443.31
  A 28.22 28.22 0.0 0 0 284.21 415.09
  Z"
/>
</svg>
