<?xml version="1.0" encoding="UTF-8" standalone="no"?>
<!DOCTYPE svg PUBLIC "-//W3C//DTD SVG 1.1//EN" "http://www.w3.org/Graphics/SVG/1.1/DTD/svg11.dtd">
<svg xmlns="http://www.w3.org/2000/svg" version="1.1" viewBox="0.00 0.00 512.00 512.00">
<path fill="#000000" fill-opacity="0.882" d="
  M 512.00 224.78
  L 512.00 240.36
  Q 511.56 244.66 511.51 249.01
  Q 511.50 249.89 510.51 251.56
  Q 510.26 251.98 510.47 252.43
  Q 511.12 253.80 511.03 254.75
  C 505.40 318.62 476.43 377.46 429.36 420.85
  C 359.69 485.08 260.24 505.29 170.70 474.18
  Q 160.77 470.73 151.96 466.75
  Q 77.62 433.23 35.63 362.81
  Q 9.18 318.44 2.24 266.50
  A 1.87 1.85 -35.2 0 1 2.44 265.38
  Q 3.21 263.88 2.08 262.61
  A 1.93 1.90 22.5 0 1 1.61 261.50
  L 0.00 240.49
  L 0.00 226.39
  Q 0.64 208.05 3.55 189.96
  Q 3.79 188.41 4.39 187.08
  C 4.98 185.75 4.46 184.68 4.74 183.31
  Q 13.50 139.21 36.52 100.77
  C 37.94 98.39 40.57 97.44 42.94 96.40
  Q 43.42 96.19 43.68 95.75
  Q 47.35 89.71 51.02 84.10
  Q 52.26 82.20 57.10 80.65
  A 1.23 1.22 10.9 0 0 57.71 80.24
  L 62.95 73.74
  A 1.47 1.44 65.2 0 0 63.26 72.87
  Q 63.30 68.93 65.45 66.31
  Q 71.44 58.98 80.65 50.52
  Q 81.71 49.54 83.05 49.10
  C 88.60 47.27 93.39 43.87 97.95 40.42
  Q 99.85 38.98 100.94 37.02
  Q 105.83 28.24 117.53 26.16
  C 120.72 25.59 122.09 26.66 123.71 29.26
  Q 124.01 29.75 124.53 29.51
  Q 129.43 27.24 134.27 26.18
  A 2.84 2.83 67.9 0 1 137.29 27.46
  L 141.20 33.78
  A 2.70 2.70 0.0 0 1 141.35 36.38
  C 138.05 43.38 134.81 51.13 129.14 56.64
  Q 125.63 60.05 120.86 59.21
  Q 120.07 59.08 120.56 59.71
  L 123.71 63.71
  A 3.34 3.29 -62.1 0 1 124.40 66.01
  C 123.89 72.73 121.15 79.23 117.87 84.99
  Q 112.81 93.87 109.37 102.12
  Q 108.23 104.85 107.69 107.87
  Q 107.57 108.50 108.18 108.28
  C 112.78 106.62 115.81 109.31 119.02 112.12
  Q 121.34 114.15 122.27 116.64
  C 125.28 124.64 123.54 133.13 117.49 139.29
  Q 116.90 139.89 117.74 139.86
  Q 131.87 139.32 145.38 134.42
  Q 150.36 132.62 154.66 129.48
  Q 155.65 128.76 154.71 127.98
  C 150.82 124.70 146.84 120.09 152.36 115.59
  Q 161.47 108.16 172.66 107.24
  C 177.02 106.87 179.73 110.10 181.58 113.71
  C 182.25 115.04 181.97 116.54 181.24 117.77
  Q 180.32 119.33 182.11 119.07
  Q 193.13 117.49 203.64 114.33
  Q 221.10 109.09 243.44 101.84
  A 0.38 0.38 0.0 0 0 243.63 101.25
  C 240.83 97.43 236.58 94.79 233.01 99.73
  C 229.65 104.39 225.29 107.07 219.30 107.05
  C 212.07 107.03 210.70 102.08 209.52 96.25
  Q 206.34 80.45 205.33 71.53
  Q 205.05 69.04 207.49 68.71
  Q 222.23 66.69 236.35 61.03
  Q 236.89 60.82 236.77 60.25
  Q 236.02 56.65 235.86 52.42
  C 235.58 44.87 243.56 40.14 250.00 39.09
  Q 258.03 37.77 266.18 39.23
  Q 269.78 39.87 271.33 42.83
  C 272.63 45.31 271.88 48.56 272.07 51.31
  Q 272.12 51.89 272.70 51.96
  Q 279.37 52.76 284.47 51.35
  Q 312.14 43.69 340.02 34.87
  Q 351.09 31.36 360.04 33.00
  Q 363.82 33.70 366.12 37.65
  Q 366.51 38.32 366.65 37.56
  L 366.79 36.79
  Q 366.90 36.19 367.22 35.67
  L 371.42 28.93
  A 4.56 4.53 -78.0 0 1 374.62 26.84
  C 378.64 26.25 384.02 25.74 387.57 23.70
  Q 388.00 23.45 388.50 23.51
  Q 391.80 23.92 393.89 25.59
  Q 403.08 32.95 413.43 40.84
  Q 413.93 41.22 414.55 41.17
  C 423.08 40.47 431.83 49.37 436.41 55.89
  C 438.22 58.46 437.86 61.71 439.94 64.19
  Q 446.13 71.57 451.74 78.63
  Q 452.25 79.28 452.86 78.72
  C 454.06 77.60 455.67 76.58 457.36 77.36
  C 458.99 78.12 460.27 78.32 461.44 79.91
  Q 488.71 116.94 501.86 161.00
  Q 502.15 161.98 501.90 162.97
  Q 501.60 164.12 502.59 165.04
  A 2.75 2.71 14.4 0 1 503.35 166.31
  Q 510.84 195.04 512.00 224.78
  Z
  M 416.16 46.53
  Q 414.70 47.71 413.26 46.69
  Q 402.52 39.09 390.56 29.26
  A 2.16 2.15 54.5 0 0 388.44 28.90
  Q 383.84 30.62 378.66 31.16
  Q 376.18 31.42 378.23 32.85
  Q 382.10 35.54 385.32 38.19
  C 388.79 41.02 387.06 44.64 383.99 46.48
  C 376.21 51.15 366.45 49.49 362.19 40.80
  C 361.41 39.22 360.23 37.76 358.32 37.58
  Q 350.14 36.82 341.15 39.69
  Q 330.80 43.01 320.02 46.31
  Q 319.42 46.49 319.71 47.05
  C 322.19 51.72 324.68 58.08 329.76 60.39
  C 333.34 62.03 337.76 59.36 340.53 57.29
  Q 342.26 55.98 344.23 55.77
  C 354.15 54.66 358.58 61.19 362.27 69.00
  C 364.00 72.65 364.16 79.18 360.41 81.59
  C 356.36 84.19 352.33 83.15 348.02 82.04
  Q 345.48 81.39 343.92 82.96
  Q 339.83 87.06 342.59 91.37
  C 348.68 100.87 357.44 110.30 364.75 118.55
  Q 365.15 119.00 365.71 118.79
  Q 378.71 113.92 384.11 110.81
  Q 390.06 107.38 396.67 103.38
  C 401.96 100.17 408.85 97.44 414.35 101.46
  Q 416.38 102.93 416.86 105.11
  C 418.16 110.96 420.04 116.13 426.99 116.49
  C 432.22 116.77 443.82 113.85 438.89 105.99
  C 437.14 103.21 427.52 95.93 434.47 92.92
  Q 442.53 89.42 451.33 87.07
  A 0.50 0.50 0.0 0 0 451.58 86.25
  C 448.03 82.29 444.97 77.80 441.41 73.73
  Q 437.32 69.06 433.36 63.46
  Q 433.07 63.05 433.12 62.55
  Q 433.46 59.19 430.57 56.17
  Q 426.09 51.48 422.35 48.58
  Q 420.98 47.53 418.69 47.60
  A 1.40 1.39 -16.2 0 1 417.44 46.92
  Q 416.88 45.95 416.16 46.53
  Z
  M 108.55 39.07
  Q 108.16 38.40 108.61 37.82
  Q 110.55 35.30 112.78 33.23
  Q 113.72 32.36 112.54 32.87
  Q 107.56 35.04 105.47 39.27
  Q 104.46 41.32 102.82 42.74
  Q 94.23 50.20 86.14 53.25
  Q 83.92 54.09 82.10 55.84
  Q 75.11 62.60 69.38 69.35
  C 67.45 71.63 69.74 72.95 68.05 75.21
  Q 63.05 81.89 59.41 85.51
  Q 59.06 85.87 58.56 85.87
  Q 55.80 85.86 54.58 87.74
  Q 51.11 93.04 47.52 99.06
  C 47.01 99.92 46.17 100.52 45.27 100.91
  Q 44.24 101.36 45.36 101.41
  Q 46.78 101.47 48.31 101.98
  C 51.24 102.95 54.66 101.56 57.64 100.39
  C 60.64 99.22 60.85 96.38 61.74 93.78
  C 63.79 87.75 69.37 81.09 76.45 81.06
  C 79.11 81.05 80.22 83.10 79.16 85.41
  Q 76.64 90.91 72.58 96.46
  A 1.09 1.08 -46.5 0 0 72.61 97.79
  Q 73.26 98.59 74.22 98.26
  Q 86.70 94.00 99.09 91.80
  A 0.79 0.75 7.5 0 0 99.64 91.40
  Q 103.90 83.36 107.91 75.83
  Q 111.39 69.27 112.74 63.04
  Q 113.64 58.87 110.15 61.32
  C 107.79 62.97 106.03 65.05 102.80 64.70
  A 2.37 2.36 -2.5 0 1 100.74 62.82
  Q 100.36 60.95 101.22 58.93
  C 103.85 52.82 110.81 44.86 118.21 47.20
  A 2.14 2.14 0.0 0 0 120.47 46.56
  Q 125.16 41.06 128.38 33.81
  Q 128.68 33.13 128.00 33.42
  C 126.07 34.22 123.12 36.43 121.21 34.50
  Q 120.77 34.06 120.23 34.36
  Q 115.25 37.11 109.44 39.38
  A 0.73 0.73 0.0 0 1 108.55 39.07
  Z
  M 247.45 58.77
  L 244.17 61.33
  Q 243.76 61.65 243.48 62.08
  Q 242.36 63.79 240.09 64.77
  Q 225.75 70.96 211.70 73.03
  A 0.46 0.46 0.0 0 0 211.31 73.56
  Q 212.85 82.55 214.19 91.28
  C 214.59 93.91 215.73 96.97 219.18 95.91
  C 221.81 95.11 224.55 93.74 226.28 91.52
  C 229.64 87.20 233.93 84.56 239.64 85.74
  C 245.90 87.05 250.74 95.38 252.14 101.18
  C 254.52 111.00 244.06 116.98 235.67 116.00
  C 231.92 115.56 223.59 115.41 223.28 120.50
  Q 223.07 123.78 223.44 127.08
  Q 225.19 142.98 229.37 158.18
  Q 229.54 158.79 230.16 158.70
  Q 256.75 155.06 278.06 149.13
  Q 281.62 148.14 284.49 145.48
  C 286.72 143.41 286.91 139.89 283.27 139.25
  C 277.62 138.25 273.11 137.38 269.62 132.30
  C 267.57 129.32 267.74 125.05 270.22 122.43
  Q 272.74 119.78 276.86 117.20
  Q 291.31 108.15 307.48 111.53
  Q 311.00 112.26 313.41 113.96
  C 319.33 118.13 306.76 130.55 315.26 131.94
  Q 318.97 132.55 323.57 131.80
  C 335.51 129.88 348.25 124.70 360.10 120.80
  A 0.38 0.38 0.0 0 0 360.27 120.19
  Q 350.23 108.81 338.31 93.04
  C 333.97 87.29 337.49 78.02 344.68 77.58
  C 347.66 77.39 350.38 78.77 353.33 78.93
  C 359.34 79.25 359.94 72.97 357.63 68.95
  Q 355.31 64.91 352.55 61.27
  C 350.61 58.70 346.86 58.54 344.51 60.78
  Q 342.54 62.64 339.41 63.82
  C 327.24 68.39 319.44 57.71 315.01 48.43
  Q 314.70 47.78 314.00 47.99
  Q 301.11 51.83 287.01 55.85
  C 282.20 57.23 277.52 57.49 272.63 56.86
  Q 270.10 56.54 269.09 55.65
  Q 264.32 51.44 265.89 45.25
  A 0.94 0.94 0.0 0 0 265.13 44.09
  C 258.23 42.89 246.10 42.47 241.68 49.33
  A 1.11 1.10 37.3 0 0 241.88 50.75
  L 247.54 55.73
  A 1.98 1.98 0.0 0 1 247.45 58.77
  Z
  M 26.68 136.65
  Q 25.17 145.43 21.42 155.44
  Q 20.13 158.89 18.08 161.65
  A 1.05 1.05 0.0 0 1 16.22 161.29
  Q 16.13 160.94 16.02 160.59
  Q 15.75 159.65 15.47 160.59
  Q 12.70 170.24 10.35 180.99
  Q 10.21 181.65 10.87 181.58
  Q 11.11 181.56 11.35 181.59
  C 13.48 181.86 16.80 183.69 18.95 184.77
  C 26.05 188.36 31.77 181.38 32.13 174.99
  C 32.55 167.44 30.91 159.10 40.09 156.28
  C 47.91 153.88 51.62 160.56 48.63 167.08
  Q 46.84 170.99 44.80 174.84
  C 42.26 179.66 45.54 182.99 50.32 183.19
  Q 61.99 183.66 75.88 180.51
  Q 76.53 180.36 76.43 179.70
  Q 75.81 175.80 75.35 171.32
  C 74.05 158.60 77.52 143.56 87.67 134.77
  C 94.19 129.14 100.00 136.47 106.51 132.60
  C 112.71 128.91 113.16 119.66 110.67 113.69
  A 1.01 1.00 65.7 0 0 109.30 113.17
  C 107.93 113.83 105.91 114.71 104.37 114.33
  C 102.86 113.96 101.51 114.65 100.00 114.23
  C 92.44 112.15 95.56 102.30 97.48 96.99
  A 0.39 0.39 0.0 0 0 97.04 96.47
  Q 85.07 98.69 73.99 102.09
  Q 72.54 102.53 71.10 102.12
  C 65.77 100.61 74.81 89.17 76.08 87.26
  A 1.30 1.30 0.0 0 0 75.15 85.25
  C 67.86 84.42 65.41 89.83 63.48 95.58
  C 61.34 101.94 53.38 108.00 46.47 106.73
  C 44.39 106.34 42.07 105.67 39.98 106.28
  A 1.43 1.39 7.6 0 0 39.20 106.86
  Q 30.48 120.29 25.39 134.99
  Q 25.14 135.71 25.86 135.61
  Q 26.06 135.58 26.26 135.70
  Q 26.79 136.03 26.68 136.65
  Z
  M 473.55 110.95
  C 473.33 109.29 472.35 108.50 472.70 106.64
  Q 472.81 106.07 472.50 105.58
  L 461.39 88.23
  Q 461.14 87.84 460.75 88.10
  L 459.01 89.22
  Q 458.61 89.49 458.86 89.90
  Q 465.73 101.27 472.92 111.20
  Q 473.74 112.34 473.55 110.95
  Z
  M 475.59 115.95
  Q 473.49 114.27 471.67 111.65
  Q 463.97 100.55 457.63 90.53
  A 0.62 0.61 63.4 0 0 456.89 90.28
  Q 446.91 94.05 435.62 97.16
  A 0.87 0.87 0.0 0 0 435.23 98.60
  C 438.77 102.22 443.72 106.73 443.33 112.08
  C 442.89 118.31 434.53 121.24 429.38 120.79
  Q 415.28 119.56 413.52 104.89
  A 1.62 1.61 -7.3 0 0 411.69 103.48
  C 404.19 104.57 397.52 109.15 391.08 113.11
  C 384.42 117.20 376.97 120.47 369.73 123.11
  A 0.39 0.39 0.0 0 0 369.57 123.73
  C 373.19 127.95 377.43 133.08 379.22 138.28
  C 380.44 141.83 383.02 150.89 380.21 154.02
  Q 378.13 156.31 374.44 156.62
  Q 369.66 157.01 365.50 157.15
  C 363.99 157.20 362.14 157.82 361.37 159.32
  C 357.53 166.71 362.90 177.50 368.12 183.26
  C 371.40 186.88 377.84 183.88 381.15 181.92
  C 383.56 180.50 385.25 177.31 385.88 174.38
  C 387.44 167.15 397.25 168.86 400.73 173.27
  Q 403.13 176.31 405.32 180.39
  C 411.00 190.98 415.58 203.21 415.51 215.33
  A 0.43 0.43 0.0 0 0 416.14 215.71
  C 430.02 208.26 441.88 197.86 453.40 187.60
  Q 456.64 184.71 460.69 182.70
  C 469.13 178.50 472.61 196.02 473.00 201.17
  Q 473.20 203.94 473.54 206.46
  A 2.24 2.24 0.0 0 0 476.22 208.36
  Q 482.48 207.03 485.00 202.89
  C 488.02 197.91 486.58 190.20 483.67 185.45
  C 480.88 180.91 478.48 176.20 481.16 170.98
  C 482.79 167.79 486.06 164.89 489.72 164.07
  Q 491.65 163.64 493.62 162.98
  Q 495.28 162.42 494.68 160.77
  Q 490.01 148.05 484.87 134.95
  Q 483.85 132.35 484.58 129.75
  Q 484.71 129.27 484.50 128.81
  Q 480.31 119.76 476.34 112.50
  Q 474.93 109.92 475.58 112.79
  L 476.20 115.57
  Q 476.44 116.62 475.59 115.95
  Z
  M 359.15 215.85
  C 368.91 220.14 363.83 232.43 359.34 238.29
  Q 358.25 239.71 360.02 239.42
  Q 363.46 238.83 367.46 237.40
  Q 388.72 229.79 410.94 218.33
  Q 411.48 218.05 411.43 217.44
  Q 411.15 214.23 410.83 210.95
  Q 409.46 197.01 403.01 185.67
  Q 400.79 181.78 398.53 177.61
  Q 396.19 173.29 391.32 175.33
  A 1.58 1.57 84.5 0 0 390.40 176.45
  Q 388.17 187.22 376.52 189.86
  Q 373.17 190.62 370.74 190.08
  C 361.46 188.05 356.01 174.90 355.11 166.55
  C 354.45 160.49 355.97 153.69 362.93 152.32
  C 366.72 151.58 370.85 151.59 374.63 151.41
  A 2.45 2.45 0.0 0 0 376.93 148.59
  Q 374.84 135.10 365.14 125.18
  Q 364.83 124.86 364.41 125.01
  C 352.70 129.24 340.48 133.83 328.08 136.11
  Q 319.45 137.69 312.86 135.38
  C 304.57 132.46 309.01 124.59 310.85 119.29
  C 311.80 116.55 309.56 115.58 307.40 115.35
  Q 290.70 113.60 275.85 123.23
  C 273.27 124.91 271.22 127.35 274.00 130.36
  C 276.51 133.07 280.41 134.20 283.96 134.88
  C 289.05 135.85 292.27 140.01 289.97 145.25
  Q 288.19 149.31 285.67 151.05
  Q 281.52 153.93 275.55 155.41
  Q 253.40 160.90 231.56 163.92
  Q 230.91 164.01 231.11 164.63
  C 234.15 174.38 237.51 184.97 238.49 195.23
  Q 239.24 203.07 233.44 206.58
  C 228.15 209.77 223.49 210.28 217.56 208.47
  Q 211.25 206.56 205.24 208.09
  C 195.10 210.70 197.63 227.22 200.15 234.23
  C 201.57 238.18 208.30 245.02 212.06 238.95
  C 213.63 236.42 215.17 234.00 218.03 232.75
  C 228.98 227.97 238.54 231.25 246.42 239.57
  C 254.99 248.60 256.35 264.22 255.98 275.94
  Q 255.96 276.53 256.55 276.50
  Q 269.18 275.87 280.90 274.72
  Q 294.42 273.38 304.41 268.90
  Q 312.56 265.24 320.72 260.39
  C 324.40 258.20 325.56 253.85 321.44 251.14
  C 316.99 248.21 310.76 246.03 309.80 240.29
  C 308.73 233.85 316.76 226.66 321.75 223.91
  Q 334.51 216.91 352.22 214.60
  C 354.36 214.32 357.12 214.96 359.15 215.85
  Z
  M 487.5435 135.2903
  A 0.61 0.61 0.0 0 0 486.7604 134.9285
  L 486.7229 134.9423
  A 0.61 0.61 0.0 0 0 486.3610 135.7254
  L 495.6565 160.9897
  A 0.61 0.61 0.0 0 0 496.4396 161.3515
  L 496.4771 161.3377
  A 0.61 0.61 0.0 0 0 496.8390 160.5546
  L 487.5435 135.2903
  Z
  M 23.26 139.81
  L 23.26 139.28
  Q 23.25 139.08 23.11 139.22
  Q 22.93 139.39 22.84 139.61
  Q 19.87 147.05 17.58 154.04
  Q 17.15 155.33 17.85 156.49
  Q 17.97 156.70 18.12 156.90
  Q 18.94 158.02 19.51 156.75
  Q 22.72 149.55 24.68 141.34
  A 0.80 0.79 37.6 0 0 24.60 140.75
  Q 24.27 140.12 23.79 140.23
  A 0.43 0.43 0.0 0 1 23.26 139.81
  Z
  M 16.65 257.36
  C 16.73 253.65 19.02 250.99 23.10 252.02
  C 36.74 255.48 39.54 267.48 36.55 280.30
  C 34.45 289.26 49.53 294.19 55.72 295.73
  Q 67.58 298.69 78.48 297.25
  Q 79.03 297.18 79.03 296.63
  Q 79.15 278.86 76.51 260.70
  Q 75.86 256.22 74.28 252.40
  C 72.14 247.22 67.63 251.22 65.32 253.50
  C 58.09 260.62 52.06 249.03 51.43 243.53
  C 50.76 237.76 50.66 226.90 54.94 222.14
  C 57.86 218.88 62.87 218.17 66.77 220.53
  C 68.52 221.59 70.92 223.46 72.93 222.09
  C 76.74 219.49 77.75 212.15 77.80 207.86
  Q 77.94 197.09 77.10 186.04
  A 0.32 0.32 0.0 0 0 76.73 185.75
  Q 69.40 186.90 62.47 188.01
  C 56.21 189.02 48.03 189.54 43.08 184.73
  C 38.66 180.45 43.58 170.99 46.06 166.80
  Q 46.81 165.54 46.48 164.04
  C 45.19 158.15 34.19 159.08 34.37 164.88
  Q 34.62 173.26 33.22 179.21
  Q 31.98 184.48 26.49 189.00
  C 21.41 193.18 15.66 189.16 10.85 186.76
  A 0.82 0.81 -59.8 0 0 9.81 187.04
  Q 8.89 188.41 8.62 190.06
  Q 2.63 225.89 6.45 259.91
  Q 6.53 260.63 7.05 261.14
  Q 8.84 262.93 7.88 265.14
  Q 7.62 265.74 8.07 266.21
  C 10.47 268.67 12.99 271.74 16.15 273.36
  A 1.31 1.31 0.0 0 0 18.03 271.93
  Q 16.50 264.41 16.65 257.36
  Z
  M 163.85 180.78
  C 166.18 181.36 167.95 183.87 168.94 186.17
  C 171.08 191.12 170.16 195.67 166.11 199.28
  Q 160.05 204.69 153.16 206.74
  C 142.94 209.78 128.70 211.32 122.45 201.45
  C 118.06 194.51 123.84 187.79 129.26 183.43
  A 0.76 0.76 0.0 0 0 129.09 182.14
  Q 128.16 181.72 127.12 181.67
  Q 105.27 180.49 81.23 184.86
  A 0.41 0.40 82.0 0 0 80.91 185.29
  Q 82.06 196.04 81.39 207.75
  C 81.05 213.77 80.37 219.86 76.62 224.62
  C 72.75 229.52 69.14 227.79 64.81 225.39
  C 61.23 223.41 56.87 224.51 55.58 228.66
  C 53.65 234.81 52.92 244.07 57.45 249.13
  C 60.32 252.33 62.89 249.06 65.11 247.34
  C 75.01 239.65 78.69 252.38 79.88 259.12
  C 82.08 271.60 82.50 283.87 83.09 296.15
  A 0.45 0.44 85.3 0 0 83.59 296.58
  Q 98.26 294.69 116.07 293.15
  Q 122.86 292.56 127.13 293.14
  Q 135.88 294.33 142.05 301.37
  C 145.90 305.77 145.25 311.74 139.98 314.72
  C 135.41 317.31 138.50 322.76 141.99 324.06
  Q 145.72 325.45 150.64 325.01
  Q 164.09 323.80 176.26 319.27
  Q 179.11 318.21 181.57 316.28
  A 2.03 2.02 -34.8 0 0 182.05 313.64
  Q 181.37 312.52 180.39 311.67
  Q 176.97 308.67 173.89 305.82
  C 170.65 302.83 168.26 297.91 173.11 295.06
  Q 176.52 293.06 182.18 291.09
  Q 215.60 279.43 249.86 277.06
  Q 250.23 277.04 250.24 276.67
  C 250.66 265.27 250.08 253.17 242.76 244.00
  Q 234.71 233.91 221.92 237.14
  C 219.26 237.80 218.21 240.16 216.63 242.11
  C 210.65 249.49 202.58 247.44 197.72 240.54
  C 193.32 234.30 192.05 227.32 192.48 219.66
  Q 193.33 204.22 206.89 202.20
  Q 213.65 201.19 220.39 203.41
  Q 222.93 204.25 224.92 203.82
  C 228.56 203.05 233.64 201.35 232.88 196.46
  C 231.22 185.85 228.07 175.56 225.37 165.26
  Q 225.28 164.91 224.92 164.95
  Q 196.37 168.30 170.36 175.40
  Q 166.04 176.58 163.50 179.76
  A 0.64 0.64 0.0 0 0 163.85 180.78
  Z
  M 505.82 228.17
  A 0.90 0.89 47.9 0 1 504.36 228.09
  Q 502.09 224.49 501.50 220.06
  Q 499.99 208.64 500.05 196.76
  A 1.42 1.42 0.0 0 1 502.23 195.57
  L 502.57 195.79
  Q 503.73 196.54 503.60 195.17
  Q 503.35 192.46 502.73 189.65
  Q 500.35 178.78 497.03 167.60
  Q 496.86 167.04 496.35 167.33
  Q 494.36 168.42 492.19 168.87
  C 487.78 169.81 484.29 172.80 482.56 177.01
  Q 482.34 177.54 482.64 178.04
  Q 483.66 179.74 484.68 181.51
  C 489.69 190.18 492.41 205.31 482.44 211.67
  C 477.37 214.91 472.09 214.53 471.03 207.33
  Q 469.97 200.09 468.67 193.64
  C 467.70 188.81 464.64 184.47 459.48 189.01
  Q 447.88 199.23 436.36 209.11
  Q 430.38 214.23 417.26 221.64
  Q 416.80 221.90 416.93 222.41
  C 419.24 231.27 423.28 239.46 427.18 248.15
  Q 428.46 251.01 430.23 251.84
  C 432.46 252.88 438.16 253.40 439.95 250.39
  C 443.00 245.27 445.46 236.44 453.45 237.52
  Q 459.81 238.39 461.92 243.47
  Q 465.47 252.02 463.78 263.03
  C 462.99 268.20 459.12 277.04 453.01 276.53
  Q 448.96 276.19 445.17 276.48
  C 438.32 277.02 437.86 285.14 438.30 290.48
  C 438.82 296.69 441.30 309.20 447.14 312.88
  C 449.04 314.08 450.37 315.75 451.45 317.65
  A 0.41 0.41 0.0 0 0 452.05 317.77
  Q 469.98 304.50 482.71 286.73
  Q 483.59 285.50 484.37 285.48
  Q 485.79 285.44 485.67 286.85
  Q 485.18 292.51 484.28 297.94
  Q 483.94 299.96 484.71 301.94
  Q 484.91 302.47 485.47 302.37
  C 491.29 301.32 494.66 293.25 495.29 288.21
  C 495.56 286.01 494.09 284.38 494.31 282.19
  C 495.37 271.42 499.81 263.41 505.38 254.46
  Q 505.69 253.95 505.45 253.40
  Q 504.47 251.23 506.06 249.22
  Q 506.45 248.73 506.50 248.11
  Q 507.27 237.92 506.89 226.95
  Q 506.89 226.82 506.77 226.76
  L 506.48 226.62
  Q 506.28 226.53 506.29 226.75
  Q 506.31 227.54 505.82 228.17
  Z
  M 498.71 168.37
  Q 498.79 168.14 498.60 167.94
  Q 498.35 167.67 498.28 168.03
  Q 498.14 168.77 498.35 169.54
  Q 498.51 170.07 498.80 169.60
  Q 499.10 169.09 498.76 168.62
  Q 498.67 168.51 498.71 168.37
  Z
  M 503.37 201.28
  L 502.31 200.68
  Q 501.63 200.28 501.61 201.07
  Q 501.34 210.47 502.84 218.98
  Q 503.16 220.73 504.04 222.13
  Q 505.25 224.04 505.71 221.82
  C 506.02 220.29 506.50 218.50 506.42 216.95
  Q 506.03 209.12 504.90 200.70
  Q 504.75 199.57 504.38 200.65
  Q 504.28 200.94 504.08 201.16
  A 0.57 0.57 0.0 0 1 503.37 201.28
  Z
  M 390.20 327.33
  C 400.54 328.78 393.95 343.78 391.18 348.80
  A 1.38 1.38 0.0 0 0 392.32 350.84
  C 402.19 351.34 410.26 348.38 418.86 342.88
  Q 433.71 333.37 447.67 321.41
  A 0.75 0.75 0.0 0 0 447.63 320.24
  C 443.50 317.13 440.58 314.07 438.71 309.03
  Q 434.38 297.34 435.44 284.18
  C 436.00 277.12 440.30 271.13 448.00 271.09
  C 452.06 271.07 457.13 272.31 459.06 267.48
  Q 462.77 258.17 459.59 247.83
  C 458.28 243.57 454.69 242.59 450.75 243.08
  Q 448.18 243.39 446.82 246.04
  Q 444.86 249.84 442.91 253.43
  C 439.88 259.01 431.46 259.45 427.08 256.08
  Q 425.07 254.53 422.66 249.25
  Q 416.53 235.77 412.68 224.32
  A 0.24 0.24 0.0 0 0 412.34 224.18
  C 396.24 232.30 380.14 239.77 362.79 243.54
  C 358.26 244.52 352.76 242.96 354.97 236.81
  Q 356.47 232.62 358.91 227.94
  C 360.76 224.40 360.15 220.41 355.34 220.26
  C 348.97 220.06 341.93 222.10 335.73 224.09
  C 327.24 226.82 320.03 230.20 315.26 237.87
  A 2.53 2.53 0.0 0 0 316.07 241.36
  C 320.54 244.17 326.13 246.48 328.54 251.29
  C 330.85 255.88 328.73 261.58 324.51 264.47
  Q 314.36 271.42 303.60 275.33
  Q 297.87 277.42 289.58 278.98
  C 278.25 281.12 267.52 281.97 256.25 282.27
  A 0.58 0.57 -0.0 0 0 255.68 282.83
  Q 255.24 295.50 257.28 307.82
  Q 258.55 315.48 264.38 322.15
  Q 266.18 324.20 268.66 323.07
  Q 275.49 319.94 279.65 317.14
  C 283.72 314.40 286.29 309.48 291.03 307.55
  Q 296.23 305.43 302.41 306.46
  Q 312.38 308.10 315.32 318.91
  Q 318.11 329.16 315.53 338.22
  Q 312.55 348.65 300.74 346.37
  C 294.47 345.16 286.63 344.68 281.08 348.24
  C 272.92 353.46 267.11 361.92 270.93 371.89
  Q 272.75 376.64 276.12 382.09
  Q 276.36 382.49 276.84 382.47
  Q 291.56 381.78 302.75 380.81
  Q 309.11 380.25 322.33 377.37
  Q 338.80 373.78 352.74 365.25
  A 1.02 1.02 0.0 0 0 352.62 363.45
  C 349.16 361.94 344.33 360.13 342.10 357.08
  C 337.87 351.29 346.32 343.18 350.59 340.40
  Q 364.92 331.04 382.99 327.44
  Q 386.30 326.78 390.20 327.33
  Z
  M 17.75 307.11
  C 21.42 315.33 24.78 323.99 26.80 332.35
  C 27.06 333.41 26.76 334.88 27.18 335.80
  Q 32.34 347.23 38.90 358.69
  C 39.52 359.76 40.61 360.27 40.94 361.48
  C 41.51 363.53 43.56 366.58 45.08 368.09
  Q 49.34 372.30 53.93 375.70
  A 0.46 0.45 -46.6 0 0 54.50 375.68
  L 54.76 375.45
  A 0.29 0.28 48.4 0 0 54.78 375.04
  C 52.31 372.21 48.08 365.92 49.30 362.08
  A 1.99 1.99 0.0 0 1 51.58 360.72
  Q 54.47 361.27 56.91 363.10
  Q 63.43 367.99 68.71 373.88
  Q 73.14 378.81 72.77 384.71
  A 2.20 2.20 0.0 0 0 73.95 386.80
  C 81.35 390.57 89.42 392.20 97.57 393.95
  A 0.39 0.39 0.0 0 0 97.98 393.36
  Q 93.33 385.60 90.36 376.81
  Q 89.22 373.42 89.36 370.03
  C 89.56 365.02 93.67 360.69 98.70 360.94
  Q 101.91 361.11 105.76 363.14
  C 110.65 365.73 124.68 370.84 124.10 359.74
  Q 123.67 351.65 117.42 344.30
  C 115.66 342.23 110.94 338.02 108.25 340.64
  Q 103.71 345.08 97.51 344.71
  Q 85.18 343.98 80.96 332.49
  C 77.70 323.63 75.63 312.92 78.16 303.50
  Q 78.33 302.90 77.70 302.93
  C 64.64 303.58 52.61 301.97 42.21 294.70
  C 34.41 289.25 32.83 282.16 34.65 273.44
  Q 35.23 270.61 34.93 267.79
  C 34.22 261.26 26.58 257.63 20.69 257.32
  A 2.02 2.01 -77.4 0 0 18.71 258.58
  Q 17.86 260.71 18.35 263.28
  C 19.19 267.73 20.32 272.06 19.59 276.60
  A 1.97 1.97 0.0 0 1 17.61 278.25
  C 14.53 278.19 10.87 273.82 9.10 271.59
  Q 7.88 270.06 8.17 271.99
  Q 10.32 286.44 14.81 302.35
  C 15.34 304.22 16.94 305.30 17.75 307.11
  Z
  M 464.17 350.45
  Q 464.85 348.57 465.44 346.68
  A 2.41 2.32 -11.0 0 1 466.28 345.48
  Q 469.94 342.70 473.47 339.81
  C 474.94 338.61 476.80 337.74 478.50 336.85
  A 1.02 1.02 0.0 0 1 479.99 337.68
  Q 480.22 340.80 478.83 343.94
  Q 475.74 350.90 473.11 357.40
  Q 473.06 357.53 473.18 357.58
  L 473.19 357.59
  Q 473.29 357.64 473.35 357.54
  Q 499.60 312.20 505.53 259.91
  Q 505.86 257.08 504.46 259.56
  Q 499.82 267.85 496.51 276.35
  Q 495.62 278.62 496.32 280.45
  C 497.87 284.55 496.30 291.08 495.02 295.28
  Q 492.84 302.47 487.02 306.36
  Q 485.59 307.32 483.99 307.29
  Q 483.54 307.29 483.25 306.94
  C 480.31 303.40 481.90 295.38 483.59 291.36
  Q 483.74 291.00 483.39 290.82
  L 483.14 290.69
  Q 483.08 290.66 483.05 290.72
  Q 480.05 295.89 476.05 300.29
  Q 465.67 311.69 453.96 321.30
  Q 453.51 321.68 453.66 322.25
  C 456.33 332.48 452.89 345.75 448.23 355.09
  C 446.03 359.48 440.01 367.41 434.65 368.78
  C 425.85 371.01 415.68 368.46 413.79 380.81
  C 413.38 383.50 412.82 389.33 417.50 388.86
  Q 421.45 388.46 425.41 385.71
  Q 430.14 382.42 435.18 379.05
  Q 436.74 378.01 438.52 377.94
  A 0.94 0.93 -84.9 0 1 439.46 379.07
  Q 438.58 383.31 435.90 387.38
  C 429.90 396.49 421.69 404.81 415.30 414.04
  Q 414.50 415.20 415.71 414.48
  L 439.69 400.29
  A 0.73 0.73 0.0 0 1 440.78 401.07
  Q 440.74 401.23 440.67 401.39
  Q 440.34 402.12 440.88 401.53
  Q 455.66 385.44 467.52 367.08
  Q 468.02 366.31 467.39 366.97
  Q 465.11 369.36 462.62 371.63
  Q 462.08 372.12 461.51 371.70
  A 0.89 0.88 28.5 0 1 461.20 370.67
  Q 463.86 363.63 469.78 359.24
  Q 470.13 358.98 470.29 358.56
  Q 471.90 354.28 474.09 349.83
  Q 475.48 346.99 475.47 343.92
  A 0.65 0.65 0.0 0 0 474.50 343.35
  Q 469.56 346.14 465.19 351.05
  Q 463.11 353.38 464.17 350.45
  Z
  M 161.51 398.74
  C 167.15 398.99 172.21 401.03 171.47 407.72
  C 171.22 409.99 169.77 411.83 169.10 414.00
  C 166.96 420.95 175.95 422.48 180.85 422.68
  Q 190.92 423.08 199.20 422.36
  C 203.96 421.95 211.01 420.64 215.03 417.61
  A 1.53 1.52 -50.6 0 0 214.78 415.02
  C 211.77 413.58 203.26 408.41 204.61 404.22
  C 207.07 396.63 225.25 392.37 232.11 390.59
  Q 250.14 385.92 269.79 383.21
  Q 270.51 383.11 270.14 382.48
  Q 268.84 380.26 267.54 378.02
  C 262.98 370.20 262.28 362.69 267.43 354.56
  Q 277.27 339.01 295.21 340.52
  Q 300.46 340.96 305.10 341.59
  C 307.43 341.90 309.36 341.27 310.12 338.97
  C 312.34 332.18 312.31 320.86 306.93 314.86
  C 302.17 309.55 293.76 310.65 289.15 315.41
  C 286.72 317.92 284.68 320.27 281.66 322.20
  Q 276.70 325.38 271.29 327.54
  Q 264.53 330.25 259.67 324.90
  Q 254.25 318.94 252.41 311.69
  Q 249.34 299.58 250.19 283.29
  Q 250.22 282.76 249.69 282.80
  Q 233.99 283.90 216.20 287.44
  Q 201.53 290.36 191.48 294.18
  Q 183.07 297.38 175.27 299.99
  A 0.42 0.42 0.0 0 0 175.14 300.72
  C 179.02 303.89 183.70 307.26 186.18 311.61
  C 189.92 318.15 182.71 323.15 177.26 324.78
  Q 167.96 327.57 156.75 329.83
  Q 150.96 331.00 146.77 330.40
  C 139.93 329.43 133.13 325.01 132.91 317.47
  C 132.78 313.00 135.96 310.73 139.14 308.36
  A 1.92 1.92 0.0 0 0 139.68 305.91
  C 135.39 297.95 125.58 297.92 117.22 298.75
  Q 100.36 300.41 83.36 302.37
  Q 82.90 302.42 82.75 302.87
  Q 78.59 316.10 83.73 329.83
  C 84.59 332.14 85.80 335.81 87.89 337.17
  C 92.64 340.24 100.29 341.03 104.62 336.61
  C 107.26 333.91 112.13 335.23 114.84 337.19
  Q 124.80 344.38 127.94 356.06
  C 129.71 362.67 128.45 370.72 119.79 370.72
  Q 111.13 370.72 103.15 366.01
  C 99.54 363.88 94.26 367.46 93.44 370.92
  C 92.12 376.51 98.71 389.07 101.59 394.19
  Q 101.88 394.69 102.46 394.76
  C 121.90 397.02 141.31 397.85 161.51 398.74
  Z
  M 24.60 329.32
  Q 24.82 329.24 24.75 329.02
  C 22.80 322.50 21.12 315.84 17.54 309.65
  Q 17.48 309.54 17.36 309.55
  Q 17.31 309.55 17.26 309.57
  Q 17.08 309.63 17.14 309.81
  Q 20.45 319.99 24.36 329.22
  Q 24.43 329.38 24.59 329.32
  L 24.60 329.32
  Z
  M 350.06 438.05
  A 2.17 2.17 0.0 0 1 350.09 435.06
  Q 352.81 432.28 356.08 430.45
  Q 367.54 424.02 377.78 422.21
  Q 380.08 421.80 382.43 422.10
  A 1.83 1.83 0.0 0 1 383.87 424.64
  Q 382.83 427.04 380.55 429.07
  Q 379.07 430.40 381.04 430.13
  Q 383.46 429.79 386.23 428.70
  Q 397.76 424.16 410.20 417.35
  A 2.26 2.17 1.1 0 0 410.99 416.62
  C 415.32 409.92 418.80 405.45 425.23 398.26
  Q 432.04 390.63 435.93 383.14
  Q 436.22 382.58 436.09 381.99
  A 0.55 0.55 0.0 0 0 435.21 381.67
  C 431.03 384.96 416.21 397.05 411.13 391.67
  C 409.35 389.79 409.53 386.26 409.89 383.86
  Q 411.77 371.08 423.06 366.82
  C 426.24 365.63 429.87 365.50 433.27 365.04
  C 438.91 364.27 444.46 358.10 446.44 353.53
  Q 451.08 342.77 451.18 331.20
  Q 451.21 328.09 450.16 325.06
  Q 449.95 324.45 449.43 324.84
  Q 437.06 334.06 425.26 343.30
  C 416.19 350.40 403.37 356.54 391.73 355.63
  C 386.02 355.18 386.06 351.03 387.61 346.73
  C 388.78 343.50 394.15 332.64 388.49 331.79
  Q 385.83 331.39 383.01 332.08
  Q 368.79 335.52 355.61 342.70
  C 352.67 344.30 342.31 351.38 347.41 355.55
  C 350.17 357.81 353.61 358.59 356.25 361.05
  C 361.06 365.52 351.03 371.31 348.19 372.69
  C 326.84 383.06 305.10 385.89 279.19 387.16
  Q 278.60 387.19 278.77 387.76
  C 280.50 393.73 286.45 398.93 292.02 401.36
  C 298.68 404.26 306.54 407.80 300.04 416.54
  C 295.73 422.32 288.94 424.51 281.45 424.90
  Q 271.40 425.42 261.95 427.66
  C 257.66 428.67 252.23 430.80 253.55 436.35
  Q 255.63 445.08 264.39 444.60
  Q 268.92 444.35 272.51 442.86
  C 279.03 440.17 301.20 430.24 306.51 437.64
  Q 310.79 443.59 313.04 450.32
  Q 313.24 450.89 313.82 450.77
  Q 328.10 447.71 339.73 445.12
  Q 346.62 443.59 352.21 441.28
  Q 354.74 440.24 352.15 439.37
  Q 350.91 438.96 350.06 438.05
  Z
  M 464.39 367.78
  Q 467.07 366.30 467.50 363.81
  Q 467.64 363.02 467.10 363.62
  Q 465.40 365.50 464.16 367.54
  Q 463.83 368.10 464.39 367.78
  Z
  M 88.14 416.85
  Q 89.02 418.15 87.70 417.31
  Q 81.86 413.57 77.96 407.38
  Q 77.56 406.74 77.57 406.01
  A 1.17 1.17 0.0 0 1 79.04 404.90
  Q 87.49 407.20 93.62 413.64
  Q 96.70 416.87 97.93 419.33
  A 1.89 1.89 0.0 0 1 98.06 420.74
  Q 97.53 422.51 99.17 423.32
  C 106.27 426.80 111.58 431.63 117.32 436.94
  Q 118.74 438.25 119.39 440.08
  Q 119.58 440.60 119.06 440.81
  Q 118.04 441.24 117.04 441.11
  Q 115.63 440.93 116.81 441.71
  Q 127.28 448.63 138.27 454.47
  C 143.35 457.17 149.16 458.94 153.82 461.58
  Q 161.71 466.06 166.12 466.62
  Q 174.31 467.67 183.91 468.71
  Q 187.90 469.14 184.45 467.08
  Q 169.45 458.14 155.64 448.58
  Q 154.33 447.67 152.73 447.51
  Q 152.13 447.44 151.68 447.83
  C 149.96 449.28 148.69 451.17 146.08 450.65
  Q 141.70 449.77 137.43 447.48
  C 129.87 443.43 121.20 438.18 116.51 430.94
  A 1.60 1.60 0.0 0 1 117.15 428.62
  C 119.76 427.36 124.80 429.59 127.17 430.76
  Q 128.88 431.59 127.67 430.13
  Q 117.81 418.15 107.43 406.77
  C 105.13 404.24 103.10 401.55 101.21 398.76
  Q 100.90 398.31 100.36 398.22
  Q 94.24 397.21 88.83 395.80
  C 82.58 394.17 69.25 389.06 69.21 381.24
  C 69.18 374.63 60.63 369.02 55.34 365.44
  Q 54.15 364.63 52.93 365.44
  A 1.68 1.67 68.4 0 0 52.21 367.11
  Q 52.65 369.65 53.86 371.38
  Q 55.98 374.41 57.80 377.80
  A 1.18 1.18 0.0 0 1 56.64 379.53
  C 54.63 379.30 52.01 376.90 50.25 375.80
  Q 49.48 375.32 50.00 376.06
  Q 69.40 403.72 94.23 424.72
  Q 94.73 425.15 95.33 425.06
  A 2.44 2.41 -18.1 0 1 97.86 426.33
  Q 98.75 428.02 99.98 429.15
  C 102.08 431.08 111.02 438.84 114.10 438.78
  Q 115.82 438.75 114.55 437.59
  Q 109.24 432.75 104.36 428.03
  Q 100.43 424.22 94.98 422.40
  Q 93.96 422.06 93.44 421.09
  Q 92.90 420.10 93.94 420.55
  L 94.27 420.69
  Q 95.01 421.01 94.98 420.20
  Q 94.94 419.22 94.30 418.43
  Q 91.35 414.83 88.60 411.67
  Q 85.48 408.10 81.06 407.70
  A 0.62 0.62 0.0 0 0 80.48 408.64
  C 81.64 410.57 82.87 412.68 84.88 413.89
  Q 86.97 415.14 88.14 416.85
  Z
  M 131.79 433.64
  A 0.88 0.88 0.0 0 1 130.71 434.11
  C 128.04 433.21 123.82 431.49 121.03 431.79
  A 0.60 0.60 0.0 0 0 120.59 432.72
  Q 121.23 433.68 122.14 434.59
  Q 130.14 442.64 140.08 447.14
  C 144.74 449.26 144.82 446.19 148.04 444.90
  C 152.12 443.27 161.83 450.04 165.26 452.35
  Q 177.00 460.25 190.06 468.35
  Q 191.62 469.32 193.41 469.39
  Q 210.29 470.12 225.94 469.94
  C 228.69 469.91 237.63 470.12 235.63 474.64
  A 0.57 0.56 18.1 0 0 236.03 475.42
  Q 237.96 475.85 239.76 475.74
  Q 249.60 475.18 257.80 472.82
  Q 261.56 471.73 257.65 471.55
  Q 253.60 471.35 249.99 470.49
  Q 248.67 470.17 248.17 469.11
  A 1.49 1.48 -22.3 0 1 249.02 467.09
  Q 252.41 465.87 255.88 465.42
  Q 279.11 462.46 298.73 454.99
  Q 302.91 453.39 307.12 452.41
  Q 307.76 452.26 307.53 451.63
  Q 305.22 445.23 301.43 439.73
  C 300.18 437.92 298.00 437.56 295.99 438.12
  Q 285.05 441.16 275.85 445.00
  C 269.48 447.66 257.21 449.53 251.75 443.81
  Q 249.63 441.58 248.43 437.30
  C 247.06 432.37 250.03 428.11 254.49 426.43
  C 263.55 423.02 274.79 421.95 284.74 420.81
  C 289.50 420.27 294.92 417.55 296.93 412.71
  C 298.79 408.20 291.88 406.27 288.99 405.04
  Q 277.11 399.99 272.91 388.40
  A 1.08 1.08 0.0 0 0 271.77 387.69
  Q 242.93 391.04 214.96 401.22
  C 213.30 401.82 211.42 402.99 210.32 404.36
  A 2.43 2.43 0.0 0 0 210.90 407.93
  C 213.77 409.78 224.14 415.32 219.56 420.00
  C 214.34 425.35 200.93 426.38 193.18 426.42
  C 184.75 426.46 175.54 426.16 168.52 421.79
  C 162.32 417.93 164.84 412.05 167.00 406.64
  A 2.98 2.98 0.0 0 0 164.28 402.56
  Q 148.16 402.28 131.81 401.62
  Q 121.65 401.21 105.56 398.96
  Q 104.79 398.85 105.21 399.51
  Q 108.21 404.24 111.88 408.21
  Q 120.42 417.46 126.30 424.29
  Q 129.42 427.90 131.71 432.06
  Q 132.15 432.85 131.79 433.64
  Z
  M 395.76 439.62
  L 395.96 439.77
  Q 396.33 440.05 396.71 439.79
  Q 412.24 429.20 426.59 415.91
  Q 429.20 413.50 432.22 410.03
  Q 434.84 407.01 437.92 403.87
  Q 437.96 403.82 437.92 403.77
  L 437.73 403.55
  Q 437.47 403.23 437.13 403.47
  Q 425.29 411.60 413.17 417.92
  Q 412.73 418.16 412.48 418.59
  C 409.29 424.31 406.89 432.01 399.44 433.46
  C 394.13 434.49 389.69 438.61 386.67 442.97
  A 0.54 0.53 -65.9 0 0 386.98 443.80
  Q 387.77 443.98 388.50 443.58
  Q 391.82 441.74 394.87 439.60
  A 0.77 0.76 46.1 0 1 395.76 439.62
  Z
  M 383.37 446.63
  A 0.99 0.99 0.0 0 1 382.49 445.04
  Q 386.74 439.55 392.78 434.82
  Q 397.66 431.00 403.60 430.48
  Q 404.36 430.42 404.54 429.68
  Q 405.57 425.61 408.10 421.52
  Q 408.69 420.57 407.71 421.09
  Q 396.36 427.16 383.09 432.08
  C 380.95 432.87 378.65 433.17 376.44 433.01
  A 1.08 1.08 0.0 0 1 375.59 431.38
  Q 377.12 428.81 379.59 426.38
  A 0.79 0.79 0.0 0 0 379.08 425.03
  Q 378.27 424.99 377.49 425.17
  Q 365.34 427.91 354.45 434.01
  A 1.21 1.21 0.0 0 0 354.60 436.19
  L 357.30 437.25
  A 1.47 1.47 0.0 0 1 357.93 439.51
  C 354.70 443.75 345.28 446.62 340.22 447.67
  Q 327.71 450.27 314.35 453.12
  A 0.85 0.85 0.0 0 0 313.69 454.07
  Q 314.25 457.89 311.63 460.72
  C 310.56 461.88 309.81 463.62 310.85 465.12
  C 311.81 466.49 314.30 466.22 315.68 465.78
  Q 323.19 463.38 331.01 461.12
  Q 333.19 460.49 335.69 460.90
  A 1.55 1.54 -76.4 0 1 336.91 462.90
  C 335.01 468.76 315.24 471.70 309.78 472.28
  A 0.57 0.57 0.0 0 0 309.33 473.10
  Q 309.78 474.00 310.77 474.27
  Q 313.37 474.95 316.30 475.32
  Q 318.38 475.59 320.82 474.91
  Q 357.21 464.81 387.95 445.47
  Q 388.09 445.38 388.00 445.23
  L 388.00 445.22
  Q 387.89 445.05 387.72 445.16
  Q 385.71 446.40 383.37 446.63
  Z
  M 268.01 481.79
  C 266.68 482.02 265.41 481.85 264.18 482.11
  Q 263.43 482.26 262.84 481.83
  Q 262.54 481.61 262.25 481.85
  Q 261.66 482.36 260.94 482.40
  A 0.76 0.75 71.3 0 1 260.28 482.07
  L 259.10 480.28
  Q 258.83 479.87 258.34 479.85
  Q 255.65 479.76 253.16 480.87
  A 0.87 0.86 61.9 0 1 252.08 480.54
  Q 251.69 479.92 252.05 479.34
  A 0.57 0.56 26.0 0 0 251.76 478.51
  C 250.93 478.21 250.11 478.49 249.36 478.07
  Q 248.92 477.82 248.74 477.34
  Q 248.55 476.84 249.09 476.92
  Q 249.88 477.05 250.62 476.72
  Q 251.18 476.48 250.65 476.19
  Q 250.14 475.91 249.51 476.06
  Q 242.17 477.74 233.30 476.27
  C 231.58 475.98 229.77 474.86 230.77 472.78
  A 0.91 0.91 0.0 0 0 229.91 471.47
  Q 211.46 472.34 193.48 470.86
  Q 192.79 470.81 192.79 471.50
  Q 192.80 472.16 192.58 472.79
  Q 191.81 475.07 194.12 475.75
  C 197.67 476.81 201.42 477.99 205.18 477.81
  Q 214.83 477.37 224.04 480.32
  C 225.41 480.76 226.15 481.74 227.60 481.92
  Q 244.54 483.95 262.61 483.46
  C 264.72 483.40 266.70 482.72 268.81 482.66
  Q 269.35 482.65 269.74 482.26
  L 270.07 481.93
  A 0.39 0.37 21.7 0 1 270.34 481.82
  L 274.74 481.89
  Q 275.44 481.90 274.84 481.53
  Q 271.74 479.61 268.46 479.90
  Q 267.87 479.95 267.66 479.39
  L 267.07 477.82
  Q 266.87 477.29 267.35 476.98
  Q 267.62 476.80 267.95 476.81
  Q 268.53 476.82 268.93 477.24
  Q 271.20 479.62 274.79 480.07
  Q 275.31 480.14 275.65 480.53
  Q 276.23 481.20 277.08 481.11
  Q 281.78 480.61 286.72 480.88
  Q 291.20 481.12 295.32 480.43
  Q 303.81 479.00 311.03 477.34
  Q 313.51 476.77 310.98 476.50
  C 309.18 476.30 305.16 475.87 303.83 474.44
  A 0.98 0.98 0.0 0 1 304.11 472.89
  C 306.65 471.61 309.59 470.70 312.45 470.46
  C 318.81 469.94 326.29 468.96 331.53 465.17
  A 1.11 1.10 42.4 0 0 331.44 463.33
  Q 330.34 462.68 329.05 463.09
  C 325.32 464.29 306.83 471.57 305.02 465.74
  C 304.30 463.41 305.82 461.71 307.07 459.98
  Q 308.63 457.84 308.23 455.10
  A 0.48 0.47 -13.6 0 0 307.60 454.72
  C 290.13 460.74 273.32 465.51 254.50 467.80
  Q 253.62 467.91 253.55 467.95
  Q 251.92 468.88 253.78 469.17
  Q 257.77 469.77 261.61 470.03
  Q 262.83 470.12 263.82 470.76
  A 0.97 0.97 0.0 0 1 263.80 472.40
  Q 259.09 475.25 254.17 475.05
  Q 253.97 475.04 253.95 475.25
  L 253.95 475.25
  Q 253.93 475.46 254.13 475.49
  Q 259.01 476.27 264.06 476.24
  A 0.25 0.24 88.9 0 1 264.31 476.49
  L 264.31 476.74
  A 0.27 0.27 0.0 0 1 264.03 477.01
  Q 261.53 476.99 258.83 476.98
  Q 258.56 476.98 258.36 477.16
  Q 258.19 477.30 258.15 477.53
  Q 258.05 478.22 258.74 478.10
  Q 259.95 477.88 260.76 478.82
  Q 261.18 479.30 261.82 479.29
  Q 263.11 479.27 264.23 479.93
  Q 264.71 480.22 265.26 480.23
  Q 266.83 480.26 268.15 481.24
  Q 268.73 481.67 268.01 481.79
  Z
  M 171.24 468.67
  Q 178.72 471.91 187.05 473.95
  Q 187.81 474.14 187.34 473.51
  Q 186.58 472.48 187.33 471.20
  A 0.52 0.52 0.0 0 0 186.95 470.42
  Q 179.38 469.46 171.16 468.57
  Q 170.92 468.55 171.15 468.63
  Q 171.20 468.65 171.24 468.67
  Z
  M 220.3878 480.6360
  A 5.36 0.49 8.0 0 0 215.1482 479.4048
  A 5.36 0.49 8.0 0 0 209.7722 479.1440
  A 5.36 0.49 8.0 0 0 215.0118 480.3752
  A 5.36 0.49 8.0 0 0 220.3878 480.6360
  Z"
/>
<path fill="#000000" fill-opacity="0.882" d="
  M 84.78 72.13
  Q 86.08 71.84 87.39 71.73
  A 0.76 0.76 0.0 0 1 88.13 72.81
  L 85.45 78.58
  A 2.10 2.07 4.8 0 1 84.09 79.71
  L 82.05 80.23
  Q 80.94 80.51 81.60 79.57
  Q 84.07 76.06 83.98 74.81
  Q 83.95 74.43 83.58 74.53
  L 79.58 75.63
  Q 78.67 75.88 79.13 75.06
  Q 81.81 70.37 85.48 65.62
  Q 87.42 63.10 84.48 64.30
  Q 81.87 65.37 78.87 66.04
  A 0.36 0.36 0.0 0 1 78.47 65.54
  Q 80.14 61.98 82.86 58.86
  Q 83.12 58.55 83.17 58.16
  Q 83.20 57.99 83.15 57.83
  Q 83.05 57.47 83.33 57.22
  Q 84.93 55.83 87.15 55.29
  Q 87.99 55.09 87.42 55.73
  Q 84.62 58.87 82.33 62.58
  Q 81.86 63.34 82.73 63.11
  L 87.34 61.89
  Q 88.30 61.64 88.84 60.80
  Q 93.11 54.13 98.75 48.32
  C 99.47 47.57 99.79 46.68 100.08 45.71
  Q 100.17 45.41 100.46 45.29
  Q 102.61 44.45 104.71 43.77
  A 0.04 0.04 0.0 0 1 104.75 43.83
  Q 101.76 47.58 98.77 51.15
  C 93.46 57.48 88.98 64.22 84.00 70.93
  Q 82.77 72.59 84.78 72.13
  Z"
/>
<path fill="#000000" fill-opacity="0.882" d="
  M 407.79 59.16
  L 411.84 55.66
  A 0.74 0.73 50.1 0 1 412.89 55.76
  Q 415.41 58.86 417.82 61.66
  C 418.82 62.81 420.28 63.52 421.11 64.80
  Q 421.42 65.28 420.96 65.61
  C 419.76 66.46 418.06 67.19 416.69 66.29
  Q 413.28 64.03 411.67 61.00
  A 0.95 0.95 0.0 0 0 410.27 60.68
  Q 410.11 60.80 410.01 60.97
  Q 409.42 61.96 410.24 62.77
  Q 413.75 66.24 416.26 70.69
  C 418.24 74.21 416.73 76.92 413.45 78.35
  Q 409.88 79.91 407.95 83.19
  C 404.03 89.85 398.12 87.78 394.06 82.96
  C 389.18 77.18 382.92 69.60 382.43 61.86
  C 382.07 56.29 387.59 52.39 392.50 51.47
  C 397.07 50.61 403.51 55.99 406.58 59.11
  Q 407.17 59.70 407.79 59.16
  Z
  M 413.69 76.02
  Q 413.64 74.06 412.87 73.06
  Q 409.86 69.11 407.00 65.62
  C 403.28 61.06 399.00 57.39 394.35 53.88
  Q 392.85 52.75 391.05 52.80
  A 0.54 0.53 67.5 0 0 390.68 53.70
  C 397.73 61.27 404.91 69.01 411.13 77.53
  Q 411.90 78.60 412.90 77.73
  Q 413.71 77.02 413.69 76.02
  Z
  M 407.16 83.10
  Q 408.26 82.00 407.36 80.72
  Q 398.46 68.21 387.60 56.61
  Q 385.34 54.19 385.48 57.49
  Q 385.56 59.26 386.58 60.88
  C 391.20 68.19 395.45 75.87 401.89 81.97
  Q 403.65 83.63 406.03 83.59
  Q 406.67 83.58 407.16 83.10
  Z"
/>
<path fill="#000000" fill-opacity="0.882" d="
  M 259.43 81.46
  L 263.66 89.17
  Q 264.82 91.27 262.42 91.27
  Q 261.67 91.27 260.95 91.13
  Q 258.71 90.71 257.78 88.62
  Q 256.39 85.47 254.90 82.51
  Q 253.86 80.45 251.82 79.98
  Q 250.90 79.76 251.69 79.23
  Q 254.00 77.65 256.46 78.45
  A 2.41 2.35 47.5 0 0 257.69 78.52
  Q 261.56 77.70 265.21 76.20
  Q 265.79 75.96 265.60 75.37
  Q 264.42 71.57 261.78 71.28
  Q 261.20 71.22 261.39 70.67
  C 262.27 68.17 266.76 68.96 268.90 69.70
  Q 269.47 69.90 269.29 70.48
  Q 268.63 72.59 270.10 74.16
  Q 270.48 74.56 271.02 74.43
  C 274.09 73.66 277.28 73.46 279.38 70.86
  A 0.90 0.90 0.0 0 1 280.25 70.54
  Q 283.63 71.18 286.45 72.88
  A 0.69 0.68 27.2 0 1 286.73 73.75
  Q 286.06 75.25 286.19 76.75
  C 287.30 89.67 281.36 98.02 271.84 105.56
  Q 271.68 105.69 271.53 105.57
  Q 271.33 105.42 271.49 105.24
  C 278.00 98.18 282.88 85.90 280.09 75.79
  Q 279.72 74.46 278.39 74.85
  L 259.92 80.27
  Q 258.93 80.56 259.43 81.46
  Z"
/>
<path fill="#000000" fill-opacity="0.882" d="
  M 298.36 88.01
  A 0.48 0.48 0.0 0 0 297.55 87.91
  Q 293.86 92.51 289.01 95.25
  Q 288.84 95.34 288.73 95.19
  L 288.58 94.98
  Q 288.54 94.93 288.59 94.89
  C 293.29 90.96 298.53 83.94 298.29 77.52
  Q 298.27 76.93 297.73 76.70
  Q 297.59 76.64 297.58 76.49
  Q 297.55 76.07 297.96 75.97
  Q 300.52 75.35 303.16 76.52
  A 1.05 1.04 24.9 0 1 303.68 77.93
  L 300.98 83.54
  Q 300.77 83.98 301.02 84.40
  C 301.76 85.67 301.43 87.06 302.13 88.44
  C 303.78 91.68 305.80 95.23 306.50 98.73
  A 0.94 0.93 -2.0 0 1 305.46 99.84
  Q 302.15 99.40 301.95 96.77
  C 301.74 94.12 299.50 90.44 298.36 88.01
  Z"
/>
<path fill="#000000" fill-opacity="0.882" d="
  M 59.61 136.21
  Q 60.92 132.76 62.06 129.52
  Q 64.26 123.24 68.17 114.81
  Q 68.41 114.29 68.99 114.33
  L 71.81 114.54
  A 1.94 1.93 6.5 0 1 73.59 116.77
  C 72.41 124.20 67.30 129.15 62.58 134.57
  Q 61.37 135.96 59.86 136.47
  Q 59.46 136.61 59.61 136.21
  Z
  M 63.69 129.48
  Q 63.10 130.92 64.16 129.78
  Q 67.92 125.74 70.42 120.11
  Q 70.81 119.22 69.91 118.83
  L 69.53 118.67
  Q 68.33 118.15 67.84 119.36
  L 63.69 129.48
  Z"
/>
<path fill="#000000" fill-opacity="0.882" d="
  M 462.70 152.27
  Q 460.60 150.73 458.65 148.27
  C 454.34 142.83 449.86 136.37 449.72 129.45
  C 449.67 126.66 451.59 119.95 455.72 122.09
  Q 457.52 123.02 458.46 124.54
  Q 466.85 138.11 466.79 155.45
  C 466.77 161.01 464.68 169.20 457.73 168.60
  Q 454.33 168.30 449.96 165.11
  C 441.65 159.03 437.26 151.71 433.69 142.32
  Q 433.33 141.39 433.95 142.17
  Q 438.16 147.54 443.45 153.29
  Q 447.03 157.19 450.55 158.77
  C 455.98 161.20 462.12 159.84 463.02 153.03
  Q 463.08 152.55 462.70 152.27
  Z
  M 462.10 141.37
  Q 461.36 136.06 456.73 131.60
  Q 455.36 130.28 454.78 132.09
  Q 454.55 132.82 454.60 133.56
  A 6.44 3.84 -79.5 0 0 455.98 137.29
  L 461.72 143.27
  A 0.52 0.52 0.0 0 0 462.61 143.01
  Q 462.66 142.72 462.50 142.46
  Q 462.18 141.96 462.10 141.37
  Z"
/>
<path fill="#000000" fill-opacity="0.882" d="
  M 42.41 132.51
  Q 45.27 132.28 50.66 131.87
  Q 50.94 131.85 51.13 131.65
  L 56.49 126.07
  A 0.73 0.73 0.0 0 1 57.74 126.57
  Q 57.76 130.39 57.13 134.67
  Q 57.04 135.29 56.55 135.69
  Q 54.27 137.56 52.86 140.24
  Q 52.24 141.43 53.52 141.84
  Q 55.01 142.31 56.43 142.20
  Q 56.99 142.15 57.40 141.76
  Q 59.13 140.13 60.96 137.46
  Q 62.23 135.61 62.32 137.85
  C 62.44 140.58 59.86 142.84 57.31 144.81
  C 54.52 146.96 51.24 144.62 51.17 141.42
  C 51.08 137.56 52.14 135.36 55.13 133.05
  A 2.22 2.22 0.0 0 0 56.00 131.17
  L 55.95 130.08
  Q 55.90 129.01 55.17 129.79
  L 49.07 136.32
  A 1.35 1.34 -68.9 0 1 48.11 136.75
  Q 42.05 136.85 35.68 137.87
  Q 34.96 137.99 35.14 137.28
  C 36.27 132.78 40.04 126.08 44.86 124.80
  A 0.51 0.50 -13.5 0 1 45.49 125.18
  Q 46.08 127.86 42.34 132.37
  A 0.09 0.09 0.0 0 0 42.41 132.51
  Z
  M 43.2802 128.4867
  A 3.27 1.19 -43.8 0 0 40.0963 129.8911
  A 3.27 1.19 -43.8 0 0 38.5598 133.0133
  A 3.27 1.19 -43.8 0 0 41.7437 131.6089
  A 3.27 1.19 -43.8 0 0 43.2802 128.4867
  Z"
/>
<path fill="#000000" fill-opacity="0.882" d="
  M 313.83 188.07
  L 309.46 207.74
  A 1.02 1.02 0.0 0 1 307.68 208.16
  C 300.78 199.75 294.14 191.13 286.98 183.08
  C 283.08 178.69 280.03 172.26 273.05 173.26
  Q 272.49 173.34 272.01 173.05
  Q 271.66 172.84 271.63 172.43
  Q 271.59 171.94 272.03 171.74
  C 274.19 170.76 276.55 170.80 278.85 170.07
  Q 283.34 168.64 288.87 166.88
  A 0.86 0.86 0.0 0 1 289.98 167.58
  L 290.03 167.99
  Q 290.11 168.55 289.57 168.72
  Q 286.93 169.55 286.50 172.27
  A 1.04 1.00 30.2 0 0 286.73 173.08
  L 308.18 198.77
  Q 308.98 199.73 309.19 198.59
  Q 310.12 193.40 311.30 188.37
  Q 311.69 186.67 311.78 184.77
  Q 311.80 184.25 311.45 183.86
  C 309.34 181.52 307.64 179.04 305.35 176.80
  Q 302.20 173.72 299.23 170.11
  Q 296.65 166.96 292.76 167.69
  A 0.65 0.65 0.0 0 1 292.00 167.19
  L 291.90 166.77
  Q 291.79 166.25 292.32 166.15
  Q 298.85 164.85 305.63 162.35
  A 2.19 2.11 37.3 0 1 306.67 162.23
  Q 308.22 162.45 307.89 163.28
  Q 307.69 163.76 307.21 163.97
  C 306.35 164.34 305.22 164.87 304.80 165.77
  Q 304.03 167.41 305.56 168.85
  Q 309.86 172.93 312.93 176.76
  A 0.46 0.46 0.0 0 0 313.74 176.53
  Q 314.25 172.76 315.05 168.86
  C 315.82 165.13 314.92 162.70 310.65 163.17
  A 0.92 0.91 -7.7 0 1 309.65 162.41
  L 309.60 162.15
  Q 309.49 161.49 310.15 161.40
  Q 316.01 160.60 321.80 158.26
  A 1.71 1.71 0.0 0 1 323.55 158.54
  Q 323.81 158.76 323.74 159.23
  A 0.59 0.57 -7.9 0 1 323.37 159.70
  Q 319.65 161.12 318.95 164.21
  Q 317.63 170.11 316.07 176.99
  Q 315.79 178.25 315.92 179.46
  Q 315.97 179.98 316.29 180.39
  Q 320.21 185.39 324.37 189.45
  Q 325.94 190.99 327.23 193.17
  A 0.60 0.59 51.2 0 0 328.18 193.28
  Q 328.47 192.97 328.51 192.51
  Q 329.70 178.69 331.08 166.22
  Q 331.37 163.64 330.88 161.09
  A 2.15 2.15 0.0 0 0 329.11 159.37
  L 325.80 158.84
  A 0.65 0.65 0.0 0 1 325.35 157.85
  Q 325.76 157.21 326.53 157.12
  Q 332.80 156.44 337.80 154.40
  A 0.64 0.63 73.4 0 1 338.66 154.87
  L 338.72 155.21
  Q 338.88 156.00 338.11 156.25
  Q 335.07 157.24 334.67 160.39
  C 333.99 165.77 333.21 171.10 332.70 176.43
  Q 331.50 189.15 329.59 202.46
  A 0.89 0.89 0.0 0 1 328.02 202.90
  Q 324.49 198.57 320.55 194.46
  C 318.58 192.40 316.92 189.99 315.18 187.77
  Q 314.18 186.49 313.83 188.07
  Z"
/>
<path fill="#000000" fill-opacity="0.882" d="
  M 37.18 238.71
  Q 37.56 236.03 37.35 233.33
  Q 37.12 230.29 35.57 232.92
  Q 33.55 236.37 30.74 236.84
  C 27.57 237.38 27.32 229.81 27.47 228.04
  Q 27.92 222.59 28.58 216.68
  A 0.98 0.98 0.0 0 0 27.89 215.62
  L 20.87 213.45
  Q 20.25 213.26 20.33 212.62
  L 20.63 210.02
  Q 20.70 209.48 21.21 209.67
  Q 27.35 211.93 34.14 213.64
  Q 36.56 214.26 37.69 212.21
  Q 37.95 211.74 37.65 211.29
  Q 35.82 208.59 33.95 208.29
  C 31.42 207.88 28.11 207.82 26.24 205.85
  C 23.05 202.50 23.19 197.86 25.48 193.76
  Q 25.70 193.37 25.98 193.72
  L 26.27 194.09
  A 0.33 0.32 39.4 0 1 26.31 194.45
  Q 24.14 198.55 26.63 200.83
  C 28.30 202.37 31.43 202.39 33.70 202.83
  C 38.92 203.82 40.43 209.59 39.82 214.47
  Q 39.73 215.13 40.38 215.28
  L 45.13 216.38
  Q 46.10 216.61 45.96 217.59
  L 45.68 219.57
  A 1.03 1.02 12.1 0 1 44.37 220.41
  L 32.19 216.75
  Q 30.73 216.31 30.62 217.83
  L 29.82 229.36
  A 0.97 0.96 31.4 0 0 29.97 229.97
  Q 30.51 230.80 31.24 230.58
  Q 31.57 230.48 31.85 229.99
  Q 33.29 227.44 35.44 225.60
  A 0.84 0.84 0.0 0 1 36.73 225.85
  Q 41.73 235.47 38.35 245.11
  C 36.87 249.34 32.84 252.29 28.52 249.19
  C 24.79 246.50 23.16 241.04 22.67 236.70
  Q 21.63 227.46 21.96 216.88
  Q 21.97 216.63 22.22 216.63
  L 22.49 216.63
  Q 22.74 216.63 22.74 216.89
  Q 22.94 227.53 23.56 230.50
  C 24.39 234.51 25.61 239.97 28.92 242.63
  Q 32.83 245.78 36.14 241.26
  A 5.73 5.65 -23.2 0 0 37.18 238.71
  Z"
/>
<path fill="#000000" fill-opacity="0.882" d="
  M 492.21 243.46
  L 485.83 251.49
  Q 485.48 251.94 485.50 252.51
  Q 485.92 261.80 484.54 271.45
  A 0.28 0.27 -77.2 0 1 484.18 271.68
  L 483.91 271.59
  Q 483.81 271.55 483.81 271.44
  L 483.67 253.92
  Q 483.66 253.19 483.07 253.63
  Q 480.46 255.58 478.55 258.05
  Q 478.21 258.49 477.66 258.45
  Q 475.80 258.34 474.37 257.38
  Q 471.60 255.52 474.87 254.90
  C 481.25 253.70 486.74 247.64 491.13 242.88
  Q 492.74 241.12 492.59 238.82
  Q 492.02 230.56 490.76 220.80
  C 490.55 219.24 489.10 218.22 487.92 217.36
  A 1.33 1.32 20.8 0 1 487.39 216.19
  Q 487.50 214.89 488.64 214.90
  Q 491.30 214.91 491.47 215.30
  C 492.95 218.70 492.49 222.78 492.97 226.44
  C 493.49 230.43 493.81 234.37 494.04 238.38
  C 494.26 242.21 494.08 245.98 494.48 249.74
  Q 494.83 252.99 494.73 256.29
  Q 494.52 263.22 493.37 269.93
  Q 493.16 271.18 492.78 269.97
  Q 492.73 269.81 492.74 269.00
  Q 492.91 256.23 492.72 243.64
  Q 492.71 242.83 492.21 243.46
  Z"
/>
<path fill="#000000" fill-opacity="0.882" d="
  M 160.36 263.81
  Q 160.55 264.81 161.56 264.62
  Q 167.44 263.49 173.53 262.17
  Q 176.75 261.47 177.03 257.91
  Q 177.06 257.50 177.27 257.15
  Q 177.50 256.78 177.92 256.75
  A 0.61 0.60 -6.7 0 1 178.54 257.23
  L 180.71 267.39
  A 1.06 1.05 -10.6 0 1 179.84 268.65
  L 159.51 271.93
  Q 158.42 272.11 158.30 271.01
  L 157.30 261.31
  Q 157.24 260.74 157.73 260.45
  Q 164.22 256.60 164.81 247.74
  C 165.24 241.40 162.83 231.64 157.19 227.38
  Q 146.10 219.00 136.39 228.37
  C 129.17 235.34 130.68 247.33 134.98 256.01
  C 136.69 259.45 139.70 261.95 143.54 262.58
  A 1.55 1.53 -2.9 0 1 144.78 263.69
  L 147.50 273.70
  A 0.35 0.35 0.0 0 1 147.22 274.14
  L 127.35 277.56
  A 0.59 0.58 -9.9 0 1 126.67 277.09
  L 124.68 266.63
  Q 124.55 265.96 125.22 265.83
  L 125.51 265.78
  A 0.27 0.27 0.0 0 1 125.82 265.97
  Q 127.06 270.30 132.25 269.49
  Q 137.34 268.70 142.07 267.77
  Q 142.61 267.66 142.72 267.13
  Q 142.88 266.42 142.44 265.78
  Q 142.12 265.31 141.55 265.25
  Q 130.22 264.02 125.24 253.58
  C 119.69 241.92 124.42 229.61 135.82 224.10
  C 140.84 221.68 147.23 219.66 152.58 220.40
  Q 154.48 220.67 156.27 221.04
  Q 168.10 223.49 172.29 234.18
  Q 173.30 236.76 173.65 240.93
  C 174.40 249.83 169.43 257.66 161.53 261.35
  C 160.43 261.87 160.13 262.63 160.36 263.81
  Z"
/>
<path fill="#000000" fill-opacity="0.882" d="
  M 483.58 223.95
  Q 484.04 223.89 484.50 223.97
  Q 484.93 224.05 485.28 224.33
  C 489.84 228.04 488.97 236.23 486.69 240.80
  C 484.91 244.37 480.46 246.24 478.35 241.30
  C 475.96 235.70 476.94 229.51 481.10 224.84
  Q 481.50 224.38 481.36 223.79
  L 480.99 222.31
  Q 480.85 221.73 481.44 221.78
  L 482.00 221.82
  A 0.76 0.75 -0.4 0 1 482.70 222.50
  L 482.78 223.32
  Q 482.85 224.05 483.58 223.95
  Z
  M 482.5746 241.0916
  A 7.07 3.63 92.8 0 0 486.5457 234.2073
  A 7.07 3.63 92.8 0 0 483.2654 226.9684
  A 7.07 3.63 92.8 0 0 479.2943 233.8527
  A 7.07 3.63 92.8 0 0 482.5746 241.0916
  Z"
/>
<path fill="#000000" fill-opacity="0.882" d="
  M 372.85 278.26
  C 367.24 289.80 362.27 301.75 355.93 312.70
  Q 354.58 315.02 355.59 317.65
  C 356.05 318.84 356.80 319.87 358.26 319.69
  Q 361.31 319.31 363.85 318.65
  Q 364.30 318.53 364.24 319.00
  L 364.19 319.28
  Q 364.10 319.93 363.46 320.15
  L 341.65 327.55
  A 1.28 1.27 55.6 0 1 340.40 327.31
  L 340.20 327.14
  A 0.27 0.27 0.0 0 1 340.27 326.68
  C 345.97 324.32 348.45 323.25 346.87 316.15
  Q 343.84 302.47 339.32 284.04
  C 337.86 278.10 334.90 279.42 330.07 280.19
  A 0.66 0.65 77.5 0 1 329.34 279.72
  L 329.25 279.38
  A 0.32 0.32 0.0 0 1 329.46 278.99
  L 352.39 271.24
  Q 353.16 270.98 353.43 271.75
  L 353.52 272.00
  A 0.39 0.39 0.0 0 1 353.27 272.50
  C 346.41 274.79 346.13 277.66 347.63 283.49
  Q 350.17 293.40 352.40 302.83
  C 352.93 305.09 353.10 307.32 353.66 309.45
  Q 354.15 311.33 354.99 309.58
  Q 363.29 292.46 371.48 274.92
  Q 372.05 273.70 371.78 272.27
  C 370.99 267.95 368.47 267.07 364.09 268.66
  Q 363.33 268.94 362.62 268.55
  L 362.27 268.36
  A 0.34 0.34 0.0 0 1 362.31 267.75
  L 384.36 259.14
  A 0.35 0.35 0.0 0 1 384.82 259.37
  L 384.93 259.79
  Q 385.12 260.47 384.47 260.74
  C 382.07 261.75 379.02 263.21 379.02 266.26
  Q 379.03 268.44 379.57 270.55
  Q 383.97 287.85 387.07 304.29
  C 387.97 309.06 392.02 307.60 395.01 306.50
  A 0.30 0.30 0.0 0 1 395.40 306.72
  L 395.46 307.00
  Q 395.57 307.54 395.07 307.76
  Q 387.08 311.23 378.52 314.61
  Q 376.34 315.47 373.60 316.26
  A 0.33 0.32 71.0 0 1 373.20 316.06
  L 373.08 315.74
  A 0.52 0.51 69.3 0 1 373.38 315.07
  C 377.08 313.69 380.64 312.01 379.65 307.15
  Q 376.58 292.12 373.39 278.32
  Q 373.20 277.53 372.85 278.26
  Z"
/>
<path fill="#000000" fill-opacity="0.882" d="
  M 50.51 333.93
  Q 49.14 330.94 48.70 327.44
  Q 48.61 326.76 47.96 326.52
  L 32.95 321.06
  Q 32.29 320.82 32.47 321.50
  C 35.02 331.26 38.29 341.07 42.23 350.05
  Q 42.32 350.26 42.12 350.36
  L 41.88 350.49
  Q 41.83 350.52 41.79 350.46
  C 40.42 347.93 38.84 346.22 37.82 343.27
  Q 33.64 331.20 30.26 319.99
  Q 30.07 319.36 29.46 319.10
  Q 26.92 318.04 26.61 314.71
  Q 26.56 314.20 27.07 314.31
  Q 27.73 314.46 28.27 314.80
  Q 29.48 315.54 28.75 314.33
  Q 25.78 309.44 26.25 302.75
  A 1.51 1.46 -19.2 0 1 26.76 301.73
  C 29.04 299.78 33.31 302.55 35.25 304.14
  Q 43.15 310.61 48.04 320.19
  C 49.81 323.66 51.46 323.35 54.78 324.24
  Q 55.82 324.52 56.09 325.56
  L 56.57 327.46
  Q 56.91 328.79 55.62 328.32
  Q 53.78 327.66 51.79 327.28
  Q 51.16 327.16 51.31 327.78
  Q 54.98 342.52 60.66 355.59
  Q 60.85 356.02 60.97 356.46
  Q 61.49 358.32 60.06 357.02
  C 56.47 353.77 56.05 349.62 54.22 345.49
  Q 53.94 344.86 53.49 345.38
  C 50.66 348.66 46.58 344.08 44.93 341.74
  C 42.90 338.87 39.59 333.91 41.62 330.74
  Q 41.88 330.33 42.36 330.24
  C 47.02 329.38 47.16 332.36 50.14 334.25
  Q 50.86 334.71 50.51 333.93
  Z
  M 29.23 312.17
  C 29.76 313.36 30.07 314.69 30.68 315.78
  A 1.56 1.52 -2.1 0 0 31.41 316.44
  Q 39.18 319.84 47.23 322.49
  Q 48.95 323.05 47.92 321.56
  C 43.70 315.41 38.00 306.72 30.11 305.04
  A 1.27 1.26 -75.8 0 0 28.63 305.93
  Q 27.79 308.87 29.23 312.17
  Z
  M 47.78 334.55
  C 45.07 333.57 42.70 335.75 43.97 338.46
  Q 44.99 340.61 46.10 341.90
  Q 47.66 343.71 49.56 342.25
  Q 50.52 341.51 51.21 340.51
  Q 52.54 338.61 51.10 336.80
  Q 49.93 335.34 47.78 334.55
  Z"
/>
<path fill="#000000" fill-opacity="0.882" d="
  M 483.16 331.11
  C 478.63 335.22 473.19 338.13 468.02 341.79
  A 0.46 0.45 -5.3 0 1 467.34 341.23
  C 470.09 335.26 475.49 326.37 481.94 323.99
  Q 483.92 323.26 484.43 325.32
  Q 484.78 326.75 484.56 328.47
  Q 484.37 330.02 483.16 331.11
  Z
  M 473.07 335.63
  Q 477.37 332.94 481.12 329.66
  Q 483.74 327.37 480.33 328.05
  Q 479.70 328.18 478.30 329.23
  Q 475.11 331.63 472.95 334.93
  Q 472.76 335.22 472.85 335.55
  A 0.15 0.14 -24.1 0 0 473.07 335.63
  Z"
/>
<path fill="#000000" fill-opacity="0.882" d="
  M 158.35 364.85
  A 0.26 0.26 0.0 0 0 158.67 365.20
  L 168.98 361.96
  Q 170.20 361.58 169.13 360.87
  Q 167.46 359.76 166.66 358.19
  A 0.28 0.28 0.0 0 1 166.97 357.79
  Q 172.61 359.05 176.56 362.69
  Q 176.97 363.07 176.98 363.62
  L 177.03 365.75
  A 0.87 0.86 -77.2 0 1 175.77 366.55
  Q 173.44 365.35 171.82 363.57
  A 0.77 0.77 0.0 0 0 170.91 363.40
  L 164.23 366.73
  A 0.51 0.51 0.0 0 0 164.22 367.64
  C 165.62 368.38 167.29 369.22 167.66 370.95
  Q 168.73 375.90 170.33 380.76
  Q 171.37 383.92 170.80 387.07
  A 0.75 0.75 0.0 0 1 169.56 387.49
  C 167.60 385.70 165.92 383.49 165.98 380.69
  Q 166.11 374.36 162.73 368.72
  A 0.84 0.84 0.0 0 0 161.74 368.36
  Q 158.70 369.41 156.43 371.48
  A 0.90 0.89 -55.8 0 1 155.50 371.66
  Q 152.02 370.38 151.14 366.45
  A 0.53 0.53 0.0 0 1 151.75 365.81
  L 153.16 366.06
  Q 153.72 366.16 154.12 365.75
  Q 156.89 362.84 158.95 359.71
  Q 159.92 358.24 158.25 357.67
  Q 153.14 355.94 148.79 352.64
  Q 147.09 351.35 149.22 351.41
  Q 150.44 351.44 151.58 351.74
  A 1.77 1.77 0.0 0 0 153.68 350.66
  Q 155.67 345.45 157.69 340.48
  Q 158.98 337.30 158.33 334.74
  Q 158.19 334.20 158.74 334.28
  Q 162.40 334.81 164.79 337.92
  Q 165.76 339.20 164.47 340.17
  Q 162.69 341.51 161.46 343.18
  Q 158.39 347.37 155.42 351.84
  Q 154.86 352.70 155.69 353.29
  L 159.65 356.12
  A 0.91 0.91 0.0 0 0 160.94 355.88
  Q 163.63 351.80 165.49 347.38
  C 165.83 346.56 165.73 345.70 165.39 344.89
  A 1.06 1.05 -6.8 0 1 166.53 343.45
  Q 170.28 344.06 172.64 347.14
  A 0.86 0.85 56.0 0 1 172.40 348.40
  Q 169.07 350.37 166.93 353.70
  Q 163.69 358.75 159.63 362.89
  Q 158.79 363.75 158.35 364.85
  Z"
/>
<path fill="#000000" fill-opacity="0.882" d="
  M 197.43 348.23
  Q 200.12 346.40 203.62 346.94
  A 1.12 1.12 0.0 0 1 204.29 348.79
  Q 204.01 349.10 203.61 349.29
  Q 199.52 351.16 195.43 352.03
  A 0.26 0.26 0.0 0 0 195.34 352.50
  Q 197.42 353.83 197.26 356.77
  Q 197.17 358.41 198.66 357.73
  Q 201.41 356.47 204.62 357.32
  A 0.55 0.55 0.0 0 1 204.87 358.24
  C 203.36 359.79 201.06 360.08 199.01 360.43
  Q 198.15 360.58 198.32 361.44
  L 199.41 366.70
  Q 199.60 367.62 200.48 367.28
  Q 204.40 365.74 208.35 366.76
  A 0.95 0.95 0.0 0 1 208.86 368.26
  Q 208.52 368.71 207.91 368.88
  Q 204.37 369.86 201.60 369.77
  Q 200.22 369.72 200.56 371.05
  L 202.37 378.05
  Q 202.68 379.25 203.87 378.94
  Q 206.16 378.35 208.44 377.64
  Q 213.32 376.11 216.37 379.32
  A 0.80 0.80 0.0 0 1 215.87 380.67
  C 213.18 380.95 210.78 380.48 208.06 380.82
  Q 200.15 381.82 191.95 383.23
  A 1.22 1.21 87.6 0 0 190.95 384.33
  Q 190.89 385.05 190.49 385.65
  A 1.26 1.25 -54.1 0 1 188.65 385.95
  C 183.95 382.20 185.58 377.45 184.43 372.44
  Q 182.80 365.37 181.48 358.23
  C 181.14 356.40 180.70 355.16 179.11 354.05
  A 1.49 1.48 35.6 0 0 177.08 354.38
  Q 175.29 356.78 173.34 357.57
  Q 171.07 358.49 172.44 356.46
  C 175.69 351.63 178.59 347.48 180.14 341.66
  C 180.57 340.05 180.19 338.72 179.98 337.14
  Q 179.90 336.51 180.51 336.37
  C 183.51 335.67 186.59 338.71 188.44 340.69
  A 0.57 0.57 0.0 0 1 188.30 341.58
  C 184.53 343.64 182.52 347.78 180.02 351.12
  Q 179.66 351.59 180.12 351.97
  C 182.82 354.17 187.90 352.11 190.95 350.65
  Q 191.56 350.35 191.86 349.74
  Q 194.64 344.06 193.48 339.52
  Q 193.35 338.99 193.89 338.90
  Q 197.53 338.30 200.47 340.97
  A 0.95 0.95 0.0 0 1 200.37 342.45
  Q 197.72 344.29 196.97 347.92
  Q 196.82 348.65 197.43 348.23
  Z
  M 184.64 354.97
  L 186.29 362.10
  A 0.26 0.26 0.0 0 0 186.60 362.30
  L 190.02 361.51
  A 2.97 2.10 -13.0 0 0 192.44 358.80
  L 191.62 355.25
  A 2.97 2.10 -13.0 0 0 188.26 353.87
  L 184.84 354.66
  A 0.26 0.26 0.0 0 0 184.64 354.97
  Z
  M 193.3758 363.0162
  A 0.26 0.26 0.0 0 0 193.0570 362.8329
  L 186.6463 364.5626
  A 0.26 0.26 0.0 0 0 186.4630 364.8814
  L 188.1042 370.9638
  A 0.26 0.26 0.0 0 0 188.4230 371.1471
  L 194.8337 369.4174
  A 0.26 0.26 0.0 0 0 195.0170 369.0986
  L 193.3758 363.0162
  Z
  M 190.28 380.96
  A 0.33 0.33 0.0 0 0 190.65 381.21
  L 197.32 380.07
  A 0.33 0.33 0.0 0 0 197.58 379.66
  L 195.50 371.57
  A 0.33 0.33 0.0 0 0 195.10 371.33
  L 188.67 373.00
  A 0.33 0.33 0.0 0 0 188.44 373.40
  L 190.28 380.96
  Z"
/>
<path fill="#000000" fill-opacity="0.882" d="
  M 170.90 371.27
  C 174.15 372.13 177.40 373.65 179.31 376.35
  A 1.46 1.46 0.0 0 1 179.12 378.26
  Q 177.97 379.33 176.73 378.47
  Q 172.69 375.64 170.44 371.87
  A 0.41 0.41 0.0 0 1 170.90 371.27
  Z"
/>
<path fill="#000000" fill-opacity="0.882" d="
  M 158.52 384.46
  C 155.88 380.15 158.30 378.19 159.12 374.07
  A 0.32 0.32 0.0 0 1 159.68 373.93
  C 161.88 376.51 161.67 381.00 161.05 384.09
  Q 160.93 384.69 160.38 384.97
  Q 159.20 385.58 158.52 384.46
  Z"
/>
<path fill="#000000" fill-opacity="0.882" d="
  M 368.07 375.85
  Q 372.07 375.54 377.13 374.63
  Q 379.68 374.17 382.26 374.56
  A 3.23 3.22 89.2 0 1 384.94 377.18
  Q 385.52 380.39 385.22 383.84
  Q 383.98 398.10 381.45 412.04
  A 6.58 6.54 -12.9 0 1 378.84 416.18
  Q 378.26 416.60 376.62 417.78
  Q 374.44 419.35 374.96 416.71
  Q 377.02 406.13 378.62 392.75
  C 379.00 389.50 379.07 384.79 374.04 385.91
  C 369.55 386.92 358.37 389.49 359.54 381.56
  Q 360.19 377.11 363.98 374.48
  Q 365.40 373.49 366.26 374.99
  Q 366.44 375.32 366.77 375.51
  A 2.42 1.87 52.3 0 0 368.07 375.85
  Z"
/>
<path fill="#000000" fill-opacity="0.882" d="
  M 198.50 436.28
  Q 197.12 436.13 198.19 437.02
  C 200.33 438.80 203.66 439.30 203.80 442.62
  Q 203.82 443.21 203.30 443.50
  C 198.84 446.01 192.33 443.08 188.70 440.18
  C 187.96 439.58 187.18 438.51 186.85 437.62
  A 2.17 2.17 0.0 0 1 188.34 434.76
  C 191.58 433.91 194.65 433.60 197.91 433.86
  Q 219.93 435.56 237.85 449.15
  Q 240.79 451.38 242.91 455.13
  C 244.37 457.69 243.54 460.33 240.71 461.11
  Q 227.62 464.73 218.01 457.34
  Q 216.83 456.44 217.54 457.75
  C 219.24 460.89 215.63 463.24 212.89 463.40
  C 205.62 463.82 199.16 462.02 193.30 457.40
  Q 191.59 456.04 191.01 454.08
  A 1.97 1.97 0.0 0 1 192.34 451.63
  C 196.86 450.31 203.30 450.87 206.38 455.03
  A 1.02 1.01 57.7 0 1 206.05 456.53
  Q 204.55 457.33 202.89 457.54
  Q 201.97 457.66 202.80 457.26
  Q 203.52 456.92 204.31 456.57
  A 0.79 0.78 52.4 0 0 204.48 455.24
  Q 199.84 451.54 193.22 452.83
  A 1.57 1.57 0.0 0 0 192.30 455.36
  C 195.60 459.44 203.72 460.84 208.60 460.19
  C 212.39 459.69 215.87 459.90 215.39 455.15
  A 0.40 0.39 -74.6 0 1 216.02 454.79
  Q 224.60 461.18 235.49 458.35
  C 238.53 457.55 238.86 454.46 237.39 452.10
  Q 235.12 448.46 230.92 445.63
  C 222.47 439.93 213.49 437.14 203.50 436.67
  Q 200.96 436.55 198.50 436.28
  Z
  M 200.6078 440.9171
  A 5.76 2.85 12.3 0 0 195.5871 436.9054
  A 5.76 2.85 12.3 0 0 189.3522 438.4629
  A 5.76 2.85 12.3 0 0 194.3729 442.4746
  A 5.76 2.85 12.3 0 0 200.6078 440.9171
  Z"
/>
<path fill="#000000" fill-opacity="0.882" d="
  M 378.70 442.65
  Q 378.21 442.30 377.61 442.49
  Q 373.01 443.94 369.91 446.96
  Q 369.37 447.48 369.51 448.23
  A 0.58 0.57 -14.7 0 1 369.12 448.89
  Q 368.37 449.12 368.00 448.39
  A 0.84 0.83 -42.1 0 1 368.05 447.55
  C 370.65 443.43 374.70 442.08 379.07 440.44
  Q 383.02 438.96 380.80 442.55
  C 379.32 444.96 376.37 450.92 373.74 451.81
  Q 372.64 452.18 373.44 451.33
  Q 376.71 447.87 378.93 443.59
  A 0.74 0.74 0.0 0 0 378.70 442.65
  Z"
/>
<path fill="#000000" fill-opacity="0.882" d="
  M 348.26 457.24
  A 0.27 0.27 0.0 0 0 348.18 457.68
  L 348.37 457.87
  Q 348.47 457.97 348.60 457.94
  L 352.88 457.10
  A 0.80 0.80 0.0 0 1 353.61 458.44
  Q 349.61 462.57 343.43 462.53
  A 0.67 0.67 0.0 0 1 342.83 461.56
  C 345.51 456.28 356.56 452.17 362.29 452.47
  A 0.91 0.91 0.0 0 1 362.89 454.01
  Q 362.24 454.68 361.80 455.41
  Q 361.30 456.25 362.25 456.03
  C 364.36 455.56 366.20 454.74 367.31 452.74
  C 368.52 450.54 370.13 447.73 372.76 447.23
  Q 373.49 447.09 373.14 447.75
  C 371.50 450.84 369.33 454.38 365.69 455.55
  Q 360.28 457.28 354.51 459.77
  Q 354.50 459.77 354.49 459.76
  L 354.38 459.53
  Q 354.28 459.31 354.50 459.20
  Q 357.30 457.77 359.01 455.29
  A 0.76 0.76 0.0 0 0 358.45 454.10
  C 355.31 453.83 351.11 455.97 348.26 457.24
  Z
  M 349.44 459.93
  Q 350.86 459.10 349.24 458.84
  Q 347.26 458.52 345.11 460.75
  A 0.26 0.26 0.0 0 0 345.30 461.19
  Q 347.26 461.20 349.44 459.93
  Z"
/>
</svg>
