<?xml version="1.0" encoding="UTF-8" standalone="no"?>
<!DOCTYPE svg PUBLIC "-//W3C//DTD SVG 1.1//EN" "http://www.w3.org/Graphics/SVG/1.1/DTD/svg11.dtd">
<svg xmlns="http://www.w3.org/2000/svg" version="1.1" viewBox="0.00 0.00 1448.00 1448.00">
<path fill="#000000" d="
  M 1448.00 343.54
  L 1448.00 358.34
  C 1447.52 364.79 1447.36 371.73 1446.66 377.72
  Q 1436.24 466.07 1372.55 529.66
  Q 1198.18 703.78 1030.27 871.91
  C 1021.05 881.15 1008.49 885.64 995.79 883.70
  C 983.53 881.83 972.39 874.30 966.30 863.42
  C 957.55 847.81 959.82 828.00 972.63 815.18
  Q 1143.59 644.12 1315.47 472.40
  Q 1320.87 467.00 1325.42 461.78
  C 1383.73 394.84 1380.46 294.35 1317.29 231.28
  Q 1292.62 206.66 1269.25 183.17
  Q 1261.30 175.18 1254.68 169.68
  C 1191.89 117.49 1100.00 117.65 1037.51 171.01
  C 1029.68 177.70 1021.80 185.95 1014.16 193.57
  Q 1011.48 196.23 1008.00 198.89
  Q 1005.14 201.08 1001.85 204.43
  C 997.75 208.61 990.97 212.35 985.18 213.83
  Q 965.72 218.81 949.86 207.06
  C 942.56 201.66 937.06 193.25 934.93 184.49
  Q 931.19 169.07 939.15 154.60
  Q 941.69 149.97 949.59 142.09
  Q 957.07 134.64 964.00 127.79
  C 965.04 126.76 966.30 126.80 967.20 125.90
  Q 980.33 112.81 989.05 105.80
  Q 1048.80 57.75 1124.78 50.76
  C 1193.26 44.47 1262.14 67.29 1313.15 113.18
  Q 1320.44 119.74 1327.38 126.74
  Q 1348.09 147.63 1369.28 168.57
  Q 1377.13 176.32 1382.81 182.58
  Q 1444.16 250.29 1448.00 343.54
  Z"
/>
<path fill="#d6ffd2" d="
  M 640.41 690.41
  Q 641.47 692.84 642.16 695.46
  Q 642.80 697.91 643.67 700.30
  Q 653.48 727.51 671.60 749.91
  C 672.98 751.62 674.56 753.02 675.81 754.82
  Q 676.65 756.04 677.78 757.07
  Q 682.77 761.63 686.57 766.57
  Q 692.80 774.66 694.58 784.69
  C 695.30 788.73 694.93 792.86 695.00 796.92
  Q 695.01 797.52 694.70 798.03
  C 694.15 798.97 694.35 799.94 694.09 801.00
  Q 691.72 810.61 685.64 817.89
  Q 676.97 828.26 663.40 831.54
  Q 662.22 831.82 661.06 831.80
  C 659.81 831.77 659.08 832.51 657.89 832.51
  Q 653.97 832.50 650.21 832.52
  Q 649.71 832.52 649.29 832.24
  C 648.13 831.48 646.83 831.95 645.53 831.62
  Q 633.79 828.65 626.96 822.03
  Q 623.32 818.51 619.48 814.60
  Q 617.73 812.82 616.14 810.87
  Q 614.78 809.22 612.80 807.02
  Q 607.07 800.64 598.59 788.93
  Q 587.14 773.12 578.91 755.99
  Q 578.69 755.55 578.31 755.23
  Q 577.93 754.92 577.87 754.45
  Q 577.82 754.07 577.66 753.74
  Q 559.54 716.48 554.36 675.44
  Q 554.17 673.94 554.17 672.48
  C 554.16 670.71 553.47 669.57 553.54 667.82
  Q 553.63 665.39 553.27 663.24
  Q 552.77 660.26 552.77 658.72
  Q 552.76 654.02 552.77 649.20
  Q 552.78 647.28 552.30 645.70
  C 551.59 643.39 552.79 641.82 552.78 639.63
  Q 552.76 632.74 552.79 625.80
  Q 552.79 625.32 553.09 624.94
  L 553.31 624.66
  A 0.85 0.77 -27.4 0 0 553.48 624.20
  C 553.54 622.07 553.17 619.50 553.81 617.43
  C 554.45 615.38 553.95 613.30 554.54 611.13
  Q 554.96 609.58 554.84 607.93
  Q 554.81 607.41 555.06 606.95
  Q 555.55 606.07 555.54 605.03
  Q 555.53 604.08 555.74 603.05
  Q 556.36 600.03 556.78 596.98
  C 556.98 595.49 557.64 594.61 557.54 593.01
  Q 557.51 592.50 557.78 592.05
  Q 558.16 591.42 558.22 590.67
  Q 558.43 587.98 559.41 585.33
  Q 559.62 584.78 559.51 584.20
  Q 559.42 583.73 559.72 583.34
  Q 560.08 582.87 560.18 582.27
  Q 560.73 579.10 561.75 576.09
  Q 562.02 575.31 562.46 573.36
  Q 562.77 571.96 563.42 570.66
  A 2.03 1.93 -32.2 0 0 563.64 569.80
  Q 563.67 569.06 563.95 568.20
  Q 578.42 523.17 608.01 486.34
  Q 610.59 483.12 613.25 480.46
  Q 613.48 480.23 613.53 479.91
  Q 613.55 479.77 613.60 479.62
  Q 613.69 479.37 613.89 479.20
  Q 617.13 476.21 619.76 473.08
  Q 620.32 472.42 620.88 471.85
  Q 647.26 445.01 686.76 405.67
  C 689.80 402.64 693.12 400.09 696.49 397.78
  Q 702.33 393.76 710.10 391.94
  C 711.47 391.62 712.93 392.01 714.10 391.27
  Q 714.52 391.00 715.02 391.00
  L 723.00 391.00
  Q 723.56 391.00 723.99 391.34
  Q 724.67 391.86 725.58 391.76
  Q 726.46 391.67 727.37 391.86
  Q 740.81 394.73 750.04 405.24
  Q 760.55 417.20 759.80 434.49
  Q 759.40 443.73 754.85 451.72
  C 752.53 455.80 749.55 459.48 746.24 462.79
  Q 737.37 471.66 730.25 478.67
  Q 729.54 479.37 728.59 479.92
  Q 728.10 480.21 727.70 480.61
  Q 704.30 504.02 679.49 528.82
  Q 678.15 530.16 677.05 531.73
  C 676.05 533.16 674.67 534.25 673.53 535.62
  Q 663.99 547.08 656.47 559.96
  Q 655.56 561.53 654.65 563.30
  Q 653.81 564.93 652.82 566.61
  Q 651.66 568.59 650.50 571.11
  Q 643.04 587.34 639.18 602.55
  Q 636.71 612.25 635.68 621.24
  Q 633.52 640.09 634.73 657.97
  Q 635.48 669.19 638.35 681.99
  Q 639.30 686.22 640.34 689.28
  Q 640.41 689.48 640.37 689.68
  Q 640.35 689.83 640.34 689.99
  A 0.84 0.83 -54.9 0 0 640.41 690.41
  Z"
/>
<path fill="#000000" d="
  M 0.00 1104.69
  L 0.00 1089.39
  Q 0.97 1065.25 5.15 1045.99
  Q 20.97 972.93 74.04 919.80
  Q 101.09 892.71 127.91 865.90
  Q 129.85 863.96 131.30 862.60
  Q 133.07 860.93 135.12 860.34
  C 137.49 859.65 139.58 858.21 141.94 857.46
  Q 161.06 851.38 176.93 861.36
  C 191.87 870.75 199.45 888.79 194.62 906.24
  Q 192.16 915.14 187.00 921.06
  Q 183.88 924.64 179.39 929.13
  Q 155.13 953.35 131.83 976.55
  Q 94.51 1013.71 84.60 1063.79
  C 74.63 1114.24 87.44 1165.33 120.22 1204.92
  Q 125.68 1211.51 133.63 1219.38
  Q 156.12 1241.62 178.41 1264.16
  Q 186.34 1272.18 192.80 1277.58
  Q 237.88 1315.31 297.52 1317.21
  Q 307.48 1317.53 317.48 1316.51
  Q 378.22 1310.35 421.85 1266.68
  Q 593.29 1095.09 762.05 926.53
  Q 770.18 918.41 775.22 912.36
  Q 810.65 869.82 814.30 813.99
  Q 814.96 803.86 814.30 794.03
  Q 810.61 738.36 775.31 695.80
  Q 771.12 690.75 766.73 686.45
  C 755.53 675.46 750.84 660.88 754.95 645.57
  C 758.18 633.53 767.84 622.78 779.30 618.63
  Q 800.72 610.88 818.38 624.05
  Q 823.16 627.61 830.56 635.86
  Q 858.45 666.96 874.14 702.65
  C 913.30 791.78 897.93 895.43 833.65 968.77
  Q 828.97 974.11 819.85 983.24
  Q 650.71 1152.44 482.25 1320.85
  Q 472.68 1330.42 467.85 1334.73
  C 395.56 1399.39 291.25 1416.43 202.35 1377.75
  Q 159.96 1359.31 129.02 1329.21
  Q 117.31 1317.83 73.96 1274.19
  Q 65.21 1265.39 60.27 1259.62
  Q 3.61 1193.48 0.00 1104.69
  Z"
/>
</svg>
