<?xml version="1.0" encoding="UTF-8" standalone="no"?>
<!DOCTYPE svg PUBLIC "-//W3C//DTD SVG 1.1//EN" "http://www.w3.org/Graphics/SVG/1.1/DTD/svg11.dtd">
<svg xmlns="http://www.w3.org/2000/svg" version="1.1" viewBox="0.00 0.00 139.00 139.00">
<g stroke-width="2.00" fill="none" stroke-linecap="butt">
<path stroke="#7f5269" vector-effect="non-scaling-stroke" d="
  M 63.46 7.73
  C 64.15 8.60 64.52 9.62 63.90 10.64
  Q 62.07 13.69 61.12 16.84
  A 0.28 0.27 -81.4 0 0 61.38 17.20
  L 69.42 17.18"
/>
<path stroke="#7d4261" vector-effect="non-scaling-stroke" d="
  M 69.42 17.18
  L 75.92 17.18
  Q 76.44 17.18 76.31 16.68
  Q 74.18 8.58 67.24 3.44"
/>
<path stroke="#606367" vector-effect="non-scaling-stroke" d="
  M 67.19 43.73
  Q 71.42 44.47 74.29 41.64
  Q 74.64 41.29 74.39 40.86
  C 73.29 38.94 71.45 36.60 72.35 34.34
  Q 73.68 31.03 76.34 30.14
  Q 76.95 29.93 76.96 29.28
  L 76.97 21.76
  Q 76.97 21.26 76.46 21.26
  L 70.31 21.27"
/>
<path stroke="#717173" vector-effect="non-scaling-stroke" d="
  M 70.31 21.27
  L 61.01 21.29
  Q 60.51 21.29 60.51 21.79
  L 60.48 29.46
  Q 60.48 29.92 60.91 30.09
  Q 65.45 31.80 65.02 36.45
  C 64.86 38.20 63.78 39.49 62.92 40.94
  Q 62.64 41.43 63.06 41.81
  Q 64.93 43.46 67.19 43.73"
/>
<path stroke="#d1d4d9" vector-effect="non-scaling-stroke" d="
  M 70.31 21.27
  Q 69.97 28.14 69.99 35.01
  Q 69.99 37.20 69.04 39.29
  Q 68.06 41.47 67.19 43.73"
/>
<path stroke="#7f5269" vector-effect="non-scaling-stroke" d="
  M 60.78 36.74
  Q 61.76 35.46 60.41 34.39
  C 58.84 33.14 56.70 34.11 56.70 36.13
  Q 56.71 39.32 56.66 41.89
  Q 56.65 42.79 57.18 42.07
  C 58.42 40.35 59.50 38.42 60.78 36.74"
/>
<path stroke="#7f5269" vector-effect="non-scaling-stroke" d="
  M 80.41 42.11
  Q 80.74 42.49 80.74 41.99
  L 80.73 36.08
  Q 80.73 33.68 78.33 33.80
  Q 76.96 33.87 76.45 35.15
  A 1.40 1.39 42.7 0 0 76.50 36.33
  Q 78.05 39.33 80.41 42.11"
/>
<path stroke="#fc94ca" vector-effect="non-scaling-stroke" d="
  M 69.42 17.18
  Q 68.60 11.07 64.25 6.67"
/>
<path stroke="#424950" vector-effect="non-scaling-stroke" d="
  M 39.19 116.53
  Q 50.09 112.03 55.49 101.75
  Q 55.79 101.18 55.18 100.96
  C 46.72 97.87 44.35 86.98 51.75 81.15
  C 56.01 77.79 62.25 78.15 66.24 81.85
  Q 66.96 82.52 67.62 81.80
  Q 72.59 76.39 73.20 69.39
  Q 73.24 68.90 72.74 68.90
  L 28.47 68.90
  Q 27.90 68.90 27.72 69.44
  Q 27.16 71.09 26.97 72.81
  C 25.48 85.95 26.39 99.01 34.72 109.62
  A 1.20 1.18 29.7 0 1 34.96 110.47
  Q 34.86 111.34 34.44 112.17"
/>
<path stroke="#537e80" vector-effect="non-scaling-stroke" d="
  M 97.10 56.47
  Q 97.28 56.10 97.58 55.80
  Q 98.57 54.81 99.84 55.42
  L 104.94 57.90
  Q 105.63 58.23 105.96 57.54
  L 108.46 52.42
  Q 108.75 51.83 108.15 51.55
  C 106.61 50.85 103.41 50.00 104.08 47.76
  A 2.03 2.02 -74.1 0 1 106.53 46.39
  Q 108.15 46.83 109.57 47.92
  Q 110.39 48.55 110.88 47.64
  Q 111.94 45.70 112.25 44.06
  Q 112.62 42.16 110.87 41.32
  L 101.78 36.95
  A 2.70 2.70 0.0 0 0 98.18 38.20
  L 85.46 64.23
  Q 85.19 64.79 85.81 64.79
  L 102.02 64.80
  Q 102.71 64.80 102.80 64.10
  Q 102.92 63.19 103.60 62.51
  Q 104.09 62.02 103.47 61.71
  L 97.96 58.97
  Q 96.30 58.15 97.10 56.47"
/>
<path stroke="#80724a" vector-effect="non-scaling-stroke" d="
  M 35.85 41.78
  A 0.36 0.36 0.0 0 0 35.51 41.71
  L 31.79 42.87
  A 0.36 0.36 0.0 0 0 31.55 43.14
  L 29.43 53.28
  A 0.36 0.36 0.0 0 0 29.76 53.71
  L 37.27 54.11
  A 0.36 0.36 0.0 0 0 37.53 54.02
  L 43.31 48.64
  A 0.36 0.36 0.0 0 0 43.30 48.10
  L 35.85 41.78"
/>
<path stroke="#7f6314" vector-effect="non-scaling-stroke" d="
  M 43.13 64.55
  A 0.34 0.34 0.0 0 0 43.46 64.78
  L 49.72 64.80
  A 0.34 0.34 0.0 0 0 50.04 64.35
  L 45.92 52.37
  A 0.34 0.34 0.0 0 0 45.37 52.24
  L 40.75 56.65
  A 0.34 0.34 0.0 0 0 40.66 57.00
  L 43.13 64.55"
/>
<path stroke="#7f6314" vector-effect="non-scaling-stroke" d="
  M 36.80 58.23
  A 0.40 0.40 0.0 0 0 36.44 57.96
  L 30.41 57.67
  A 0.40 0.40 0.0 0 0 30.02 58.19
  L 32.13 64.52
  A 0.40 0.40 0.0 0 0 32.51 64.79
  L 38.40 64.78
  A 0.40 0.40 0.0 0 0 38.78 64.26
  L 36.80 58.23"
/>
<path stroke="#806f68" vector-effect="non-scaling-stroke" d="
  M 60.82 98.68
  A 1.20 1.17 -51.2 0 1 60.93 99.79
  Q 55.84 112.37 43.76 119.02
  A 1.05 1.05 0.0 0 0 43.22 119.94
  L 43.22 134.32
  Q 43.22 134.92 43.82 134.92
  L 70.36 134.91
  A 0.62 0.62 0.0 0 0 70.98 134.29
  L 70.97 125.98
  A 1.93 1.92 -0.3 0 1 72.88 124.06
  Q 76.98 124.01 81.44 124.00
  C 83.27 124.00 84.83 123.45 86.59 123.09
  Q 88.83 122.63 90.32 121.97
  Q 106.34 114.86 107.09 96.46
  A 1.56 1.56 0.0 0 1 108.61 94.96
  L 110.77 94.90
  A 2.19 2.19 0.0 0 0 112.58 91.57
  Q 106.19 81.10 105.38 69.49
  Q 105.34 68.90 104.75 68.90
  L 77.68 68.90
  A 0.44 0.43 2.1 0 0 77.24 69.30
  Q 76.26 80.59 67.81 86.92
  A 1.83 1.83 0.0 0 1 65.29 86.61
  C 57.06 76.52 45.99 89.20 54.25 95.91
  C 56.16 97.47 59.61 96.88 60.82 98.68"
/>
<path stroke="#806f68" vector-effect="non-scaling-stroke" d="
  M 92.13 79.28
  Q 94.34 80.18 94.48 82.36
  Q 94.59 84.13 96.31 84.58
  Q 96.68 84.67 97.03 84.51
  Q 98.83 83.68 98.50 81.73
  Q 97.54 76.19 92.43 75.33
  C 88.14 74.61 83.54 77.76 83.70 82.58
  C 83.76 84.33 85.78 85.21 87.10 84.03
  A 1.84 1.84 0.0 0 0 87.71 82.78
  C 87.83 80.66 89.95 78.39 92.13 79.28"
/>
<path stroke="#806f68" vector-effect="non-scaling-stroke" d="
  M 60.18 90.05
  A 2.01 2.01 0.0 0 0 58.17 88.04
  A 2.01 2.01 0.0 0 0 56.16 90.05
  A 2.01 2.01 0.0 0 0 58.17 92.06
  A 2.01 2.01 0.0 0 0 60.18 90.05"
/>
</g>
<path fill="#000000" d="
  M 68.36 0.00
  L 69.49 0.00
  C 76.52 5.33 81.30 13.39 81.17 22.26
  Q 81.11 26.00 81.11 29.56
  Q 81.11 30.06 81.47 30.41
  C 81.99 30.91 82.67 31.18 83.14 31.75
  Q 84.83 33.83 84.87 36.04
  Q 84.96 41.00 84.89 46.11
  Q 84.79 54.00 79.57 48.19
  Q 78.85 47.39 77.61 45.17
  Q 77.27 44.57 76.73 44.99
  Q 68.67 51.16 60.68 45.07
  Q 60.22 44.72 59.87 45.18
  L 56.31 49.78
  Q 55.62 50.67 54.49 50.64
  Q 52.67 50.59 52.70 48.69
  Q 52.79 43.20 52.71 36.54
  Q 52.66 32.22 55.94 30.50
  A 1.04 1.03 -15.4 0 0 56.50 29.52
  C 56.13 21.83 56.20 15.29 60.50 8.44
  C 61.12 7.44 62.43 7.44 63.46 7.73
  C 64.15 8.60 64.52 9.62 63.90 10.64
  Q 62.07 13.69 61.12 16.84
  A 0.28 0.27 -81.4 0 0 61.38 17.20
  L 69.42 17.18
  L 75.92 17.18
  Q 76.44 17.18 76.31 16.68
  Q 74.18 8.58 67.24 3.44
  Q 66.44 0.96 68.36 0.00
  Z
  M 67.19 43.73
  Q 71.42 44.47 74.29 41.64
  Q 74.64 41.29 74.39 40.86
  C 73.29 38.94 71.45 36.60 72.35 34.34
  Q 73.68 31.03 76.34 30.14
  Q 76.95 29.93 76.96 29.28
  L 76.97 21.76
  Q 76.97 21.26 76.46 21.26
  L 70.31 21.27
  L 61.01 21.29
  Q 60.51 21.29 60.51 21.79
  L 60.48 29.46
  Q 60.48 29.92 60.91 30.09
  Q 65.45 31.80 65.02 36.45
  C 64.86 38.20 63.78 39.49 62.92 40.94
  Q 62.64 41.43 63.06 41.81
  Q 64.93 43.46 67.19 43.73
  Z
  M 60.78 36.74
  Q 61.76 35.46 60.41 34.39
  C 58.84 33.14 56.70 34.11 56.70 36.13
  Q 56.71 39.32 56.66 41.89
  Q 56.65 42.79 57.18 42.07
  C 58.42 40.35 59.50 38.42 60.78 36.74
  Z
  M 80.41 42.11
  Q 80.74 42.49 80.74 41.99
  L 80.73 36.08
  Q 80.73 33.68 78.33 33.80
  Q 76.96 33.87 76.45 35.15
  A 1.40 1.39 42.7 0 0 76.50 36.33
  Q 78.05 39.33 80.41 42.11
  Z"
/>
<path fill="#000000" d="
  M 91.07 0.00
  L 91.85 0.00
  Q 93.49 0.52 93.48 3.44
  Q 93.47 4.45 94.45 4.19
  Q 96.57 3.62 97.47 5.49
  A 1.80 1.80 0.0 0 1 95.91 8.06
  L 93.99 8.13
  A 0.59 0.59 0.0 0 0 93.43 8.79
  C 93.66 10.47 93.49 12.47 91.17 12.28
  A 1.82 1.81 -87.8 0 1 89.50 10.47
  L 89.50 8.96
  Q 89.50 7.93 88.49 8.09
  Q 85.59 8.53 85.27 5.85
  A 1.56 1.56 0.0 0 1 86.85 4.11
  L 88.97 4.15
  Q 89.56 4.16 89.48 3.57
  Q 89.09 0.72 91.07 0.00
  Z"
/>
<path fill="#fa83c1" d="
  M 67.24 3.44
  Q 74.18 8.58 76.31 16.68
  Q 76.44 17.18 75.92 17.18
  L 69.42 17.18
  Q 68.60 11.07 64.25 6.67
  L 67.24 3.44
  Z"
/>
<path fill="#fda4d2" d="
  M 64.25 6.67
  Q 68.60 11.07 69.42 17.18
  L 61.38 17.20
  A 0.28 0.27 -81.4 0 1 61.12 16.84
  Q 62.07 13.69 63.90 10.64
  C 64.52 9.62 64.15 8.60 63.46 7.73
  L 64.25 6.67
  Z"
/>
<path fill="#000000" d="
  M 40.69 18.94
  C 41.20 21.13 39.73 22.58 37.53 21.97
  A 0.98 0.97 83.3 0 1 36.92 21.48
  Q 36.28 20.28 36.53 18.92
  Q 36.65 18.26 35.97 18.26
  L 34.20 18.24
  A 1.31 1.25 62.8 0 1 33.42 17.97
  C 31.11 16.23 33.19 13.55 35.82 14.13
  A 0.61 0.61 0.0 0 0 36.54 13.40
  Q 36.27 12.21 36.80 11.14
  C 37.49 9.74 39.30 9.63 40.20 10.92
  C 40.85 11.85 40.69 12.55 40.72 13.59
  A 0.59 0.58 82.0 0 0 41.44 14.14
  C 45.67 13.12 45.76 19.34 41.47 18.18
  A 0.63 0.63 0.0 0 0 40.69 18.94
  Z"
/>
<path fill="#000000" d="
  M 108.35 19.28
  Q 109.52 19.23 110.60 19.59
  Q 111.02 19.73 111.26 20.10
  Q 112.17 21.51 111.03 22.86
  Q 110.71 23.23 110.21 23.24
  L 108.28 23.27
  Q 107.59 23.28 107.59 23.97
  L 107.58 25.51
  A 1.88 1.87 -0.2 0 1 105.71 27.38
  Q 103.63 27.39 103.61 25.08
  Q 103.61 24.56 103.60 24.07
  Q 103.59 22.94 102.50 23.22
  Q 100.77 23.67 99.82 22.47
  Q 98.95 21.36 99.78 20.27
  Q 100.77 18.96 102.61 19.34
  Q 103.82 19.59 103.62 18.38
  Q 103.36 16.83 104.29 15.74
  A 1.76 1.76 0.0 0 1 107.37 16.59
  L 107.73 18.78
  Q 107.82 19.31 108.35 19.28
  Z"
/>
<path fill="#e1e2e5" d="
  M 70.31 21.27
  Q 69.97 28.14 69.99 35.01
  Q 69.99 37.20 69.04 39.29
  Q 68.06 41.47 67.19 43.73
  Q 64.93 43.46 63.06 41.81
  Q 62.64 41.43 62.92 40.94
  C 63.78 39.49 64.86 38.20 65.02 36.45
  Q 65.45 31.80 60.91 30.09
  Q 60.48 29.92 60.48 29.46
  L 60.51 21.79
  Q 60.51 21.29 61.01 21.29
  L 70.31 21.27
  Z"
/>
<path fill="#c0c5cd" d="
  M 70.31 21.27
  L 76.46 21.26
  Q 76.97 21.26 76.97 21.76
  L 76.96 29.28
  Q 76.95 29.93 76.34 30.14
  Q 73.68 31.03 72.35 34.34
  C 71.45 36.60 73.29 38.94 74.39 40.86
  Q 74.64 41.29 74.29 41.64
  Q 71.42 44.47 67.19 43.73
  Q 68.06 41.47 69.04 39.29
  Q 69.99 37.20 69.99 35.01
  Q 69.97 28.14 70.31 21.27
  Z"
/>
<path fill="#000000" d="
  M 74.14 139.00
  L 40.44 139.00
  C 39.52 138.35 39.03 137.70 39.02 136.50
  Q 38.89 126.41 39.19 116.53
  Q 50.09 112.03 55.49 101.75
  Q 55.79 101.18 55.18 100.96
  C 46.72 97.87 44.35 86.98 51.75 81.15
  C 56.01 77.79 62.25 78.15 66.24 81.85
  Q 66.96 82.52 67.62 81.80
  Q 72.59 76.39 73.20 69.39
  Q 73.24 68.90 72.74 68.90
  L 28.47 68.90
  Q 27.90 68.90 27.72 69.44
  Q 27.16 71.09 26.97 72.81
  C 25.48 85.95 26.39 99.01 34.72 109.62
  A 1.20 1.18 29.7 0 1 34.96 110.47
  Q 34.86 111.34 34.44 112.17
  Q 33.20 112.59 32.06 112.31
  Q 31.60 112.20 31.31 111.83
  Q 25.18 103.91 23.47 94.31
  Q 22.85 90.81 22.32 87.06
  C 21.55 81.59 22.65 75.73 23.31 70.17
  Q 23.53 68.32 24.24 66.08
  C 24.68 64.71 26.05 64.58 27.24 64.86
  A 0.50 0.50 0.0 0 0 27.82 64.20
  Q 26.58 60.85 25.38 57.30
  Q 24.79 55.56 25.20 53.50
  Q 26.06 49.23 27.03 45.01
  Q 27.64 42.41 27.93 40.04
  C 28.16 38.21 29.07 36.92 29.11 35.04
  A 1.94 1.94 0.0 0 1 32.09 33.45
  Q 33.25 34.18 34.35 35.14
  Q 41.15 41.03 47.87 46.53
  A 2.44 2.41 -79.6 0 1 48.64 47.66
  L 54.25 64.23
  Q 54.44 64.79 55.03 64.79
  L 62.35 64.80
  Q 63.00 64.80 63.00 64.15
  L 63.00 52.18
  A 1.69 1.68 -2.0 0 1 64.57 50.50
  L 64.83 50.48
  Q 67.07 50.33 67.07 52.58
  L 67.06 64.18
  Q 67.06 64.80 67.68 64.79
  L 70.06 64.79
  Q 70.66 64.79 70.66 64.19
  L 70.65 52.25
  Q 70.65 50.40 72.50 50.48
  L 72.95 50.50
  Q 74.59 50.57 74.59 52.20
  L 74.59 64.07
  Q 74.59 64.79 75.32 64.79
  L 80.04 64.80
  Q 80.67 64.80 80.95 64.23
  Q 87.76 50.22 94.60 36.35
  Q 96.39 32.72 100.74 32.67
  Q 102.52 32.65 105.50 34.18
  C 108.51 35.74 113.80 37.62 115.26 40.01
  Q 117.35 43.44 115.56 47.14
  Q 111.33 55.83 107.21 64.20
  A 0.37 0.37 0.0 0 0 107.47 64.73
  Q 109.40 65.14 109.44 67.27
  Q 109.52 71.45 110.21 74.91
  Q 111.69 82.28 116.26 89.89
  C 118.62 93.81 115.57 97.93 111.66 99.00
  Q 111.13 99.15 111.06 99.69
  Q 110.58 103.59 109.22 107.35
  Q 103.63 122.83 87.21 127.20
  C 83.62 128.15 79.42 127.92 75.67 127.87
  Q 75.13 127.86 75.19 128.40
  Q 75.90 134.77 74.14 139.00
  Z
  M 97.10 56.47
  Q 97.28 56.10 97.58 55.80
  Q 98.57 54.81 99.84 55.42
  L 104.94 57.90
  Q 105.63 58.23 105.96 57.54
  L 108.46 52.42
  Q 108.75 51.83 108.15 51.55
  C 106.61 50.85 103.41 50.00 104.08 47.76
  A 2.03 2.02 -74.1 0 1 106.53 46.39
  Q 108.15 46.83 109.57 47.92
  Q 110.39 48.55 110.88 47.64
  Q 111.94 45.70 112.25 44.06
  Q 112.62 42.16 110.87 41.32
  L 101.78 36.95
  A 2.70 2.70 0.0 0 0 98.18 38.20
  L 85.46 64.23
  Q 85.19 64.79 85.81 64.79
  L 102.02 64.80
  Q 102.71 64.80 102.80 64.10
  Q 102.92 63.19 103.60 62.51
  Q 104.09 62.02 103.47 61.71
  L 97.96 58.97
  Q 96.30 58.15 97.10 56.47
  Z
  M 35.85 41.78
  A 0.36 0.36 0.0 0 0 35.51 41.71
  L 31.79 42.87
  A 0.36 0.36 0.0 0 0 31.55 43.14
  L 29.43 53.28
  A 0.36 0.36 0.0 0 0 29.76 53.71
  L 37.27 54.11
  A 0.36 0.36 0.0 0 0 37.53 54.02
  L 43.31 48.64
  A 0.36 0.36 0.0 0 0 43.30 48.10
  L 35.85 41.78
  Z
  M 43.13 64.55
  A 0.34 0.34 0.0 0 0 43.46 64.78
  L 49.72 64.80
  A 0.34 0.34 0.0 0 0 50.04 64.35
  L 45.92 52.37
  A 0.34 0.34 0.0 0 0 45.37 52.24
  L 40.75 56.65
  A 0.34 0.34 0.0 0 0 40.66 57.00
  L 43.13 64.55
  Z
  M 36.80 58.23
  A 0.40 0.40 0.0 0 0 36.44 57.96
  L 30.41 57.67
  A 0.40 0.40 0.0 0 0 30.02 58.19
  L 32.13 64.52
  A 0.40 0.40 0.0 0 0 32.51 64.79
  L 38.40 64.78
  A 0.40 0.40 0.0 0 0 38.78 64.26
  L 36.80 58.23
  Z
  M 60.82 98.68
  A 1.20 1.17 -51.2 0 1 60.93 99.79
  Q 55.84 112.37 43.76 119.02
  A 1.05 1.05 0.0 0 0 43.22 119.94
  L 43.22 134.32
  Q 43.22 134.92 43.82 134.92
  L 70.36 134.91
  A 0.62 0.62 0.0 0 0 70.98 134.29
  L 70.97 125.98
  A 1.93 1.92 -0.3 0 1 72.88 124.06
  Q 76.98 124.01 81.44 124.00
  C 83.27 124.00 84.83 123.45 86.59 123.09
  Q 88.83 122.63 90.32 121.97
  Q 106.34 114.86 107.09 96.46
  A 1.56 1.56 0.0 0 1 108.61 94.96
  L 110.77 94.90
  A 2.19 2.19 0.0 0 0 112.58 91.57
  Q 106.19 81.10 105.38 69.49
  Q 105.34 68.90 104.75 68.90
  L 77.68 68.90
  A 0.44 0.43 2.1 0 0 77.24 69.30
  Q 76.26 80.59 67.81 86.92
  A 1.83 1.83 0.0 0 1 65.29 86.61
  C 57.06 76.52 45.99 89.20 54.25 95.91
  C 56.16 97.47 59.61 96.88 60.82 98.68
  Z"
/>
<path fill="#fda4d2" d="
  M 60.78 36.74
  C 59.50 38.42 58.42 40.35 57.18 42.07
  Q 56.65 42.79 56.66 41.89
  Q 56.71 39.32 56.70 36.13
  C 56.70 34.11 58.84 33.14 60.41 34.39
  Q 61.76 35.46 60.78 36.74
  Z"
/>
<path fill="#fda4d2" d="
  M 80.41 42.11
  Q 78.05 39.33 76.50 36.33
  A 1.40 1.39 42.7 0 1 76.45 35.15
  Q 76.96 33.87 78.33 33.80
  Q 80.73 33.68 80.73 36.08
  L 80.74 41.99
  Q 80.74 42.49 80.41 42.11
  Z"
/>
<path fill="#a5fbff" d="
  M 97.96 58.97
  L 103.47 61.71
  Q 104.09 62.02 103.60 62.51
  Q 102.92 63.19 102.80 64.10
  Q 102.71 64.80 102.02 64.80
  L 85.81 64.79
  Q 85.19 64.79 85.46 64.23
  L 98.18 38.20
  A 2.70 2.70 0.0 0 1 101.78 36.95
  L 110.87 41.32
  Q 112.62 42.16 112.25 44.06
  Q 111.94 45.70 110.88 47.64
  Q 110.39 48.55 109.57 47.92
  Q 108.15 46.83 106.53 46.39
  A 2.03 2.02 -74.1 0 0 104.08 47.76
  C 103.41 50.00 106.61 50.85 108.15 51.55
  Q 108.75 51.83 108.46 52.42
  L 105.96 57.54
  Q 105.63 58.23 104.94 57.90
  L 99.84 55.42
  Q 98.57 54.81 97.58 55.80
  Q 97.28 56.10 97.10 56.47
  Q 96.30 58.15 97.96 58.97
  Z"
/>
<path fill="#ffe393" d="
  M 35.85 41.78
  L 43.30 48.10
  A 0.36 0.36 0.0 0 1 43.31 48.64
  L 37.53 54.02
  A 0.36 0.36 0.0 0 1 37.27 54.11
  L 29.76 53.71
  A 0.36 0.36 0.0 0 1 29.43 53.28
  L 31.55 43.14
  A 0.36 0.36 0.0 0 1 31.79 42.87
  L 35.51 41.71
  A 0.36 0.36 0.0 0 1 35.85 41.78
  Z"
/>
<path fill="#fdc627" d="
  M 43.13 64.55
  L 40.66 57.00
  A 0.34 0.34 0.0 0 1 40.75 56.65
  L 45.37 52.24
  A 0.34 0.34 0.0 0 1 45.92 52.37
  L 50.04 64.35
  A 0.34 0.34 0.0 0 1 49.72 64.80
  L 43.46 64.78
  A 0.34 0.34 0.0 0 1 43.13 64.55
  Z"
/>
<path fill="#fdc627" d="
  M 36.80 58.23
  L 38.78 64.26
  A 0.40 0.40 0.0 0 1 38.40 64.78
  L 32.51 64.79
  A 0.40 0.40 0.0 0 1 32.13 64.52
  L 30.02 58.19
  A 0.40 0.40 0.0 0 1 30.41 57.67
  L 36.44 57.96
  A 0.40 0.40 0.0 0 1 36.80 58.23
  Z"
/>
<path fill="#83919f" d="
  M 39.19 116.53
  L 34.44 112.17
  Q 34.86 111.34 34.96 110.47
  A 1.20 1.18 29.7 0 0 34.72 109.62
  C 26.39 99.01 25.48 85.95 26.97 72.81
  Q 27.16 71.09 27.72 69.44
  Q 27.90 68.90 28.47 68.90
  L 72.74 68.90
  Q 73.24 68.90 73.20 69.39
  Q 72.59 76.39 67.62 81.80
  Q 66.96 82.52 66.24 81.85
  C 62.25 78.15 56.01 77.79 51.75 81.15
  C 44.35 86.98 46.72 97.87 55.18 100.96
  Q 55.79 101.18 55.49 101.75
  Q 50.09 112.03 39.19 116.53
  Z"
/>
<path fill="#ffddd0" d="
  M 60.82 98.68
  C 59.61 96.88 56.16 97.47 54.25 95.91
  C 45.99 89.20 57.06 76.52 65.29 86.61
  A 1.83 1.83 0.0 0 0 67.81 86.92
  Q 76.26 80.59 77.24 69.30
  A 0.44 0.43 2.1 0 1 77.68 68.90
  L 104.75 68.90
  Q 105.34 68.90 105.38 69.49
  Q 106.19 81.10 112.58 91.57
  A 2.19 2.19 0.0 0 1 110.77 94.90
  L 108.61 94.96
  A 1.56 1.56 0.0 0 0 107.09 96.46
  Q 106.34 114.86 90.32 121.97
  Q 88.83 122.63 86.59 123.09
  C 84.83 123.45 83.27 124.00 81.44 124.00
  Q 76.98 124.01 72.88 124.06
  A 1.93 1.92 -0.3 0 0 70.97 125.98
  L 70.98 134.29
  A 0.62 0.62 0.0 0 1 70.36 134.91
  L 43.82 134.92
  Q 43.22 134.92 43.22 134.32
  L 43.22 119.94
  A 1.05 1.05 0.0 0 1 43.76 119.02
  Q 55.84 112.37 60.93 99.79
  A 1.20 1.17 -51.2 0 0 60.82 98.68
  Z
  M 92.13 79.28
  Q 94.34 80.18 94.48 82.36
  Q 94.59 84.13 96.31 84.58
  Q 96.68 84.67 97.03 84.51
  Q 98.83 83.68 98.50 81.73
  Q 97.54 76.19 92.43 75.33
  C 88.14 74.61 83.54 77.76 83.70 82.58
  C 83.76 84.33 85.78 85.21 87.10 84.03
  A 1.84 1.84 0.0 0 0 87.71 82.78
  C 87.83 80.66 89.95 78.39 92.13 79.28
  Z
  M 60.18 90.05
  A 2.01 2.01 0.0 0 0 58.17 88.04
  A 2.01 2.01 0.0 0 0 56.16 90.05
  A 2.01 2.01 0.0 0 0 58.17 92.06
  A 2.01 2.01 0.0 0 0 60.18 90.05
  Z"
/>
<path fill="#000000" d="
  M 92.13 79.28
  C 89.95 78.39 87.83 80.66 87.71 82.78
  A 1.84 1.84 0.0 0 1 87.10 84.03
  C 85.78 85.21 83.76 84.33 83.70 82.58
  C 83.54 77.76 88.14 74.61 92.43 75.33
  Q 97.54 76.19 98.50 81.73
  Q 98.83 83.68 97.03 84.51
  Q 96.68 84.67 96.31 84.58
  Q 94.59 84.13 94.48 82.36
  Q 94.34 80.18 92.13 79.28
  Z"
/>
<circle fill="#000000" cx="58.17" cy="90.05" r="2.01"/>
</svg>
