<?xml version="1.0" encoding="UTF-8" standalone="no"?>
<!DOCTYPE svg PUBLIC "-//W3C//DTD SVG 1.1//EN" "http://www.w3.org/Graphics/SVG/1.1/DTD/svg11.dtd">
<svg xmlns="http://www.w3.org/2000/svg" version="1.1" viewBox="0.00 0.00 139.00 139.00">
<g stroke-width="2.00" fill="none" stroke-linecap="butt">
<path stroke="#406176" vector-effect="non-scaling-stroke" d="
  M 99.01 136.01
  Q 100.08 134.05 101.25 134.04
  Q 109.90 133.94 118.53 133.93"
/>
<path stroke="#184e6e" vector-effect="non-scaling-stroke" d="
  M 118.53 133.93
  C 122.69 134.11 128.27 134.60 131.50 132.05
  Q 134.94 129.33 134.93 124.31
  Q 134.91 88.53 134.94 53.53
  Q 134.94 50.71 132.66 49.06
  Q 131.39 48.15 131.19 48.00
  Q 128.80 46.27 128.80 49.23
  Q 128.87 86.21 128.83 120.68
  Q 128.83 124.77 125.65 126.87
  C 123.67 128.19 120.86 127.83 118.47 127.81"
/>
<path stroke="#406176" vector-effect="non-scaling-stroke" d="
  M 118.47 127.81
  L 71.94 127.80
  Q 71.64 127.80 71.64 128.10
  L 71.64 133.77
  Q 71.64 133.97 71.84 133.97
  Q 81.47 134.03 91.37 133.94
  C 92.72 133.93 93.81 134.78 94.31 135.98"
/>
<path stroke="#767879" vector-effect="non-scaling-stroke" d="
  M 37.27 35.02
  Q 36.93 36.18 36.05 36.89
  Q 35.67 37.19 35.20 37.20
  Q 25.64 37.38 16.49 40.30
  Q 14.46 40.95 14.46 43.02
  Q 14.46 79.69 14.46 116.69
  A 0.39 0.39 0.0 0 0 14.98 117.06
  C 23.55 113.97 32.72 113.12 41.94 113.17
  Q 55.42 113.26 66.83 116.83
  Q 67.34 116.99 67.34 116.45
  L 67.34 42.27
  A 2.05 2.04 7.6 0 0 65.83 40.30
  Q 55.27 37.50 45.49 37.19
  Q 43.41 37.13 43.00 35.01"
/>
<path stroke="#794f00" vector-effect="non-scaling-stroke" d="
  M 98.55 50.14
  L 98.46 55.39
  Q 98.46 55.57 98.65 55.57
  L 101.23 55.60
  Q 101.45 55.60 101.47 55.38
  C 102.03 50.37 105.29 46.58 108.39 42.84
  Q 114.29 35.73 110.83 26.95
  Q 108.34 20.65 100.73 19.02"
/>
<path stroke="#806c28" vector-effect="non-scaling-stroke" d="
  M 100.73 19.02
  Q 94.62 17.22 88.50 20.18
  Q 81.69 23.48 80.99 31.99
  Q 80.54 37.55 83.46 41.43
  C 86.54 45.50 90.82 49.67 91.24 54.99
  Q 91.28 55.51 91.79 55.53
  L 94.00 55.63
  A 0.38 0.37 -88.6 0 0 94.39 55.25
  L 94.39 41.99
  Q 94.39 41.34 93.74 41.32
  L 90.72 41.23
  Q 89.34 41.19 88.94 39.87
  Q 88.83 39.50 88.90 39.14
  Q 89.26 37.30 91.13 37.30
  Q 96.29 37.28 101.32 37.27
  C 102.79 37.27 104.13 38.29 103.81 39.92
  A 1.49 1.48 89.8 0 1 102.66 41.09
  Q 100.94 41.46 99.19 41.24
  Q 98.53 41.15 98.53 41.83
  L 98.55 50.14"
/>
<path stroke="#f9bb28" vector-effect="non-scaling-stroke" d="
  M 100.73 19.02
  Q 106.89 24.75 107.41 31.76
  C 108.00 39.72 103.20 44.49 98.55 50.14"
/>
<path stroke="#616668" vector-effect="non-scaling-stroke" d="
  M 118.33 115.25
  L 123.97 117.10
  A 0.44 0.43 8.9 0 0 124.54 116.69
  Q 124.55 80.63 124.53 44.51
  C 124.53 42.35 124.70 40.96 122.25 40.22
  Q 120.89 39.81 118.59 39.27"
/>
<path stroke="#767879" vector-effect="non-scaling-stroke" d="
  M 118.59 39.27
  Q 117.60 38.64 115.76 38.68
  Q 115.24 38.69 115.09 39.18
  C 113.08 45.65 106.89 48.88 105.55 55.62
  Q 105.45 56.11 105.91 56.32
  C 110.35 58.33 111.09 63.71 108.23 67.27
  Q 106.23 69.77 102.96 69.74
  Q 97.27 69.70 90.99 69.83
  C 82.79 70.00 79.81 60.55 86.92 56.32
  Q 87.37 56.05 87.30 55.53
  C 86.41 49.14 79.79 45.73 77.90 39.70
  Q 77.74 39.21 77.23 39.31
  Q 74.39 39.87 72.13 40.96
  Q 71.64 41.20 71.64 41.75
  L 71.63 116.64
  A 0.46 0.45 -16.2 0 0 72.33 117.02
  Q 73.69 116.15 75.31 115.77
  Q 96.71 110.78 118.33 115.25"
/>
<path stroke="#d7dee0" vector-effect="non-scaling-stroke" d="
  M 118.59 39.27
  Q 118.43 61.32 118.47 83.26
  Q 118.47 83.55 118.34 83.70
  Q 118.20 83.88 117.96 84.00"
/>
<path stroke="#767879" vector-effect="non-scaling-stroke" d="
  M 117.96 84.00
  C 115.24 81.64 108.70 80.55 105.30 80.26
  Q 93.54 79.24 84.55 81.41
  Q 82.14 82.00 79.91 83.09
  Q 78.05 84.00 78.71 85.96
  Q 78.80 86.23 78.97 86.45
  Q 79.93 87.62 81.29 86.96
  Q 83.97 85.67 86.89 85.07
  Q 95.56 83.28 104.17 84.18
  Q 110.33 84.82 115.59 87.07
  C 116.66 87.53 117.55 86.69 118.18 85.84"
/>
<path stroke="#d7dee0" vector-effect="non-scaling-stroke" d="
  M 118.18 85.84
  L 118.20 99.26"
/>
<path stroke="#767879" vector-effect="non-scaling-stroke" d="
  M 118.20 99.26
  Q 116.62 97.99 115.01 97.43
  C 106.18 94.35 95.75 94.31 86.61 95.99
  Q 83.06 96.65 79.91 98.12
  Q 78.19 98.93 78.66 100.78
  Q 78.76 101.14 78.99 101.43
  Q 79.83 102.50 81.10 102.00
  C 91.92 97.71 105.21 98.13 115.74 102.06
  Q 117.03 102.54 118.00 101.13"
/>
<path stroke="#d7dee0" vector-effect="non-scaling-stroke" d="
  M 118.00 101.13
  Q 118.42 101.26 118.42 101.50
  Q 118.66 108.35 118.33 115.25"
/>
<path stroke="#616668" vector-effect="non-scaling-stroke" d="
  M 118.00 101.13
  L 118.20 99.26"
/>
<path stroke="#616668" vector-effect="non-scaling-stroke" d="
  M 118.18 85.84
  Q 118.25 84.93 117.96 84.00"
/>
<path stroke="#406176" vector-effect="non-scaling-stroke" d="
  M 16.14 127.79
  C 12.80 127.79 10.20 124.33 10.19 121.19
  Q 10.14 83.95 10.21 49.21
  Q 10.21 46.26 7.82 47.99
  Q 6.74 48.78 6.40 49.02
  A 5.62 5.62 0.0 0 0 4.08 53.59
  Q 4.14 91.81 4.07 124.59
  C 4.06 129.99 7.58 133.89 13.27 133.91
  Q 40.18 134.02 67.16 133.98
  Q 67.35 133.97 67.35 133.78
  L 67.34 128.01
  A 0.22 0.21 90.0 0 0 67.13 127.79
  Q 42.36 127.82 16.14 127.79"
/>
<path stroke="#465358" vector-effect="non-scaling-stroke" d="
  M 100.25 65.74
  Q 103.67 66.42 105.36 64.25
  C 106.20 63.16 105.98 62.00 105.28 60.92
  C 104.40 59.56 102.42 59.80 100.98 59.99"
/>
<path stroke="#616668" vector-effect="non-scaling-stroke" d="
  M 100.98 59.99
  L 90.03 59.97
  Q 88.10 59.97 87.30 61.73
  Q 87.01 62.39 87.16 63.07
  Q 87.74 65.75 90.48 65.75
  L 100.25 65.74"
/>
<path stroke="#a7b9bf" vector-effect="non-scaling-stroke" d="
  M 100.98 59.99
  Q 100.92 60.52 101.25 62.25
  Q 101.54 63.76 100.25 65.74"
/>
<path stroke="#465358" vector-effect="non-scaling-stroke" d="
  M 63.53 120.18
  Q 44.83 115.24 25.76 118.48
  Q 20.58 119.36 15.07 121.35
  A 0.75 0.75 0.0 0 0 14.69 122.45
  C 15.18 123.23 16.03 123.85 16.97 123.86
  Q 42.95 123.89 66.76 123.88
  Q 67.42 123.87 67.37 123.21
  L 67.28 121.89
  Q 67.25 121.31 66.70 121.12
  Q 65.18 120.61 63.53 120.18"
/>
<path stroke="#465358" vector-effect="non-scaling-stroke" d="
  M 75.44 120.13
  Q 73.88 120.54 72.29 121.17
  Q 71.72 121.40 71.67 122.01
  L 71.58 123.17
  Q 71.52 123.87 72.22 123.87
  Q 96.76 123.86 121.63 123.90
  C 122.62 123.90 123.61 123.43 124.15 122.60
  Q 124.82 121.57 123.66 121.19
  Q 108.64 116.30 92.79 117.38
  Q 83.61 118.00 75.44 120.13"
/>
<path stroke="#767879" vector-effect="non-scaling-stroke" d="
  M 59.10 52.93
  Q 56.48 51.70 53.56 51.09
  C 43.72 49.02 31.37 48.89 21.98 53.14
  A 2.07 2.06 -15.4 0 0 20.78 55.24
  Q 20.81 55.50 20.94 55.73
  Q 21.92 57.53 23.82 56.77
  Q 28.86 54.74 33.36 54.27
  C 41.18 53.44 50.15 53.63 57.92 56.85
  Q 59.25 57.40 60.04 56.19
  Q 60.22 55.91 60.31 55.60
  Q 60.85 53.75 59.10 52.93"
/>
<path stroke="#767879" vector-effect="non-scaling-stroke" d="
  M 55.32 66.61
  Q 41.21 62.91 27.01 66.41
  Q 24.55 67.01 21.83 68.35
  Q 20.65 68.93 20.78 70.23
  Q 20.86 71.03 21.56 71.66
  A 1.63 1.62 55.9 0 0 23.21 71.98
  Q 37.83 66.47 55.06 70.75
  C 56.47 71.10 57.28 72.09 58.89 72.02
  Q 59.50 71.99 59.89 71.52
  C 60.99 70.19 60.40 68.56 58.88 67.88
  Q 57.02 67.05 55.32 66.61"
/>
<path stroke="#767879" vector-effect="non-scaling-stroke" d="
  M 29.73 85.00
  Q 41.09 82.61 53.07 85.30
  Q 55.49 85.84 57.62 86.93
  Q 59.30 87.79 60.21 86.13
  Q 60.59 85.42 60.37 84.40
  A 1.90 1.90 0.0 0 0 59.22 83.05
  C 50.96 79.79 42.52 79.53 33.81 80.24
  Q 27.95 80.72 22.19 83.14
  Q 20.43 83.87 20.91 85.73
  Q 20.99 86.02 21.18 86.26
  Q 22.19 87.55 23.71 86.94
  C 25.63 86.17 27.72 85.42 29.73 85.00"
/>
<path stroke="#767879" vector-effect="non-scaling-stroke" d="
  M 24.67 97.25
  C 22.87 97.85 20.29 98.47 20.93 100.87
  A 1.72 1.71 -17.3 0 0 23.16 102.04
  Q 40.70 95.84 58.32 102.03
  Q 58.80 102.20 59.26 101.99
  Q 60.38 101.46 60.45 100.16
  A 2.03 2.03 0.0 0 0 59.28 98.20
  Q 55.37 96.39 50.87 95.73
  C 42.10 94.44 32.91 94.50 24.67 97.25"
/>
<path stroke="#58afe4" vector-effect="non-scaling-stroke" d="
  M 118.53 133.93
  L 118.47 127.81"
/>
</g>
<rect fill="#000000" x="94.42" y="0.81" width="4.06" height="9.38" rx="1.92"/>
<rect fill="#000000" x="-4.71" y="-2.04" transform="translate(77.08,11.13) rotate(44.7)" width="9.42" height="4.08" rx="1.93"/>
<rect fill="#000000" x="-4.72" y="-2.03" transform="translate(115.82,11.15) rotate(-45.0)" width="9.44" height="4.06" rx="1.96"/>
<path fill="#000000" d="
  M 139.00 52.27
  L 139.00 126.76
  Q 136.46 138.20 124.99 138.19
  Q 113.23 138.19 101.41 138.19
  Q 100.91 138.19 100.53 137.87
  Q 99.59 137.07 99.01 136.01
  Q 100.08 134.05 101.25 134.04
  Q 109.90 133.94 118.53 133.93
  C 122.69 134.11 128.27 134.60 131.50 132.05
  Q 134.94 129.33 134.93 124.31
  Q 134.91 88.53 134.94 53.53
  Q 134.94 50.71 132.66 49.06
  Q 131.39 48.15 131.19 48.00
  Q 128.80 46.27 128.80 49.23
  Q 128.87 86.21 128.83 120.68
  Q 128.83 124.77 125.65 126.87
  C 123.67 128.19 120.86 127.83 118.47 127.81
  L 71.94 127.80
  Q 71.64 127.80 71.64 128.10
  L 71.64 133.77
  Q 71.64 133.97 71.84 133.97
  Q 81.47 134.03 91.37 133.94
  C 92.72 133.93 93.81 134.78 94.31 135.98
  C 93.84 137.29 93.04 138.27 91.54 138.27
  Q 56.23 138.08 18.34 138.29
  Q 11.05 138.33 7.74 136.95
  Q 1.60 134.38 0.00 126.64
  L 0.00 52.02
  Q 1.85 44.38 9.56 43.31
  Q 10.20 43.22 10.25 42.58
  Q 10.64 37.89 15.30 36.38
  Q 23.63 33.69 34.50 33.01
  Q 36.56 32.88 37.27 35.02
  Q 36.93 36.18 36.05 36.89
  Q 35.67 37.19 35.20 37.20
  Q 25.64 37.38 16.49 40.30
  Q 14.46 40.95 14.46 43.02
  Q 14.46 79.69 14.46 116.69
  A 0.39 0.39 0.0 0 0 14.98 117.06
  C 23.55 113.97 32.72 113.12 41.94 113.17
  Q 55.42 113.26 66.83 116.83
  Q 67.34 116.99 67.34 116.45
  L 67.34 42.27
  A 2.05 2.04 7.6 0 0 65.83 40.30
  Q 55.27 37.50 45.49 37.19
  Q 43.41 37.13 43.00 35.01
  Q 43.72 32.54 46.49 32.97
  Q 50.21 33.54 56.18 33.99
  C 57.97 34.12 59.66 34.74 61.46 35.05
  Q 65.25 35.70 68.90 37.31
  A 1.08 1.07 -41.8 0 0 69.70 37.35
  L 76.09 35.24
  A 0.88 0.86 -9.4 0 0 76.69 34.42
  Q 76.72 19.65 89.77 15.32
  Q 94.62 13.71 100.62 14.71
  Q 105.98 15.60 109.99 19.05
  Q 116.32 24.51 116.06 33.93
  Q 116.04 34.56 116.66 34.65
  Q 119.94 35.18 123.65 36.38
  Q 128.44 37.94 128.73 42.60
  Q 128.77 43.26 129.43 43.35
  Q 137.30 44.35 139.00 52.27
  Z
  M 98.55 50.14
  L 98.46 55.39
  Q 98.46 55.57 98.65 55.57
  L 101.23 55.60
  Q 101.45 55.60 101.47 55.38
  C 102.03 50.37 105.29 46.58 108.39 42.84
  Q 114.29 35.73 110.83 26.95
  Q 108.34 20.65 100.73 19.02
  Q 94.62 17.22 88.50 20.18
  Q 81.69 23.48 80.99 31.99
  Q 80.54 37.55 83.46 41.43
  C 86.54 45.50 90.82 49.67 91.24 54.99
  Q 91.28 55.51 91.79 55.53
  L 94.00 55.63
  A 0.38 0.37 -88.6 0 0 94.39 55.25
  L 94.39 41.99
  Q 94.39 41.34 93.74 41.32
  L 90.72 41.23
  Q 89.34 41.19 88.94 39.87
  Q 88.83 39.50 88.90 39.14
  Q 89.26 37.30 91.13 37.30
  Q 96.29 37.28 101.32 37.27
  C 102.79 37.27 104.13 38.29 103.81 39.92
  A 1.49 1.48 89.8 0 1 102.66 41.09
  Q 100.94 41.46 99.19 41.24
  Q 98.53 41.15 98.53 41.83
  L 98.55 50.14
  Z
  M 118.33 115.25
  L 123.97 117.10
  A 0.44 0.43 8.9 0 0 124.54 116.69
  Q 124.55 80.63 124.53 44.51
  C 124.53 42.35 124.70 40.96 122.25 40.22
  Q 120.89 39.81 118.59 39.27
  Q 117.60 38.64 115.76 38.68
  Q 115.24 38.69 115.09 39.18
  C 113.08 45.65 106.89 48.88 105.55 55.62
  Q 105.45 56.11 105.91 56.32
  C 110.35 58.33 111.09 63.71 108.23 67.27
  Q 106.23 69.77 102.96 69.74
  Q 97.27 69.70 90.99 69.83
  C 82.79 70.00 79.81 60.55 86.92 56.32
  Q 87.37 56.05 87.30 55.53
  C 86.41 49.14 79.79 45.73 77.90 39.70
  Q 77.74 39.21 77.23 39.31
  Q 74.39 39.87 72.13 40.96
  Q 71.64 41.20 71.64 41.75
  L 71.63 116.64
  A 0.46 0.45 -16.2 0 0 72.33 117.02
  Q 73.69 116.15 75.31 115.77
  Q 96.71 110.78 118.33 115.25
  Z
  M 16.14 127.79
  C 12.80 127.79 10.20 124.33 10.19 121.19
  Q 10.14 83.95 10.21 49.21
  Q 10.21 46.26 7.82 47.99
  Q 6.74 48.78 6.40 49.02
  A 5.62 5.62 0.0 0 0 4.08 53.59
  Q 4.14 91.81 4.07 124.59
  C 4.06 129.99 7.58 133.89 13.27 133.91
  Q 40.18 134.02 67.16 133.98
  Q 67.35 133.97 67.35 133.78
  L 67.34 128.01
  A 0.22 0.21 90.0 0 0 67.13 127.79
  Q 42.36 127.82 16.14 127.79
  Z
  M 100.25 65.74
  Q 103.67 66.42 105.36 64.25
  C 106.20 63.16 105.98 62.00 105.28 60.92
  C 104.40 59.56 102.42 59.80 100.98 59.99
  L 90.03 59.97
  Q 88.10 59.97 87.30 61.73
  Q 87.01 62.39 87.16 63.07
  Q 87.74 65.75 90.48 65.75
  L 100.25 65.74
  Z
  M 63.53 120.18
  Q 44.83 115.24 25.76 118.48
  Q 20.58 119.36 15.07 121.35
  A 0.75 0.75 0.0 0 0 14.69 122.45
  C 15.18 123.23 16.03 123.85 16.97 123.86
  Q 42.95 123.89 66.76 123.88
  Q 67.42 123.87 67.37 123.21
  L 67.28 121.89
  Q 67.25 121.31 66.70 121.12
  Q 65.18 120.61 63.53 120.18
  Z
  M 75.44 120.13
  Q 73.88 120.54 72.29 121.17
  Q 71.72 121.40 71.67 122.01
  L 71.58 123.17
  Q 71.52 123.87 72.22 123.87
  Q 96.76 123.86 121.63 123.90
  C 122.62 123.90 123.61 123.43 124.15 122.60
  Q 124.82 121.57 123.66 121.19
  Q 108.64 116.30 92.79 117.38
  Q 83.61 118.00 75.44 120.13
  Z"
/>
<path fill="#ffd74f" d="
  M 100.73 19.02
  Q 106.89 24.75 107.41 31.76
  C 108.00 39.72 103.20 44.49 98.55 50.14
  L 98.53 41.83
  Q 98.53 41.15 99.19 41.24
  Q 100.94 41.46 102.66 41.09
  A 1.49 1.48 89.8 0 0 103.81 39.92
  C 104.13 38.29 102.79 37.27 101.32 37.27
  Q 96.29 37.28 91.13 37.30
  Q 89.26 37.30 88.90 39.14
  Q 88.83 39.50 88.94 39.87
  Q 89.34 41.19 90.72 41.23
  L 93.74 41.32
  Q 94.39 41.34 94.39 41.99
  L 94.39 55.25
  A 0.38 0.37 -88.6 0 1 94.00 55.63
  L 91.79 55.53
  Q 91.28 55.51 91.24 54.99
  C 90.82 49.67 86.54 45.50 83.46 41.43
  Q 80.54 37.55 80.99 31.99
  Q 81.69 23.48 88.50 20.18
  Q 94.62 17.22 100.73 19.02
  Z"
/>
<path fill="#f29e00" d="
  M 100.73 19.02
  Q 108.34 20.65 110.83 26.95
  Q 114.29 35.73 108.39 42.84
  C 105.29 46.58 102.03 50.37 101.47 55.38
  Q 101.45 55.60 101.23 55.60
  L 98.65 55.57
  Q 98.46 55.57 98.46 55.39
  L 98.55 50.14
  C 103.20 44.49 108.00 39.72 107.41 31.76
  Q 106.89 24.75 100.73 19.02
  Z"
/>
<path fill="#ebeff1" d="
  M 37.27 35.02
  L 43.00 35.01
  Q 43.41 37.13 45.49 37.19
  Q 55.27 37.50 65.83 40.30
  A 2.05 2.04 7.6 0 1 67.34 42.27
  L 67.34 116.45
  Q 67.34 116.99 66.83 116.83
  Q 55.42 113.26 41.94 113.17
  C 32.72 113.12 23.55 113.97 14.98 117.06
  A 0.39 0.39 0.0 0 1 14.46 116.69
  Q 14.46 79.69 14.46 43.02
  Q 14.46 40.95 16.49 40.30
  Q 25.64 37.38 35.20 37.20
  Q 35.67 37.19 36.05 36.89
  Q 36.93 36.18 37.27 35.02
  Z
  M 59.10 52.93
  Q 56.48 51.70 53.56 51.09
  C 43.72 49.02 31.37 48.89 21.98 53.14
  A 2.07 2.06 -15.4 0 0 20.78 55.24
  Q 20.81 55.50 20.94 55.73
  Q 21.92 57.53 23.82 56.77
  Q 28.86 54.74 33.36 54.27
  C 41.18 53.44 50.15 53.63 57.92 56.85
  Q 59.25 57.40 60.04 56.19
  Q 60.22 55.91 60.31 55.60
  Q 60.85 53.75 59.10 52.93
  Z
  M 55.32 66.61
  Q 41.21 62.91 27.01 66.41
  Q 24.55 67.01 21.83 68.35
  Q 20.65 68.93 20.78 70.23
  Q 20.86 71.03 21.56 71.66
  A 1.63 1.62 55.9 0 0 23.21 71.98
  Q 37.83 66.47 55.06 70.75
  C 56.47 71.10 57.28 72.09 58.89 72.02
  Q 59.50 71.99 59.89 71.52
  C 60.99 70.19 60.40 68.56 58.88 67.88
  Q 57.02 67.05 55.32 66.61
  Z
  M 29.73 85.00
  Q 41.09 82.61 53.07 85.30
  Q 55.49 85.84 57.62 86.93
  Q 59.30 87.79 60.21 86.13
  Q 60.59 85.42 60.37 84.40
  A 1.90 1.90 0.0 0 0 59.22 83.05
  C 50.96 79.79 42.52 79.53 33.81 80.24
  Q 27.95 80.72 22.19 83.14
  Q 20.43 83.87 20.91 85.73
  Q 20.99 86.02 21.18 86.26
  Q 22.19 87.55 23.71 86.94
  C 25.63 86.17 27.72 85.42 29.73 85.00
  Z
  M 24.67 97.25
  C 22.87 97.85 20.29 98.47 20.93 100.87
  A 1.72 1.71 -17.3 0 0 23.16 102.04
  Q 40.70 95.84 58.32 102.03
  Q 58.80 102.20 59.26 101.99
  Q 60.38 101.46 60.45 100.16
  A 2.03 2.03 0.0 0 0 59.28 98.20
  Q 55.37 96.39 50.87 95.73
  C 42.10 94.44 32.91 94.50 24.67 97.25
  Z"
/>
<path fill="#ebeff1" d="
  M 118.59 39.27
  Q 118.43 61.32 118.47 83.26
  Q 118.47 83.55 118.34 83.70
  Q 118.20 83.88 117.96 84.00
  C 115.24 81.64 108.70 80.55 105.30 80.26
  Q 93.54 79.24 84.55 81.41
  Q 82.14 82.00 79.91 83.09
  Q 78.05 84.00 78.71 85.96
  Q 78.80 86.23 78.97 86.45
  Q 79.93 87.62 81.29 86.96
  Q 83.97 85.67 86.89 85.07
  Q 95.56 83.28 104.17 84.18
  Q 110.33 84.82 115.59 87.07
  C 116.66 87.53 117.55 86.69 118.18 85.84
  L 118.20 99.26
  Q 116.62 97.99 115.01 97.43
  C 106.18 94.35 95.75 94.31 86.61 95.99
  Q 83.06 96.65 79.91 98.12
  Q 78.19 98.93 78.66 100.78
  Q 78.76 101.14 78.99 101.43
  Q 79.83 102.50 81.10 102.00
  C 91.92 97.71 105.21 98.13 115.74 102.06
  Q 117.03 102.54 118.00 101.13
  Q 118.42 101.26 118.42 101.50
  Q 118.66 108.35 118.33 115.25
  Q 96.71 110.78 75.31 115.77
  Q 73.69 116.15 72.33 117.02
  A 0.46 0.45 -16.2 0 1 71.63 116.64
  L 71.64 41.75
  Q 71.64 41.20 72.13 40.96
  Q 74.39 39.87 77.23 39.31
  Q 77.74 39.21 77.90 39.70
  C 79.79 45.73 86.41 49.14 87.30 55.53
  Q 87.37 56.05 86.92 56.32
  C 79.81 60.55 82.79 70.00 90.99 69.83
  Q 97.27 69.70 102.96 69.74
  Q 106.23 69.77 108.23 67.27
  C 111.09 63.71 110.35 58.33 105.91 56.32
  Q 105.45 56.11 105.55 55.62
  C 106.89 48.88 113.08 45.65 115.09 39.18
  Q 115.24 38.69 115.76 38.68
  Q 117.60 38.64 118.59 39.27
  Z"
/>
<path fill="#c2cccf" d="
  M 118.59 39.27
  Q 120.89 39.81 122.25 40.22
  C 124.70 40.96 124.53 42.35 124.53 44.51
  Q 124.55 80.63 124.54 116.69
  A 0.44 0.43 8.9 0 1 123.97 117.10
  L 118.33 115.25
  Q 118.66 108.35 118.42 101.50
  Q 118.42 101.26 118.00 101.13
  L 118.20 99.26
  L 118.18 85.84
  Q 118.25 84.93 117.96 84.00
  Q 118.20 83.88 118.34 83.70
  Q 118.47 83.55 118.47 83.26
  Q 118.43 61.32 118.59 39.27
  Z"
/>
<path fill="#80c1ec" d="
  M 10.19 121.19
  C 10.20 124.33 12.80 127.79 16.14 127.79
  Q 42.36 127.82 67.13 127.79
  A 0.22 0.21 90.0 0 1 67.34 128.01
  L 67.35 133.78
  Q 67.35 133.97 67.16 133.98
  Q 40.18 134.02 13.27 133.91
  C 7.58 133.89 4.06 129.99 4.07 124.59
  Q 4.14 91.81 4.08 53.59
  A 5.62 5.62 0.0 0 1 6.40 49.02
  Q 6.74 48.78 7.82 47.99
  Q 10.21 46.26 10.21 49.21
  Q 10.14 83.95 10.19 121.19
  Z"
/>
<path fill="#2f9cdb" d="
  M 118.53 133.93
  L 118.47 127.81
  C 120.86 127.83 123.67 128.19 125.65 126.87
  Q 128.83 124.77 128.83 120.68
  Q 128.87 86.21 128.80 49.23
  Q 128.80 46.27 131.19 48.00
  Q 131.39 48.15 132.66 49.06
  Q 134.94 50.71 134.94 53.53
  Q 134.91 88.53 134.93 124.31
  Q 134.94 129.33 131.50 132.05
  C 128.27 134.60 122.69 134.11 118.53 133.93
  Z"
/>
<path fill="#000000" d="
  M 59.10 52.93
  Q 60.85 53.75 60.31 55.60
  Q 60.22 55.91 60.04 56.19
  Q 59.25 57.40 57.92 56.85
  C 50.15 53.63 41.18 53.44 33.36 54.27
  Q 28.86 54.74 23.82 56.77
  Q 21.92 57.53 20.94 55.73
  Q 20.81 55.50 20.78 55.24
  A 2.07 2.06 -15.4 0 1 21.98 53.14
  C 31.37 48.89 43.72 49.02 53.56 51.09
  Q 56.48 51.70 59.10 52.93
  Z"
/>
<path fill="#c2cccf" d="
  M 100.98 59.99
  Q 100.92 60.52 101.25 62.25
  Q 101.54 63.76 100.25 65.74
  L 90.48 65.75
  Q 87.74 65.75 87.16 63.07
  Q 87.01 62.39 87.30 61.73
  Q 88.10 59.97 90.03 59.97
  L 100.98 59.99
  Z"
/>
<path fill="#8ba5af" d="
  M 100.98 59.99
  C 102.42 59.80 104.40 59.56 105.28 60.92
  C 105.98 62.00 106.20 63.16 105.36 64.25
  Q 103.67 66.42 100.25 65.74
  Q 101.54 63.76 101.25 62.25
  Q 100.92 60.52 100.98 59.99
  Z"
/>
<path fill="#000000" d="
  M 55.32 66.61
  Q 57.02 67.05 58.88 67.88
  C 60.40 68.56 60.99 70.19 59.89 71.52
  Q 59.50 71.99 58.89 72.02
  C 57.28 72.09 56.47 71.10 55.06 70.75
  Q 37.83 66.47 23.21 71.98
  A 1.63 1.62 55.9 0 1 21.56 71.66
  Q 20.86 71.03 20.78 70.23
  Q 20.65 68.93 21.83 68.35
  Q 24.55 67.01 27.01 66.41
  Q 41.21 62.91 55.32 66.61
  Z"
/>
<path fill="#000000" d="
  M 29.73 85.00
  C 27.72 85.42 25.63 86.17 23.71 86.94
  Q 22.19 87.55 21.18 86.26
  Q 20.99 86.02 20.91 85.73
  Q 20.43 83.87 22.19 83.14
  Q 27.95 80.72 33.81 80.24
  C 42.52 79.53 50.96 79.79 59.22 83.05
  A 1.90 1.90 0.0 0 1 60.37 84.40
  Q 60.59 85.42 60.21 86.13
  Q 59.30 87.79 57.62 86.93
  Q 55.49 85.84 53.07 85.30
  Q 41.09 82.61 29.73 85.00
  Z"
/>
<path fill="#000000" d="
  M 117.96 84.00
  Q 118.25 84.93 118.18 85.84
  C 117.55 86.69 116.66 87.53 115.59 87.07
  Q 110.33 84.82 104.17 84.18
  Q 95.56 83.28 86.89 85.07
  Q 83.97 85.67 81.29 86.96
  Q 79.93 87.62 78.97 86.45
  Q 78.80 86.23 78.71 85.96
  Q 78.05 84.00 79.91 83.09
  Q 82.14 82.00 84.55 81.41
  Q 93.54 79.24 105.30 80.26
  C 108.70 80.55 115.24 81.64 117.96 84.00
  Z"
/>
<path fill="#000000" d="
  M 24.67 97.25
  C 32.91 94.50 42.10 94.44 50.87 95.73
  Q 55.37 96.39 59.28 98.20
  A 2.03 2.03 0.0 0 1 60.45 100.16
  Q 60.38 101.46 59.26 101.99
  Q 58.80 102.20 58.32 102.03
  Q 40.70 95.84 23.16 102.04
  A 1.72 1.71 -17.3 0 1 20.93 100.87
  C 20.29 98.47 22.87 97.85 24.67 97.25
  Z"
/>
<path fill="#000000" d="
  M 118.20 99.26
  L 118.00 101.13
  Q 117.03 102.54 115.74 102.06
  C 105.21 98.13 91.92 97.71 81.10 102.00
  Q 79.83 102.50 78.99 101.43
  Q 78.76 101.14 78.66 100.78
  Q 78.19 98.93 79.91 98.12
  Q 83.06 96.65 86.61 95.99
  C 95.75 94.31 106.18 94.35 115.01 97.43
  Q 116.62 97.99 118.20 99.26
  Z"
/>
<path fill="#8ba5af" d="
  M 63.53 120.18
  Q 65.18 120.61 66.70 121.12
  Q 67.25 121.31 67.28 121.89
  L 67.37 123.21
  Q 67.42 123.87 66.76 123.88
  Q 42.95 123.89 16.97 123.86
  C 16.03 123.85 15.18 123.23 14.69 122.45
  A 0.75 0.75 0.0 0 1 15.07 121.35
  Q 20.58 119.36 25.76 118.48
  Q 44.83 115.24 63.53 120.18
  Z"
/>
<path fill="#8ba5af" d="
  M 75.44 120.13
  Q 83.61 118.00 92.79 117.38
  Q 108.64 116.30 123.66 121.19
  Q 124.82 121.57 124.15 122.60
  C 123.61 123.43 122.62 123.90 121.63 123.90
  Q 96.76 123.86 72.22 123.87
  Q 71.52 123.87 71.58 123.17
  L 71.67 122.01
  Q 71.72 121.40 72.29 121.17
  Q 73.88 120.54 75.44 120.13
  Z"
/>
<path fill="#80c1ec" d="
  M 118.47 127.81
  L 118.53 133.93
  Q 109.90 133.94 101.25 134.04
  Q 100.08 134.05 99.01 136.01
  L 94.31 135.98
  C 93.81 134.78 92.72 133.93 91.37 133.94
  Q 81.47 134.03 71.84 133.97
  Q 71.64 133.97 71.64 133.77
  L 71.64 128.10
  Q 71.64 127.80 71.94 127.80
  L 118.47 127.81
  Z"
/>
</svg>
