<?xml version="1.0" encoding="UTF-8" standalone="no"?>
<!DOCTYPE svg PUBLIC "-//W3C//DTD SVG 1.1//EN" "http://www.w3.org/Graphics/SVG/1.1/DTD/svg11.dtd">
<svg xmlns="http://www.w3.org/2000/svg" version="1.1" viewBox="0.00 0.00 1024.00 1024.00">
<path fill="#8b8b8b" d="
  M 550.59 215.42
  Q 550.97 215.77 551.23 215.44
  Q 551.43 215.18 551.40 215.50
  Q 549.80 235.03 546.37 255.08
  C 546.00 257.24 546.08 259.35 545.42 261.50
  Q 545.06 262.69 544.98 264.00
  Q 543.61 285.79 543.75 306.22
  Q 543.90 328.33 544.56 348.47
  Q 546.77 415.58 560.55 481.63
  Q 560.78 482.74 561.79 483.25
  Q 576.10 490.58 588.95 501.07
  Q 608.24 516.82 626.95 536.01
  Q 640.23 549.64 653.89 563.64
  Q 681.76 592.22 712.27 621.01
  C 744.02 650.96 774.97 679.12 807.79 706.46
  Q 826.46 722.02 844.25 735.26
  Q 851.00 740.28 859.48 744.99
  Q 861.24 745.97 863.17 746.47
  C 865.91 747.19 866.50 749.27 867.82 751.55
  Q 876.82 767.02 885.37 782.02
  A 0.71 0.71 0.0 0 1 885.30 782.83
  Q 884.87 783.36 884.45 783.10
  C 881.77 781.43 879.39 779.74 876.44 778.44
  Q 856.85 769.81 835.67 761.13
  Q 826.61 757.41 818.70 753.94
  C 811.19 750.63 803.39 747.28 795.99 743.60
  Q 774.11 732.73 752.51 721.24
  Q 739.00 714.05 725.87 704.95
  Q 700.18 687.15 678.27 671.03
  Q 669.54 664.61 660.60 656.66
  Q 651.91 648.94 644.83 640.42
  Q 626.40 618.22 602.06 585.84
  Q 596.54 578.49 592.03 570.76
  Q 584.96 558.67 582.91 554.56
  Q 572.14 532.94 562.05 509.35
  A 2.44 2.40 85.9 0 0 560.49 507.98
  C 528.45 498.86 493.65 499.70 460.45 503.15
  A 1.74 1.72 9.9 0 0 459.07 504.11
  Q 436.02 551.41 406.08 597.27
  Q 394.29 615.31 380.01 633.72
  Q 367.63 649.68 350.86 669.12
  C 342.29 679.04 333.65 689.17 323.55 697.76
  Q 305.03 713.54 281.93 730.70
  Q 259.20 747.59 235.15 758.78
  C 219.18 766.21 202.88 773.07 186.24 778.80
  Q 178.08 781.61 167.15 786.86
  Q 165.63 787.59 164.45 788.63
  A 0.59 0.58 54.2 0 1 163.56 788.48
  L 144.07 754.71
  A 1.20 1.20 0.0 0 1 144.74 752.97
  Q 169.93 744.80 195.17 736.14
  Q 205.38 732.63 220.32 726.57
  Q 238.36 719.24 258.40 706.58
  C 268.30 700.32 278.20 692.29 288.03 685.00
  C 292.57 681.64 296.85 678.01 301.19 674.44
  Q 314.10 663.84 324.98 652.02
  Q 387.29 584.32 430.67 501.67
  Q 431.00 501.04 430.65 500.43
  L 414.31 472.19
  Q 413.79 471.28 414.77 471.65
  C 415.18 471.80 415.70 471.90 416.14 471.87
  Q 430.75 470.88 445.52 470.20
  A 1.48 1.47 11.5 0 0 446.78 469.37
  Q 460.66 440.53 472.41 410.07
  Q 487.02 372.16 496.33 343.98
  Q 506.79 312.31 516.56 277.10
  Q 522.79 254.62 526.74 230.52
  C 527.08 228.46 526.82 226.42 527.23 224.39
  Q 527.51 223.01 527.62 221.62
  Q 529.10 202.52 531.09 183.36
  A 0.34 0.34 0.0 0 1 531.72 183.22
  Q 532.89 185.06 533.96 186.90
  Q 544.08 204.35 547.78 210.87
  Q 549.11 213.21 550.50 215.32
  A 0.28 0.24 7.2 0 0 550.59 215.42
  Z
  M 539.71 430.33
  Q 535.40 406.52 533.16 385.36
  Q 530.25 357.85 528.58 329.10
  Q 528.42 326.49 527.66 328.99
  Q 524.71 338.59 521.42 347.83
  Q 499.70 408.84 475.20 468.23
  A 0.51 0.51 0.0 0 0 475.69 468.93
  Q 498.04 468.14 520.67 471.43
  Q 536.31 473.70 551.01 478.93
  Q 551.31 479.04 551.22 478.74
  Q 544.26 455.45 539.71 430.33
  Z
  M 764.68 707.69
  Q 791.24 720.35 817.85 730.30
  Q 819.44 730.89 818.15 729.79
  C 786.70 702.76 758.11 676.58 726.24 646.76
  Q 697.18 619.57 680.76 602.91
  C 663.53 585.41 646.69 567.64 628.80 550.92
  Q 619.45 542.18 607.31 532.47
  Q 596.93 524.18 587.15 518.73
  Q 579.13 514.27 569.61 510.87
  Q 568.07 510.32 568.59 511.87
  Q 576.65 535.80 588.49 560.52
  Q 589.62 562.88 591.17 564.94
  Q 608.75 588.42 626.37 610.13
  Q 634.43 620.05 643.45 628.48
  Q 653.38 637.78 666.21 646.98
  Q 686.79 661.74 708.05 676.45
  Q 726.51 689.23 746.67 699.02
  Q 755.89 703.50 764.68 707.69
  Z"
/>
<path fill="#8b8b8b" d="
  M 1002.36 394.57
  Q 1002.37 395.12 1001.98 395.50
  Q 1001.43 396.03 1001.66 395.30
  Q 1001.96 394.31 1001.93 393.18
  Q 1001.92 393.02 1002.05 392.95
  Q 1002.47 392.71 1002.41 393.18
  Q 1002.33 393.88 1002.36 394.57
  Z"
/>
<path fill="#8b8b8b" d="
  M 1001.12 396.23
  Q 1001.11 396.19 1001.11 396.14
  Q 1001.11 396.10 1001.14 396.06
  Q 1001.18 396.02 1001.21 396.07
  Q 1001.26 396.16 1001.24 396.25
  Q 1000.68 398.03 1000.11 400.12
  Q 999.92 400.83 999.78 400.11
  Q 999.68 399.62 999.84 399.16
  Q 1000.34 397.69 1001.10 396.33
  Q 1001.13 396.28 1001.12 396.23
  Z"
/>
<ellipse fill="#8b8b8b" cx="0.00" cy="0.00" transform="translate(850.99,416.01) rotate(73.9)" rx="1.20" ry="0.26"/>
<path fill="#8b8b8b" d="
  M 847.82 423.43
  Q 847.66 422.46 848.23 421.83
  A 0.24 0.24 0.0 0 1 848.65 422.03
  Q 848.48 422.99 848.00 423.83
  A 1.70 1.66 -30.2 0 0 847.78 424.62
  Q 847.76 425.22 847.34 425.70
  Q 847.02 426.07 847.13 425.59
  Q 847.28 424.94 847.62 424.40
  Q 847.91 423.95 847.82 423.43
  Z"
/>
<path fill="#8b8b8b" d="
  M 876.84 954.29
  Q 877.19 953.59 877.23 952.82
  Q 877.25 952.47 877.59 952.52
  Q 877.74 952.54 877.84 952.68
  Q 877.90 952.75 877.89 952.84
  L 877.74 956.72
  Q 877.71 957.60 877.32 956.81
  C 876.88 955.92 876.30 955.36 876.84 954.29
  Z"
/>
</svg>
