<?xml version="1.0" encoding="UTF-8" standalone="no"?>
<!DOCTYPE svg PUBLIC "-//W3C//DTD SVG 1.1//EN" "http://www.w3.org/Graphics/SVG/1.1/DTD/svg11.dtd">
<svg xmlns="http://www.w3.org/2000/svg" version="1.1" viewBox="0.00 0.00 58.00 58.00">
<path fill="#696969" d="
  M 24.90 22.59
  A 0.82 0.82 0.0 0 0 26.06 22.59
  L 44.93 3.74
  Q 46.05 2.63 47.34 3.52
  Q 47.61 3.71 47.71 4.04
  Q 48.05 5.22 47.18 6.09
  L 28.52 24.75
  A 1.03 1.03 0.0 0 0 28.52 26.21
  L 47.31 45.00
  Q 48.44 46.13 47.41 47.36
  Q 47.26 47.55 47.04 47.65
  Q 45.86 48.19 44.94 47.27
  L 26.20 28.52
  A 1.03 1.02 -44.8 0 0 24.75 28.52
  L 5.88 47.40
  A 1.51 1.50 -66.2 0 1 4.78 47.83
  Q 3.86 47.80 3.54 47.35
  Q 2.62 46.04 3.75 44.91
  L 22.46 26.20
  A 1.02 1.01 -45.2 0 0 22.46 24.77
  L 3.71 6.03
  A 1.41 1.41 0.0 0 1 3.32 5.29
  Q 3.11 4.11 3.73 3.65
  Q 4.99 2.69 6.11 3.81
  L 24.90 22.59
  Z"
/>
</svg>
