<?xml version="1.0" encoding="UTF-8" standalone="no"?>
<!DOCTYPE svg PUBLIC "-//W3C//DTD SVG 1.1//EN" "http://www.w3.org/Graphics/SVG/1.1/DTD/svg11.dtd">
<svg xmlns="http://www.w3.org/2000/svg" version="1.1" viewBox="0.00 0.00 68.00 68.00">
<path fill="#000000" fill-opacity="0.584" d="
  M 61.71 21.69
  A 0.36 0.36 0.0 0 0 61.25 21.69
  Q 52.36 28.69 43.01 36.04
  C 41.06 37.57 38.35 37.62 36.40 36.09
  Q 29.43 30.60 22.42 25.07
  A 0.92 0.90 -35.1 0 0 21.55 24.93
  C 17.14 26.48 17.88 29.94 19.84 32.95
  Q 22.24 36.63 24.20 40.43
  C 25.60 43.17 28.18 45.42 31.18 43.25
  C 36.29 39.55 39.63 42.86 42.44 46.94
  Q 44.83 50.41 45.81 53.73
  Q 46.78 57.01 43.41 58.70
  Q 32.99 63.93 23.40 57.40
  Q 18.76 54.23 15.94 49.60
  Q 12.29 43.61 8.50 36.99
  Q 5.21 31.26 4.45 24.55
  C 4.19 22.24 4.77 20.65 5.03 18.47
  Q 5.16 17.31 5.67 16.09
  Q 8.43 9.52 14.25 6.59
  C 18.65 4.37 22.57 12.15 23.87 15.31
  Q 24.14 15.96 24.83 15.96
  Q 42.46 15.96 60.57 15.97
  C 63.46 15.97 64.96 18.24 64.90 20.90
  Q 64.65 32.61 64.88 44.88
  C 64.94 47.62 63.25 49.68 60.34 49.70
  Q 53.17 49.74 47.40 49.63
  A 1.49 1.49 0.0 0 1 45.95 48.34
  Q 45.93 48.15 45.94 47.95
  Q 45.99 46.99 46.94 46.99
  L 60.54 47.00
  A 1.32 1.32 0.0 0 0 61.86 45.69
  Q 61.89 33.32 61.83 21.94
  Q 61.83 21.79 61.71 21.69
  Z
  M 34.62 44.74
  Q 33.07 45.30 31.63 46.30
  C 28.30 48.59 24.20 45.97 22.45 43.00
  Q 19.20 37.47 16.19 32.08
  C 14.49 29.03 15.35 24.58 18.87 23.05
  Q 20.34 22.40 21.56 21.28
  A 1.39 1.35 72.8 0 0 21.99 20.43
  Q 22.20 18.77 21.92 18.03
  Q 20.17 13.24 16.96 9.56
  A 1.34 1.33 -35.0 0 0 15.30 9.27
  C 6.11 14.38 5.53 25.33 10.15 33.94
  Q 13.95 41.01 18.55 48.35
  Q 21.11 52.43 25.44 55.32
  Q 33.57 60.76 42.49 55.98
  A 0.96 0.95 -17.6 0 0 42.99 55.02
  C 42.56 51.56 39.69 47.47 37.37 45.30
  A 2.67 2.66 -33.4 0 0 34.62 44.74
  Z
  M 24.65 21.72
  Q 23.79 22.47 24.55 23.09
  Q 31.31 28.51 38.29 33.90
  A 2.29 2.27 -45.2 0 0 41.09 33.88
  L 59.30 19.58
  Q 60.29 18.80 59.03 18.80
  L 25.81 18.79
  Q 25.15 18.79 25.05 19.45
  L 24.75 21.52
  A 0.30 0.30 0.0 0 1 24.65 21.72
  Z"
/>
</svg>
