<?xml version="1.0" encoding="UTF-8" standalone="no"?>
<!DOCTYPE svg PUBLIC "-//W3C//DTD SVG 1.1//EN" "http://www.w3.org/Graphics/SVG/1.1/DTD/svg11.dtd">
<svg xmlns="http://www.w3.org/2000/svg" version="1.1" viewBox="0.00 0.00 75.00 75.00">
<path fill="#000000" d="
  M 36.55 0.00
  L 38.57 0.00
  Q 41.65 0.82 42.66 3.03
  Q 46.03 10.43 52.73 9.52
  C 57.04 8.93 60.90 8.73 61.99 13.79
  C 62.66 16.92 60.43 18.58 60.20 21.39
  Q 59.73 26.92 64.01 30.20
  Q 65.75 31.54 66.61 33.50
  Q 67.76 36.16 65.37 39.14
  C 63.47 41.51 60.46 40.90 58.12 42.54
  Q 53.70 45.64 53.89 50.87
  C 54.05 55.32 50.60 58.32 46.13 57.21
  C 44.37 56.78 43.34 55.11 41.62 54.38
  Q 35.73 51.84 30.88 56.12
  C 26.68 59.83 20.92 56.04 21.11 50.93
  Q 21.32 45.76 17.08 42.69
  C 15.47 41.53 13.74 41.32 11.90 40.76
  C 9.55 40.04 7.86 36.90 8.07 34.93
  Q 8.38 32.17 10.78 30.44
  C 14.15 28.01 16.01 23.08 14.17 19.16
  C 13.57 17.89 12.89 16.57 12.90 15.13
  C 12.91 10.88 16.29 8.33 20.33 9.29
  Q 28.59 11.26 32.34 3.04
  Q 33.39 0.74 36.55 0.00
  Z
  M 56.76 29.91
  A 19.26 19.26 0.0 0 0 37.50 10.65
  A 19.26 19.26 0.0 0 0 18.24 29.91
  A 19.26 19.26 0.0 0 0 37.50 49.17
  A 19.26 19.26 0.0 0 0 56.76 29.91
  Z"
/>
<path fill="#000000" d="
  M 53.17 29.94
  A 15.67 15.67 0.0 0 1 37.50 45.61
  A 15.67 15.67 0.0 0 1 21.83 29.94
  A 15.67 15.67 0.0 0 1 37.50 14.27
  A 15.67 15.67 0.0 0 1 53.17 29.94
  Z
  M 34.78 31.00
  L 33.14 28.78
  Q 32.45 27.84 31.32 28.13
  Q 30.94 28.23 30.69 28.55
  Q 29.59 30.00 30.66 31.48
  L 33.59 35.52
  A 1.30 1.30 0.0 0 0 35.41 35.81
  L 45.48 28.46
  Q 46.82 27.48 45.92 26.08
  L 45.62 25.62
  A 1.31 1.31 0.0 0 0 43.74 25.26
  L 35.69 31.14
  Q 35.16 31.52 34.78 31.00
  Z"
/>
<path fill="#000000" d="
  M 27.43 75.00
  L 26.49 75.00
  C 24.26 70.89 23.16 66.73 17.11 69.33
  Q 13.44 70.90 15.09 67.27
  L 19.16 58.27
  Q 19.42 57.70 19.88 58.13
  Q 24.49 62.46 29.94 60.59
  C 31.83 59.94 33.12 58.50 34.83 57.48
  Q 35.59 57.02 35.22 57.83
  L 27.43 75.00
  Z"
/>
<path fill="#000000" d="
  M 48.42 75.00
  L 47.55 75.00
  L 39.79 57.82
  Q 39.43 57.03 40.17 57.48
  C 41.62 58.36 42.87 59.68 44.40 60.32
  Q 50.18 62.77 55.14 58.10
  Q 55.57 57.70 55.81 58.23
  L 60.10 67.64
  Q 61.44 70.60 58.38 69.50
  C 51.20 66.92 51.35 70.47 48.42 75.00
  Z"
/>
</svg>
