<?xml version="1.0" encoding="UTF-8" standalone="no"?>
<!DOCTYPE svg PUBLIC "-//W3C//DTD SVG 1.1//EN" "http://www.w3.org/Graphics/SVG/1.1/DTD/svg11.dtd">
<svg xmlns="http://www.w3.org/2000/svg" version="1.1" viewBox="0.00 0.00 103.00 103.00">
<path fill="#000000" d="
  M 46.79 0.00
  L 56.34 0.00
  C 66.66 0.81 77.68 1.98 87.02 6.75
  C 91.05 8.82 94.73 12.38 94.73 17.19
  Q 94.69 47.78 94.73 85.41
  C 94.74 90.57 91.30 94.19 86.91 96.30
  C 77.10 101.04 66.97 102.19 56.23 103.00
  L 46.65 103.00
  C 34.18 102.17 24.95 100.84 15.68 96.08
  C 11.31 93.83 8.26 90.34 8.26 85.14
  Q 8.30 45.65 8.28 17.55
  C 8.27 3.31 35.50 0.73 46.79 0.00
  Z
  M 87.56 15.27
  A 2.71 2.60 -88.9 0 0 87.07 14.74
  Q 83.51 11.91 79.24 10.56
  C 64.98 6.07 48.86 5.58 34.49 7.94
  Q 27.05 9.17 20.78 11.72
  C 18.75 12.55 12.70 15.64 15.97 18.46
  Q 18.82 20.91 22.47 22.19
  C 35.92 26.91 51.37 27.42 65.52 25.74
  Q 73.17 24.83 81.22 21.91
  C 83.23 21.18 89.61 18.27 87.56 15.27
  Z
  M 74.79 47.25
  C 77.84 46.55 88.11 43.42 88.06 39.44
  Q 87.97 32.52 88.09 26.74
  A 0.57 0.57 0.0 0 0 87.24 26.23
  Q 82.19 29.02 76.68 30.32
  Q 53.82 35.72 29.73 31.10
  Q 22.58 29.73 15.35 26.17
  A 0.34 0.33 11.9 0 0 14.87 26.48
  Q 15.05 33.08 14.96 39.44
  C 14.91 43.04 23.65 46.10 26.45 46.79
  Q 50.59 52.76 74.79 47.25
  Z
  M 88.08 62.33
  Q 87.93 55.53 88.13 49.79
  A 0.30 0.30 0.0 0 0 87.70 49.50
  Q 78.48 53.76 69.72 55.05
  C 51.23 57.77 32.06 57.11 15.36 49.54
  Q 14.79 49.28 14.82 49.90
  Q 15.10 56.26 14.94 62.54
  C 14.82 67.57 29.23 70.94 32.90 71.53
  Q 51.78 74.56 70.84 71.41
  Q 74.17 70.86 77.89 69.60
  C 80.89 68.58 88.16 66.32 88.08 62.33
  Z
  M 88.03 86.40
  L 88.04 73.02
  A 0.44 0.43 -16.5 0 0 87.37 72.66
  Q 83.95 74.87 79.13 76.16
  Q 56.14 82.37 31.49 77.98
  Q 22.66 76.41 15.31 72.63
  A 0.29 0.29 0.0 0 0 14.89 72.89
  Q 15.06 79.14 14.94 85.93
  C 14.89 89.08 21.28 91.62 23.69 92.40
  C 37.14 96.71 51.66 97.18 65.72 95.50
  C 70.45 94.94 75.10 93.67 79.57 92.31
  Q 83.56 91.09 87.18 88.18
  Q 88.03 87.49 88.03 86.40
  Z"
/>
</svg>
