<?xml version="1.0" encoding="UTF-8" standalone="no"?>
<!DOCTYPE svg PUBLIC "-//W3C//DTD SVG 1.1//EN" "http://www.w3.org/Graphics/SVG/1.1/DTD/svg11.dtd">
<svg xmlns="http://www.w3.org/2000/svg" version="1.1" viewBox="0.00 0.00 103.00 103.00">
<path fill="#000000" d="
  M 99.8835 76.4056
  A 23.35 23.35 0.0 0 1 76.5743 99.7963
  L 26.5944 99.8835
  A 23.35 23.35 0.0 0 1 3.2037 76.5743
  L 3.1165 26.5944
  A 23.35 23.35 0.0 0 1 26.4257 3.2037
  L 76.4056 3.1165
  A 23.35 23.35 0.0 0 1 99.7963 26.4257
  L 99.8835 76.4056
  Z
  M 76.78 93.28
  A 16.50 16.50 0.0 0 0 93.28 76.78
  L 93.29 26.22
  A 16.50 16.50 0.0 0 0 76.79 9.72
  L 26.22 9.71
  A 16.50 16.50 0.0 0 0 9.72 26.21
  L 9.72 76.78
  A 16.50 16.50 0.0 0 0 26.22 93.28
  L 76.78 93.28
  Z"
/>
<path fill="#000000" d="
  M 36.52 60.70
  C 41.71 62.40 46.47 57.60 46.63 52.53
  Q 46.85 45.78 46.71 38.88
  Q 46.65 35.71 49.80 35.39
  Q 50.19 35.35 50.56 35.44
  Q 52.91 36.06 52.96 38.48
  Q 53.11 45.49 52.93 52.23
  Q 52.69 61.23 45.14 65.86
  C 37.15 70.75 27.79 65.30 25.09 57.11
  C 23.36 51.89 23.96 44.81 24.10 39.24
  Q 24.18 36.25 27.05 35.40
  Q 27.60 35.24 28.11 35.42
  Q 30.54 36.27 30.57 38.52
  Q 30.64 44.27 30.54 50.15
  C 30.47 54.70 31.86 59.18 36.52 60.70
  Z"
/>
<path fill="#000000" d="
  M 68.24 44.61
  Q 70.72 40.18 73.35 36.32
  Q 74.27 34.97 76.74 35.56
  Q 77.19 35.66 77.53 35.99
  Q 79.75 38.12 78.11 40.72
  L 71.90 50.65
  A 1.61 1.61 0.0 0 0 71.90 52.35
  L 77.99 62.08
  Q 79.30 64.17 78.14 66.35
  Q 77.75 67.08 77.08 67.28
  Q 74.20 68.12 72.61 65.58
  L 68.14 58.45
  A 0.65 0.65 0.0 0 0 67.04 58.45
  L 62.46 65.77
  Q 60.81 68.41 57.93 67.21
  Q 57.48 67.02 57.17 66.62
  Q 55.61 64.58 56.98 62.40
  L 63.33 52.30
  A 1.48 1.48 0.0 0 0 63.33 50.72
  L 56.94 40.55
  Q 55.54 38.31 57.25 36.29
  Q 57.51 35.99 57.86 35.82
  Q 60.73 34.47 62.41 37.16
  L 67.09 44.64
  A 0.67 0.67 0.0 0 0 68.24 44.61
  Z"
/>
</svg>
