<?xml version="1.0" encoding="UTF-8" standalone="no"?>
<!DOCTYPE svg PUBLIC "-//W3C//DTD SVG 1.1//EN" "http://www.w3.org/Graphics/SVG/1.1/DTD/svg11.dtd">
<svg xmlns="http://www.w3.org/2000/svg" version="1.1" viewBox="0.00 0.00 76.00 76.00">
<path stroke="#939393" stroke-width="2.00" fill="none" stroke-linecap="butt" vector-effect="non-scaling-stroke" d="
  M 22.48 47.79
  Q 23.24 48.02 23.87 48.53
  C 25.15 49.58 25.58 51.14 27.03 51.93
  Q 29.31 53.16 31.52 52.17
  Q 32.03 51.95 32.24 51.43
  L 33.06 49.46
  Q 33.30 48.88 32.68 48.80
  Q 26.80 47.96 24.62 44.24
  Q 20.66 37.50 24.94 31.45
  Q 25.27 30.98 25.11 30.43
  Q 24.43 28.02 25.38 25.38
  Q 25.59 24.79 26.21 24.88
  Q 29.12 25.29 31.40 26.93
  A 1.53 1.50 -32.7 0 0 32.60 27.18
  Q 37.99 26.05 43.40 27.18
  A 1.46 1.45 -56.9 0 0 44.57 26.93
  Q 46.84 25.23 49.86 24.87
  A 0.60 0.60 0.0 0 1 50.50 25.28
  Q 51.38 27.98 50.76 30.71
  Q 50.65 31.19 50.97 31.56
  Q 53.77 34.96 53.03 39.55
  C 52.09 45.37 48.59 48.03 43.22 48.77
  Q 42.47 48.87 42.85 49.53
  C 44.41 52.24 43.83 56.60 43.82 59.57
  A 1.22 1.21 80.1 0 0 45.45 60.72
  Q 57.84 56.22 61.08 43.91
  Q 62.18 39.73 61.58 35.71
  C 59.24 20.10 43.02 10.78 28.39 17.27
  C 17.41 22.15 11.54 34.21 15.40 45.72
  C 17.64 52.42 23.66 59.17 30.97 60.78
  A 0.86 0.86 0.0 0 0 32.02 59.94
  L 32.02 56.27
  Q 32.02 55.78 31.54 55.86
  Q 26.00 56.79 23.92 52.12
  C 23.24 50.59 22.09 49.43 20.79 48.41
  Q 20.22 47.96 20.92 47.77
  Q 21.72 47.56 22.48 47.79"
/>
<path fill="#262626" d="
  M 8.88 0.00
  L 67.09 0.00
  Q 74.48 1.66 76.00 9.03
  L 76.00 67.07
  Q 74.41 74.33 67.11 76.00
  L 8.77 76.00
  Q 1.60 74.24 0.00 67.12
  L 0.00 8.77
  Q 1.73 1.61 8.88 0.00
  Z
  M 22.48 47.79
  Q 23.24 48.02 23.87 48.53
  C 25.15 49.58 25.58 51.14 27.03 51.93
  Q 29.31 53.16 31.52 52.17
  Q 32.03 51.95 32.24 51.43
  L 33.06 49.46
  Q 33.30 48.88 32.68 48.80
  Q 26.80 47.96 24.62 44.24
  Q 20.66 37.50 24.94 31.45
  Q 25.27 30.98 25.11 30.43
  Q 24.43 28.02 25.38 25.38
  Q 25.59 24.79 26.21 24.88
  Q 29.12 25.29 31.40 26.93
  A 1.53 1.50 -32.7 0 0 32.60 27.18
  Q 37.99 26.05 43.40 27.18
  A 1.46 1.45 -56.9 0 0 44.57 26.93
  Q 46.84 25.23 49.86 24.87
  A 0.60 0.60 0.0 0 1 50.50 25.28
  Q 51.38 27.98 50.76 30.71
  Q 50.65 31.19 50.97 31.56
  Q 53.77 34.96 53.03 39.55
  C 52.09 45.37 48.59 48.03 43.22 48.77
  Q 42.47 48.87 42.85 49.53
  C 44.41 52.24 43.83 56.60 43.82 59.57
  A 1.22 1.21 80.1 0 0 45.45 60.72
  Q 57.84 56.22 61.08 43.91
  Q 62.18 39.73 61.58 35.71
  C 59.24 20.10 43.02 10.78 28.39 17.27
  C 17.41 22.15 11.54 34.21 15.40 45.72
  C 17.64 52.42 23.66 59.17 30.97 60.78
  A 0.86 0.86 0.0 0 0 32.02 59.94
  L 32.02 56.27
  Q 32.02 55.78 31.54 55.86
  Q 26.00 56.79 23.92 52.12
  C 23.24 50.59 22.09 49.43 20.79 48.41
  Q 20.22 47.96 20.92 47.77
  Q 21.72 47.56 22.48 47.79
  Z"
/>
<path fill="#ffffff" d="
  M 20.79 48.41
  C 22.09 49.43 23.24 50.59 23.92 52.12
  Q 26.00 56.79 31.54 55.86
  Q 32.02 55.78 32.02 56.27
  L 32.02 59.94
  A 0.86 0.86 0.0 0 1 30.97 60.78
  C 23.66 59.17 17.64 52.42 15.40 45.72
  C 11.54 34.21 17.41 22.15 28.39 17.27
  C 43.02 10.78 59.24 20.10 61.58 35.71
  Q 62.18 39.73 61.08 43.91
  Q 57.84 56.22 45.45 60.72
  A 1.22 1.21 80.1 0 1 43.82 59.57
  C 43.83 56.60 44.41 52.24 42.85 49.53
  Q 42.47 48.87 43.22 48.77
  C 48.59 48.03 52.09 45.37 53.03 39.55
  Q 53.77 34.96 50.97 31.56
  Q 50.65 31.19 50.76 30.71
  Q 51.38 27.98 50.50 25.28
  A 0.60 0.60 0.0 0 0 49.86 24.87
  Q 46.84 25.23 44.57 26.93
  A 1.46 1.45 -56.9 0 1 43.40 27.18
  Q 37.99 26.05 32.60 27.18
  A 1.53 1.50 -32.7 0 1 31.40 26.93
  Q 29.12 25.29 26.21 24.88
  Q 25.59 24.79 25.38 25.38
  Q 24.43 28.02 25.11 30.43
  Q 25.27 30.98 24.94 31.45
  Q 20.66 37.50 24.62 44.24
  Q 26.80 47.96 32.68 48.80
  Q 33.30 48.88 33.06 49.46
  L 32.24 51.43
  Q 32.03 51.95 31.52 52.17
  Q 29.31 53.16 27.03 51.93
  C 25.58 51.14 25.15 49.58 23.87 48.53
  Q 23.24 48.02 22.48 47.79
  Q 21.72 47.56 20.92 47.77
  Q 20.22 47.96 20.79 48.41
  Z"
/>
</svg>
