<?xml version="1.0" encoding="UTF-8" standalone="no"?>
<!DOCTYPE svg PUBLIC "-//W3C//DTD SVG 1.1//EN" "http://www.w3.org/Graphics/SVG/1.1/DTD/svg11.dtd">
<svg xmlns="http://www.w3.org/2000/svg" version="1.1" viewBox="0.00 0.00 35.00 35.00">
<path fill="#f8fbf8" d="
  M 33.0147 25.8730
  A 3.06 3.06 0.0 0 1 29.9600 28.9383
  L 5.1001 28.9817
  A 3.06 3.06 0.0 0 1 2.0347 25.9270
  L 2.0053 9.0870
  A 3.06 3.06 0.0 0 1 5.0600 6.0217
  L 29.9199 5.9783
  A 3.06 3.06 0.0 0 1 32.9853 9.0330
  L 33.0147 25.8730
  Z
  M 4.95 8.05
  L 15.95 19.43
  A 2.17 2.16 -44.9 0 0 19.06 19.43
  L 30.45 7.65
  A 0.39 0.38 -67.9 0 0 30.18 7.00
  L 5.32 7.00
  Q 3.92 7.00 4.95 8.05
  Z
  M 31.95 8.96
  Q 31.94 7.66 31.05 8.60
  Q 26.03 13.87 20.64 19.44
  Q 17.53 22.66 14.48 19.55
  Q 9.31 14.26 4.08 8.70
  Q 3.05 7.61 3.05 9.11
  L 3.03 25.79
  A 2.26 2.25 0.1 0 0 5.29 28.05
  L 29.72 28.03
  A 2.25 2.24 -0.1 0 0 31.97 25.78
  L 31.95 8.96
  Z"
/>
</svg>
