<?xml version="1.0" encoding="UTF-8" standalone="no"?>
<!DOCTYPE svg PUBLIC "-//W3C//DTD SVG 1.1//EN" "http://www.w3.org/Graphics/SVG/1.1/DTD/svg11.dtd">
<svg xmlns="http://www.w3.org/2000/svg" version="1.1" viewBox="0.00 0.00 68.00 68.00">
<path fill="#696969" d="
  M 68.00 10.38
  L 68.00 12.30
  C 67.36 13.09 66.46 13.76 65.40 13.76
  Q 34.00 13.74 2.59 13.76
  C 1.50 13.76 0.55 13.05 0.00 12.15
  L 0.00 10.29
  L 1.13 9.32
  A 1.24 1.23 24.1 0 1 1.95 9.01
  Q 33.90 8.99 65.76 9.01
  C 66.70 9.01 67.49 9.64 68.00 10.38
  Z"
/>
<path fill="#696969" d="
  M 68.00 33.06
  L 68.00 35.02
  Q 66.72 36.38 65.63 36.38
  Q 34.03 36.38 2.43 36.38
  Q 1.09 36.38 0.00 34.92
  L 0.00 33.00
  Q 1.23 31.62 2.37 31.62
  Q 33.97 31.62 65.56 31.62
  Q 66.83 31.62 68.00 33.06
  Z"
/>
<path fill="#696969" d="
  M 68.00 55.79
  L 68.00 57.70
  C 67.40 58.40 66.71 58.99 65.75 58.99
  Q 34.40 59.02 2.20 58.99
  C 1.25 58.99 0.51 58.35 0.00 57.60
  L 0.00 55.72
  C 0.65 54.93 1.55 54.23 2.61 54.23
  Q 34.00 54.25 65.47 54.25
  C 66.51 54.25 67.44 54.97 68.00 55.79
  Z"
/>
</svg>
