<?xml version="1.0" encoding="UTF-8" standalone="no"?>
<!DOCTYPE svg PUBLIC "-//W3C//DTD SVG 1.1//EN" "http://www.w3.org/Graphics/SVG/1.1/DTD/svg11.dtd">
<svg xmlns="http://www.w3.org/2000/svg" version="1.1" viewBox="0.00 0.00 103.00 103.00">
<path fill="#000000" d="
  M 29.54 0.00
  L 73.54 0.00
  Q 82.39 2.22 82.39 12.00
  Q 82.39 52.00 82.40 92.00
  Q 82.40 100.94 73.41 103.00
  L 29.47 103.00
  Q 20.60 100.89 20.60 92.50
  Q 20.60 52.49 20.61 12.50
  Q 20.62 2.16 29.54 0.00
  Z
  M 77.2819 10.3249
  A 5.02 5.02 0.0 0 0 72.2707 5.2962
  L 30.8908 5.2240
  A 5.02 5.02 0.0 0 0 25.8620 10.2352
  L 25.7181 92.6951
  A 5.02 5.02 0.0 0 0 30.7293 97.7238
  L 72.1092 97.7960
  A 5.02 5.02 0.0 0 0 77.1380 92.7848
  L 77.2819 10.3249
  Z"
/>
<rect fill="#000000" x="-7.74" y="-2.56" transform="translate(55.76,11.21) rotate(-0.1)" width="15.48" height="5.12" rx="2.48"/>
<circle fill="#000000" cx="42.01" cy="11.21" r="2.56"/>
<circle fill="#000000" cx="51.50" cy="89.22" r="5.10"/>
</svg>
