<?xml version="1.0" encoding="UTF-8" standalone="no"?>
<!DOCTYPE svg PUBLIC "-//W3C//DTD SVG 1.1//EN" "http://www.w3.org/Graphics/SVG/1.1/DTD/svg11.dtd">
<svg xmlns="http://www.w3.org/2000/svg" version="1.1" viewBox="0.00 0.00 35.00 35.00">
<path fill="#fafcfb" d="
  M 23.79 13.69
  A 6.29 6.29 0.0 0 1 17.50 19.98
  A 6.29 6.29 0.0 0 1 11.21 13.69
  A 6.29 6.29 0.0 0 1 17.50 7.40
  A 6.29 6.29 0.0 0 1 23.79 13.69
  Z
  M 22.16 13.65
  A 4.66 4.66 0.0 0 0 17.50 8.99
  A 4.66 4.66 0.0 0 0 12.84 13.65
  A 4.66 4.66 0.0 0 0 17.50 18.31
  A 4.66 4.66 0.0 0 0 22.16 13.65
  Z"
/>
<path fill="#fafcfb" d="
  M 21.52 22.84
  Q 25.84 24.17 28.34 28.42
  Q 28.68 28.99 28.23 29.48
  L 27.99 29.73
  A 0.27 0.27 0.0 0 1 27.60 29.74
  C 26.17 28.37 25.34 26.76 23.60 25.67
  Q 17.22 21.70 11.02 25.95
  C 9.50 26.99 8.74 28.51 7.44 29.75
  A 0.33 0.32 53.3 0 1 6.93 29.67
  L 6.77 29.40
  A 1.38 1.38 0.0 0 1 6.87 27.87
  Q 12.82 20.15 21.52 22.84
  Z"
/>
</svg>
